<svg xmlns="http://www.w3.org/2000/svg" width="238.71" height="191.347" viewBox="0 0 238.71 191.347">
  <g id="Group_49381" data-name="Group 49381" transform="translate(-110.813 -323.427)">
    <g id="Group_7450" data-name="Group 7450" transform="translate(110.813 323.427)">
      <g id="Background_Complete" data-name="Background Complete" transform="translate(0 5.468)">
        <g id="Group_7119" data-name="Group 7119" transform="translate(22.04)">
          <g id="Group_7110" data-name="Group 7110">
            <path id="Path_10604" data-name="Path 10604" d="M79.229,95.357a8.751,8.751,0,0,1,6.742,1.227,15.453,15.453,0,0,1,4.782,5.092c2.394,3.863,3.2,9.032,3.266,13.577C88.978,115,84.706,111,82.666,108.828,79.443,105.4,75.7,97.251,79.229,95.357" transform="translate(-77.802 -95.12)" fill="#0f4c81"/>
          </g>
          <g id="Group_7111" data-name="Group 7111" transform="translate(21.686 8.892)">
            <path id="Path_10605" data-name="Path 10605" d="M120.1,125.75a7.467,7.467,0,0,1-2.5-7.068,9.916,9.916,0,0,1,4.329-6.321,4.174,4.174,0,0,1,3.413-.855,3.191,3.191,0,0,1,2.042,2.51,6.475,6.475,0,0,1-.42,3.337c-1.308,3.663-3.245,6.969-6.864,8.4" transform="translate(-117.487 -111.392)" fill="#0f4c81"/>
          </g>
          <g id="Group_7113" data-name="Group 7113" transform="translate(24.127 14.829)">
            <g id="Group_7112" data-name="Group 7112">
              <path id="Path_10606" data-name="Path 10606" d="M125.063,141.667a14.708,14.708,0,0,1-1.43-2.643,13.988,13.988,0,0,1-1.006-3.126,30.73,30.73,0,0,1-.625-3.959,14.944,14.944,0,0,1,1.137-7.173,10.838,10.838,0,0,1,1.119-1.912c.327-.409.525-.618.552-.6.075.054-.657.952-1.339,2.649a16.029,16.029,0,0,0-.961,7,35.854,35.854,0,0,0,.577,3.9,15.31,15.31,0,0,0,.878,3.079A21.639,21.639,0,0,1,125.063,141.667Z" transform="translate(-121.954 -122.256)" fill="#e8a188"/>
            </g>
          </g>
          <g id="Group_7115" data-name="Group 7115" transform="translate(4.825 6.191)">
            <g id="Group_7114" data-name="Group 7114">
              <path id="Path_10607" data-name="Path 10607" d="M86.634,106.45a8.637,8.637,0,0,1,1.055,1.095c.655.726,1.587,1.789,2.727,3.113,2.28,2.648,5.39,6.342,8.724,10.5s6.246,8.02,8.294,10.853c1.024,1.416,1.839,2.572,2.386,3.383a8.662,8.662,0,0,1,.81,1.286,8.738,8.738,0,0,1-.971-1.17l-2.515-3.284c-2.12-2.775-5.072-6.589-8.4-10.75l-8.6-10.592-2.6-3.216A8.749,8.749,0,0,1,86.634,106.45Z" transform="translate(-86.632 -106.449)" fill="#e8a188"/>
            </g>
          </g>
          <g id="Group_7116" data-name="Group 7116" transform="translate(2.238 25.121)">
            <path id="Path_10608" data-name="Path 10608" d="M100.53,144.135A17.467,17.467,0,0,0,84.7,142.15c-1.319.495-2.755,1.416-2.8,2.824s1.345,2.419,2.649,2.961a14.923,14.923,0,0,0,16.189-3.477" transform="translate(-81.897 -141.09)" fill="#0f4c81"/>
          </g>
          <g id="Group_7118" data-name="Group 7118" transform="translate(8.563 27.228)">
            <g id="Group_7117" data-name="Group 7117">
              <path id="Path_10609" data-name="Path 10609" d="M93.472,146.04a2.449,2.449,0,0,1,.757-.258c.493-.142,1.22-.3,2.123-.466a19.707,19.707,0,0,1,7.183-.061,12.366,12.366,0,0,1,3.73,1.424,12.052,12.052,0,0,1,3.889,3.756c.279.433.418.68.389.7-.083.06-.705-.9-2-2.162a12.914,12.914,0,0,0-2.518-1.888,12.7,12.7,0,0,0-3.6-1.331,22.167,22.167,0,0,0-7.026-.083A25.421,25.421,0,0,1,93.472,146.04Z" transform="translate(-93.472 -144.945)" fill="#e8a188"/>
            </g>
          </g>
        </g>
        <g id="Group_7143" data-name="Group 7143" transform="translate(0 29.513)">
          <g id="Group_7122" data-name="Group 7122" opacity="0.345">
            <g id="Group_7121" data-name="Group 7121">
              <g id="Group_7120" data-name="Group 7120">
                <path id="Path_10610" data-name="Path 10610" d="M87.778,258.714c16.295-7.911,22.648-26.4,24.788-43.584.358-2.869,1.15-5.827.191-8.547s-3.854-4.935-6.6-4.138c-2.278.66-3.594,2.978-5.1,4.827a16.9,16.9,0,0,1-7.709,5.327c-1.967.654-4.307.872-5.943-.4-2.245-1.75-1.994-5.2-1.525-8.032q1.313-7.926,2.625-15.852a26.793,26.793,0,0,0,.485-8.565c-.454-2.834-2.006-5.647-4.585-6.832s-6.166-.161-7.178,2.526a26.532,26.532,0,0,0-.643,3.521,3.022,3.022,0,0,1-2.193,2.532c-1.186.152-2.194-.833-2.909-1.8C69,176.365,67.6,172.358,66.33,168.391s-2.479-8.012-4.639-11.56-5.443-6.61-9.47-7.487-8.758.943-10.42,4.769.021,8.268,2.046,11.911A64.162,64.162,0,0,0,55.037,180.7a5.277,5.277,0,0,1,1.828,2.723c.315,1.99-1.777,3.584-3.743,3.909-2.227.368-4.488-.217-6.742-.309s-4.807.5-5.977,2.461c-1.624,2.715.318,6.142,2.388,8.513a54.947,54.947,0,0,0,14.585,11.827c1.966,1.1,4.056,2.116,5.506,3.85s2.06,4.447.725,6.284-4.049,2.063-6.171,1.309-3.89-2.252-5.849-3.37c-3.666-2.092-8.745-2.625-11.78.348a9.093,9.093,0,0,0-2.22,7.789,20.961,20.961,0,0,0,3.186,7.7,55.259,55.259,0,0,0,20.694,20.083c8.547,4.577,16.795,6.76,26.309,4.9" transform="translate(-37.47 -149.127)" fill="#0f4c81"/>
              </g>
            </g>
          </g>
          <g id="Group_7126" data-name="Group 7126" transform="translate(9.051 1.746)">
            <g id="Group_7125" data-name="Group 7125">
              <g id="Group_7124" data-name="Group 7124">
                <g id="Group_7123" data-name="Group 7123">
                  <path id="Path_10611" data-name="Path 10611" d="M92.979,261.074c.458-6.87.764-3.306-.4-12.329a257.4,257.4,0,0,0-5.737-28.984q-.959-3.808-1.894-7.52c-.627-2.467-1.249-4.913-2.006-7.268a128.6,128.6,0,0,0-5.121-13.285c-1.833-4.147-3.724-8.015-5.518-11.618s-3.547-6.927-5.265-9.89A102.021,102.021,0,0,0,57.9,156.815c-1.2-1.488-2.166-2.612-2.832-3.365l-.763-.851a2.166,2.166,0,0,0-.273-.278,2.041,2.041,0,0,0,.232.314l.723.885c.639.775,1.58,1.919,2.753,3.425A107.947,107.947,0,0,1,66.72,170.37c1.693,2.966,3.413,6.294,5.2,9.9s3.649,7.479,5.466,11.621a130.063,130.063,0,0,1,5.071,13.244c.749,2.343,1.363,4.768,1.99,7.242s1.252,4.979,1.891,7.517A263.805,263.805,0,0,1,92.1,248.811c1.183,8.991.915,5.393.506,12.241" transform="translate(-54.033 -152.322)" fill="#e0e0e0"/>
                </g>
              </g>
            </g>
          </g>
          <g id="Group_7130" data-name="Group 7130" transform="translate(37.811 23.789)">
            <g id="Group_7129" data-name="Group 7129">
              <g id="Group_7128" data-name="Group 7128">
                <g id="Group_7127" data-name="Group 7127">
                  <path id="Path_10612" data-name="Path 10612" d="M106.67,223.222a5.871,5.871,0,0,0,.469-1.166c.274-.761.634-1.873,1.058-3.255.851-2.762,1.9-6.616,3.032-10.869s2.233-8.084,3.124-10.825c.442-1.372.81-2.479,1.074-3.241a5.733,5.733,0,0,0,.355-1.207,5.722,5.722,0,0,0-.546,1.133c-.324.74-.748,1.831-1.235,3.192-.985,2.72-2.144,6.548-3.281,10.807-1.11,4.2-2.114,8-2.882,10.9-.355,1.309-.655,2.413-.9,3.3A5.7,5.7,0,0,0,106.67,223.222Z" transform="translate(-106.663 -192.659)" fill="#e0e0e0"/>
                </g>
              </g>
            </g>
          </g>
          <g id="Group_7134" data-name="Group 7134" transform="translate(2.417 41.717)">
            <g id="Group_7133" data-name="Group 7133">
              <g id="Group_7132" data-name="Group 7132">
                <g id="Group_7131" data-name="Group 7131">
                  <path id="Path_10613" data-name="Path 10613" d="M41.893,225.476a8.047,8.047,0,0,0,1.427.406c.923.232,2.26.561,3.9,1.02,3.285.892,7.778,2.285,12.669,4.037s9.246,3.544,12.359,4.925c1.563.679,2.812,1.263,3.678,1.661a7.844,7.844,0,0,0,1.368.576,7.965,7.965,0,0,0-1.277-.763c-.84-.456-2.068-1.093-3.615-1.82-3.083-1.472-7.432-3.316-12.336-5.084a130.4,130.4,0,0,0-12.753-3.9c-1.656-.414-3.011-.688-3.95-.857A7.768,7.768,0,0,0,41.893,225.476Z" transform="translate(-41.893 -225.467)" fill="#e0e0e0"/>
                </g>
              </g>
            </g>
          </g>
          <g id="Group_7138" data-name="Group 7138" transform="translate(47.257 53.749)">
            <g id="Group_7137" data-name="Group 7137">
              <g id="Group_7136" data-name="Group 7136">
                <g id="Group_7135" data-name="Group 7135">
                  <path id="Path_10614" data-name="Path 10614" d="M123.95,291.162a1.87,1.87,0,0,0,.321-.4l.834-1.221c.719-1.063,1.72-2.629,2.932-4.579,2.426-3.9,5.606-9.392,9.035-15.5s6.555-11.624,8.9-15.569l2.786-4.664.751-1.274a1.887,1.887,0,0,0,.232-.464,1.964,1.964,0,0,0-.321.407l-.834,1.22c-.719,1.063-1.72,2.629-2.932,4.579-2.426,3.9-5.607,9.392-9.036,15.5s-6.555,11.622-8.9,15.568c-1.145,1.915-2.086,3.493-2.786,4.664l-.751,1.274A1.918,1.918,0,0,0,123.95,291.162Z" transform="translate(-123.948 -247.485)" fill="#e0e0e0"/>
                </g>
              </g>
            </g>
          </g>
          <g id="Group_7142" data-name="Group 7142" transform="translate(1.261 74.081)">
            <g id="Group_7141" data-name="Group 7141">
              <g id="Group_7140" data-name="Group 7140">
                <g id="Group_7139" data-name="Group 7139">
                  <path id="Path_10615" data-name="Path 10615" d="M39.778,284.694a1.958,1.958,0,0,0,.449.275l1.333.7,4.924,2.509c4.157,2.12,9.866,5.113,16.169,8.429S74.7,302.863,78.9,304.9c2.1,1.018,3.809,1.824,5,2.356l1.376.605a1.885,1.885,0,0,0,.5.178,2.04,2.04,0,0,0-.45-.275l-1.333-.7-4.924-2.509c-4.157-2.119-9.867-5.113-16.172-8.43s-12.045-6.259-16.247-8.293c-2.1-1.018-3.809-1.824-5-2.357l-1.376-.605A1.95,1.95,0,0,0,39.778,284.694Z" transform="translate(-39.778 -284.691)" fill="#e0e0e0"/>
                </g>
              </g>
            </g>
          </g>
        </g>
      </g>
      <g id="Floor" transform="translate(2.749 191.062)">
        <g id="Group_7145" data-name="Group 7145" transform="translate(0 0)">
          <g id="Group_7144" data-name="Group 7144">
            <path id="Path_10616" data-name="Path 10616" d="M273.576,434.891c0,.078-51.732.142-115.532.142-63.822,0-115.543-.064-115.543-.142s51.721-.143,115.543-.143C221.845,434.748,273.576,434.812,273.576,434.891Z" transform="translate(-42.501 -434.748)" fill="#263238"/>
          </g>
        </g>
      </g>
      <g id="Plant" transform="translate(13.619 100.369)">
        <g id="Group_7161" data-name="Group 7161">
          <g id="Group_7146" data-name="Group 7146">
            <path id="Path_10617" data-name="Path 10617" d="M64.217,269.115s3.771-2.545,8.482,6.488a117.9,117.9,0,0,1,6.513,14.251s1.24,1.89,2.536.635,3.05-4.8,5.277-4.184c2.309.637,3.091,3.2,2.688,6.981s-.984,12.1-1.034,12.848.384,1.821,1.4,1.108,6.857-7.34,9.835-4.381.123,13.306-.167,14.443-.064,1.619.478,1.9,2.294-2.137,4.031-3.953,4.071-3.618,5.647-1.767,2.146,9.589-5.1,22.236l-3.744,5.64-6.792-.313c-14.494-1.555-20.423-6.561-21-8.923s2.255-3.192,4.746-3.533,5.472-.343,5.567-.943-.163-1.067-1.254-1.5-11.143-4.2-11.79-8.345,8.145-4.983,9.322-5.389.553-1.392-.073-1.786-7.71-4.814-11.007-6.707-4.912-4.031-4.072-6.274c.81-2.162,4.709-1.5,6.485-1.815s.975-2.425.975-2.425a117.871,117.871,0,0,1-7.712-13.639c-4.547-9.117-.157-10.694-.157-10.694" transform="translate(-62.392 -268.784)" fill="#0f4c81"/>
          </g>
          <g id="Group_7148" data-name="Group 7148" transform="translate(6.058 8.413)">
            <g id="Group_7147" data-name="Group 7147">
              <path id="Path_10618" data-name="Path 10618" d="M73.478,284.179a.994.994,0,0,1,.1.161l.255.482.957,1.866,3.495,6.874L89.9,316.2c4.555,8.833,8.642,16.849,11.552,22.675l3.42,6.912.914,1.887.232.494a.927.927,0,0,1,.07.172.963.963,0,0,1-.095-.16l-.255-.482-.957-1.866-3.494-6.873c-2.951-5.8-7.064-13.805-11.619-22.638s-8.641-16.845-11.549-22.671l-3.42-6.912-.914-1.888-.232-.493A1.009,1.009,0,0,1,73.478,284.179Z" transform="translate(-73.477 -284.179)" fill="#263238"/>
            </g>
          </g>
          <g id="Group_7150" data-name="Group 7150" transform="translate(19.443 22.576)">
            <g id="Group_7149" data-name="Group 7149">
              <path id="Path_10619" data-name="Path 10619" d="M100.9,310.1a13.91,13.91,0,0,1-.374,1.782l-.979,4.278c-.379,1.672-.734,3.185-1.024,4.272-.146.544-.274.981-.371,1.281a1.782,1.782,0,0,1-.18.457,16.765,16.765,0,0,1,.37-1.781L99.3,316.1c.379-1.673.754-3.181,1.055-4.266.151-.542.279-.979.378-1.278A1.768,1.768,0,0,1,100.9,310.1Z" transform="translate(-97.972 -310.097)" fill="#263238"/>
            </g>
          </g>
          <g id="Group_7152" data-name="Group 7152" transform="translate(5.024 30.94)">
            <g id="Group_7151" data-name="Group 7151">
              <path id="Path_10620" data-name="Path 10620" d="M85.389,329.235c-.019.069-3.125-.731-6.936-1.787s-6.886-1.971-6.867-2.04,3.125.73,6.937,1.787S85.409,329.165,85.389,329.235Z" transform="translate(-71.587 -325.403)" fill="#263238"/>
            </g>
          </g>
          <g id="Group_7154" data-name="Group 7154" transform="translate(14.932 49.604)">
            <g id="Group_7153" data-name="Group 7153">
              <path id="Path_10621" data-name="Path 10621" d="M102.381,359.928a1.831,1.831,0,0,1-.5.074c-.32.032-.784.062-1.357.093-1.148.056-2.736.093-4.489.042s-3.338-.173-4.481-.3c-.571-.06-1.032-.12-1.35-.169a1.892,1.892,0,0,1-.491-.1,14.931,14.931,0,0,1,1.856.085c1.144.076,2.725.171,4.472.219s3.33.043,4.477.034A14.88,14.88,0,0,1,102.381,359.928Z" transform="translate(-89.717 -359.558)" fill="#263238"/>
            </g>
          </g>
          <g id="Group_7156" data-name="Group 7156" transform="translate(27.485 39.65)">
            <g id="Group_7155" data-name="Group 7155">
              <path id="Path_10622" data-name="Path 10622" d="M118.436,341.342a11.1,11.1,0,0,1-.761,1.541c-.5.936-1.2,2.219-2,3.629s-1.525,2.68-2.065,3.592a11.17,11.17,0,0,1-.922,1.45,11.11,11.11,0,0,1,.761-1.54c.5-.936,1.2-2.22,2-3.63s1.525-2.679,2.065-3.591A11.144,11.144,0,0,1,118.436,341.342Z" transform="translate(-112.688 -341.341)" fill="#263238"/>
            </g>
          </g>
          <g id="Group_7158" data-name="Group 7158" transform="translate(35.187 52.088)">
            <g id="Group_7157" data-name="Group 7157">
              <path id="Path_10623" data-name="Path 10623" d="M134.275,364.1a2.591,2.591,0,0,1-.25.537l-.767,1.416c-.657,1.19-1.58,2.824-2.614,4.621s-1.984,3.418-2.682,4.584l-.838,1.374a2.577,2.577,0,0,1-.339.486,2.561,2.561,0,0,1,.25-.537l.766-1.415c.657-1.19,1.58-2.825,2.615-4.622s1.983-3.417,2.682-4.583l.839-1.374A2.544,2.544,0,0,1,134.275,364.1Z" transform="translate(-126.784 -364.102)" fill="#263238"/>
            </g>
          </g>
          <g id="Group_7160" data-name="Group 7160" transform="translate(19.228 63.844)">
            <g id="Group_7159" data-name="Group 7159">
              <path id="Path_10624" data-name="Path 10624" d="M113.631,386.516a2.94,2.94,0,0,1-.632.053c-.407.018-1,.03-1.725.035-1.457.008-3.471-.023-5.69-.148s-4.226-.311-5.673-.483c-.724-.084-1.308-.163-1.71-.225a2.962,2.962,0,0,1-.622-.123,2.914,2.914,0,0,1,.634.021l1.718.142c1.449.123,3.453.284,5.668.405s4.224.184,5.678.224l1.722.049A2.925,2.925,0,0,1,113.631,386.516Z" transform="translate(-97.578 -385.616)" fill="#263238"/>
            </g>
          </g>
        </g>
      </g>
      <g id="Character" transform="translate(49.659)">
        <g id="Group_7449" data-name="Group 7449">
          <g id="Group_7260" data-name="Group 7260" transform="translate(53.776 34.514)">
            <g id="Group_7162" data-name="Group 7162">
              <path id="Path_10625" data-name="Path 10625" d="M349.905,211.456l-18.288,17.8-16.852,32.163L295.811,297.79l-23.285-10.915-25.169-12.887,16.1-30.754L273.461,208.8c-7.069,4.69-20.191,11.077-35.9,7.746-17.018-3.608-8.849-67.789-8.849-67.789l18.7-.481,1.863,45.253,21.14-9.335.033.077c1.272-.568,2.385-1.073,2.976-1.4,11.689-6.377,19.362-7.149,31.9-2.673h0l18.094,6.01c4.649,2.193,21.792,10.633,26.485,25.247" transform="translate(-226.752 -148.272)" fill="#0f4c81"/>
            </g>
            <g id="Group_7167" data-name="Group 7167" transform="translate(24.377 30.584)">
              <g id="Group_7164" data-name="Group 7164" transform="translate(21.873)">
                <g id="Group_7163" data-name="Group 7163">
                  <path id="Path_10626" data-name="Path 10626" d="M324.281,204.24c.013.025-.424.24-1.134.746a12.544,12.544,0,0,0-2.619,2.577,18.64,18.64,0,0,0-2.583,4.8,67.137,67.137,0,0,0-1.927,6.442L312.8,230.626,311.8,234.2l-.287.968a1.612,1.612,0,0,1-.119.332,1.663,1.663,0,0,1,.063-.348c.061-.253.139-.579.236-.981l.919-3.6,3.136-11.841a62.966,62.966,0,0,1,1.957-6.462,18.312,18.312,0,0,1,2.668-4.831,11.852,11.852,0,0,1,2.715-2.544,7.96,7.96,0,0,1,.874-.513A1.647,1.647,0,0,1,324.281,204.24Z" transform="translate(-311.387 -204.239)" fill="#263238"/>
                </g>
              </g>
              <g id="Group_7166" data-name="Group 7166" transform="translate(0 9.067)" opacity="0.3">
                <g id="Group_7165" data-name="Group 7165">
                  <path id="Path_10627" data-name="Path 10627" d="M299.312,220.832C294.083,234.987,284.68,242.9,271.361,250a49.038,49.038,0,0,0,21.96-8.048" transform="translate(-271.361 -220.832)"/>
                </g>
              </g>
            </g>
            <g id="Group_7169" data-name="Group 7169" transform="translate(68.982 29.575)" opacity="0.3">
              <g id="Group_7168" data-name="Group 7168">
                <path id="Path_10628" data-name="Path 10628" d="M352.986,202.393l6.649,106.424-6.572,13.519Z" transform="translate(-352.986 -202.393)"/>
              </g>
            </g>
            <g id="Group_7171" data-name="Group 7171" transform="translate(86.204 59.065)">
              <g id="Group_7170" data-name="Group 7170">
                <path id="Path_10629" data-name="Path 10629" d="M387.878,263.673c-.078.028-.746-1.646-1.678-3.661s-1.768-3.613-1.7-3.654a4.566,4.566,0,0,1,.651.992c.364.634.835,1.529,1.3,2.543s.843,1.953,1.089,2.642A4.543,4.543,0,0,1,387.878,263.673Z" transform="translate(-384.5 -256.358)" fill="#fafafa"/>
              </g>
            </g>
            <g id="Group_7173" data-name="Group 7173" transform="translate(97.211 58.895)">
              <g id="Group_7172" data-name="Group 7172">
                <path id="Path_10630" data-name="Path 10630" d="M411.9,256.05a64.182,64.182,0,0,1-7.255,4.523,64.3,64.3,0,0,1,7.255-4.523Z" transform="translate(-404.644 -256.047)" fill="#fafafa"/>
              </g>
            </g>
            <g id="Group_7175" data-name="Group 7175" transform="translate(97.647 47.684)">
              <g id="Group_7174" data-name="Group 7174">
                <path id="Path_10631" data-name="Path 10631" d="M405.8,241.358a29.982,29.982,0,0,1-.3-5.827,29.982,29.982,0,0,1,.3,5.827Z" transform="translate(-405.441 -235.531)" fill="#fafafa"/>
              </g>
            </g>
            <g id="Group_7177" data-name="Group 7177" transform="translate(107.653 49.246)">
              <g id="Group_7176" data-name="Group 7176">
                <path id="Path_10632" data-name="Path 10632" d="M428.966,241.614a33.005,33.005,0,0,1-5.214-3.22,33.106,33.106,0,0,1,5.214,3.22Z" transform="translate(-423.751 -238.39)" fill="#fafafa"/>
              </g>
            </g>
            <g id="Group_7179" data-name="Group 7179" transform="translate(90.144 74.497)">
              <g id="Group_7178" data-name="Group 7178">
                <path id="Path_10633" data-name="Path 10633" d="M391.717,292.045a57.877,57.877,0,0,1,3.214-7.446,57.8,57.8,0,0,1-3.214,7.446Z" transform="translate(-391.711 -284.598)" fill="#fafafa"/>
              </g>
            </g>
            <g id="Group_7181" data-name="Group 7181" transform="translate(81.11 83.814)">
              <g id="Group_7180" data-name="Group 7180">
                <path id="Path_10634" data-name="Path 10634" d="M377.6,306.48a25.709,25.709,0,0,1-2.415-4.831,25.709,25.709,0,0,1,2.415,4.831Z" transform="translate(-375.18 -301.648)" fill="#fafafa"/>
              </g>
            </g>
            <g id="Group_7183" data-name="Group 7183" transform="translate(83.36 97.649)">
              <g id="Group_7182" data-name="Group 7182">
                <path id="Path_10635" data-name="Path 10635" d="M385,326.978a13.193,13.193,0,0,1-5.706.8c0-.083,1.288-.144,2.857-.369S384.98,326.9,385,326.978Z" transform="translate(-379.296 -326.965)" fill="#fafafa"/>
              </g>
            </g>
            <g id="Group_7185" data-name="Group 7185" transform="translate(96.16 82.606)">
              <g id="Group_7184" data-name="Group 7184">
                <path id="Path_10636" data-name="Path 10636" d="M402.728,304.632a27.945,27.945,0,0,1,2.2-5.194,28.044,28.044,0,0,1-2.2,5.194Z" transform="translate(-402.72 -299.437)" fill="#fafafa"/>
              </g>
            </g>
            <g id="Group_7187" data-name="Group 7187" transform="translate(74.893 104.01)">
              <g id="Group_7186" data-name="Group 7186">
                <path id="Path_10637" data-name="Path 10637" d="M367.812,343.235c-.069.046-.872-1.065-1.978-2.336s-2.085-2.23-2.029-2.291a14.849,14.849,0,0,1,4.007,4.627Z" transform="translate(-363.803 -338.605)" fill="#fafafa"/>
              </g>
            </g>
            <g id="Group_7189" data-name="Group 7189" transform="translate(72.663 86.232)">
              <g id="Group_7188" data-name="Group 7188">
                <path id="Path_10638" data-name="Path 10638" d="M362.831,306.073a33.682,33.682,0,0,1-3.1,5.349,33.62,33.62,0,0,1,3.1-5.349Z" transform="translate(-359.722 -306.072)" fill="#fafafa"/>
              </g>
            </g>
            <g id="Group_7191" data-name="Group 7191" transform="translate(71.963 76.942)">
              <g id="Group_7190" data-name="Group 7190">
                <path id="Path_10639" data-name="Path 10639" d="M364.478,290.642a34.186,34.186,0,0,1-6.037-1.558,34.164,34.164,0,0,1,6.037,1.558Z" transform="translate(-358.441 -289.071)" fill="#fafafa"/>
              </g>
            </g>
            <g id="Group_7193" data-name="Group 7193" transform="translate(77.867 62.679)">
              <g id="Group_7192" data-name="Group 7192">
                <path id="Path_10640" data-name="Path 10640" d="M369.25,262.972a63.521,63.521,0,0,1,3.137,4.522,16.939,16.939,0,0,1-3.137-4.522Z" transform="translate(-369.245 -262.971)" fill="#fafafa"/>
              </g>
            </g>
            <g id="Group_7195" data-name="Group 7195" transform="translate(68.866 61.901)">
              <g id="Group_7194" data-name="Group 7194">
                <path id="Path_10641" data-name="Path 10641" d="M356.743,261.551A24.385,24.385,0,0,1,352.775,265a24.385,24.385,0,0,1,3.968-3.451Z" transform="translate(-352.773 -261.548)" fill="#fafafa"/>
              </g>
            </g>
            <g id="Group_7197" data-name="Group 7197" transform="translate(72.282 48.296)">
              <g id="Group_7196" data-name="Group 7196">
                <path id="Path_10642" data-name="Path 10642" d="M363.554,241.97a17.9,17.9,0,0,1-4.527-5.317c.07-.046.969,1.234,2.219,2.7S363.611,241.909,363.554,241.97Z" transform="translate(-359.024 -236.652)" fill="#fafafa"/>
              </g>
            </g>
            <g id="Group_7199" data-name="Group 7199" transform="translate(84.575 51.052)">
              <g id="Group_7198" data-name="Group 7198">
                <path id="Path_10643" data-name="Path 10643" d="M387.731,241.7a37.047,37.047,0,0,1-6.212,1.9,37.085,37.085,0,0,1,6.212-1.9Z" transform="translate(-381.52 -241.694)" fill="#fafafa"/>
              </g>
            </g>
            <g id="Group_7201" data-name="Group 7201" transform="translate(70.409 32.23)">
              <g id="Group_7200" data-name="Group 7200">
                <path id="Path_10644" data-name="Path 10644" d="M356.3,212.773c-.085,0-.047-1.255-.241-2.773s-.53-2.722-.449-2.748a10.127,10.127,0,0,1,.69,5.521Z" transform="translate(-355.596 -207.251)" fill="#fafafa"/>
              </g>
            </g>
            <g id="Group_7203" data-name="Group 7203" transform="translate(50.104 77.372)">
              <g id="Group_7202" data-name="Group 7202">
                <path id="Path_10645" data-name="Path 10645" d="M327.01,289.861a10.456,10.456,0,0,1-1.287.949c-.807.566-1.91,1.361-3.093,2.288s-2.218,1.81-2.961,2.457a10.574,10.574,0,0,1-1.229,1.024,7.673,7.673,0,0,1,1.093-1.172,39.016,39.016,0,0,1,6.078-4.765A7.793,7.793,0,0,1,327.01,289.861Z" transform="translate(-318.439 -289.859)" fill="#fafafa"/>
              </g>
            </g>
            <g id="Group_7205" data-name="Group 7205" transform="translate(53.356 66.939)">
              <g id="Group_7204" data-name="Group 7204">
                <path id="Path_10646" data-name="Path 10646" d="M328.991,276.816c-.071.044-.991-1.388-2.261-3.052s-2.4-2.937-2.338-2.994a4.019,4.019,0,0,1,.823.76,26.414,26.414,0,0,1,3.263,4.29A3.992,3.992,0,0,1,328.991,276.816Z" transform="translate(-324.39 -270.768)" fill="#fafafa"/>
              </g>
            </g>
            <g id="Group_7207" data-name="Group 7207" transform="translate(55.929 55.711)">
              <g id="Group_7206" data-name="Group 7206">
                <path id="Path_10647" data-name="Path 10647" d="M334.458,250.226a32.906,32.906,0,0,1-5.358,2.958,33.014,33.014,0,0,1,5.358-2.958Z" transform="translate(-329.099 -250.22)" fill="#fafafa"/>
              </g>
            </g>
            <g id="Group_7209" data-name="Group 7209" transform="translate(52.872 41.938)">
              <g id="Group_7208" data-name="Group 7208">
                <path id="Path_10648" data-name="Path 10648" d="M328.624,231.254a4.274,4.274,0,0,1-.937-.738,20.6,20.6,0,0,1-3.638-4.436,4.273,4.273,0,0,1-.54-1.063c.074-.044,1.008,1.51,2.425,3.228S328.682,231.19,328.624,231.254Z" transform="translate(-323.505 -225.016)" fill="#fafafa"/>
              </g>
            </g>
            <g id="Group_7211" data-name="Group 7211" transform="translate(63.657 43.359)">
              <g id="Group_7210" data-name="Group 7210">
                <path id="Path_10649" data-name="Path 10649" d="M343.248,232.275a23.623,23.623,0,0,1,2.267-4.656,23.666,23.666,0,0,1-2.267,4.656Z" transform="translate(-343.241 -227.617)" fill="#fafafa"/>
              </g>
            </g>
            <g id="Group_7213" data-name="Group 7213" transform="translate(60.984 31.973)">
              <g id="Group_7212" data-name="Group 7212">
                <path id="Path_10650" data-name="Path 10650" d="M339.515,214.193c-.089,0,.01-1.7-.317-3.747s-.925-3.635-.842-3.666a3.572,3.572,0,0,1,.464,1.014,14.58,14.58,0,0,1,.827,5.292A3.587,3.587,0,0,1,339.515,214.193Z" transform="translate(-338.349 -206.78)" fill="#fafafa"/>
              </g>
            </g>
            <g id="Group_7215" data-name="Group 7215" transform="translate(63.265 72.051)">
              <g id="Group_7214" data-name="Group 7214">
                <path id="Path_10651" data-name="Path 10651" d="M342.808,291.005a10.735,10.735,0,0,1,.021-1.6c.034-.985.062-2.345.026-3.847s-.134-2.859-.217-3.841a10.778,10.778,0,0,1-.1-1.6,7.647,7.647,0,0,1,.3,1.574,36.337,36.337,0,0,1,.193,7.721A7.6,7.6,0,0,1,342.808,291.005Z" transform="translate(-342.523 -280.122)" fill="#fafafa"/>
              </g>
            </g>
            <g id="Group_7217" data-name="Group 7217" transform="translate(57.501 93.174)">
              <g id="Group_7216" data-name="Group 7216">
                <path id="Path_10652" data-name="Path 10652" d="M337.194,322.114a14.268,14.268,0,0,0-5.218-3.328,7.983,7.983,0,0,1,5.218,3.328Z" transform="translate(-331.976 -318.775)" fill="#fafafa"/>
              </g>
            </g>
            <g id="Group_7219" data-name="Group 7219" transform="translate(61.921 104.928)">
              <g id="Group_7218" data-name="Group 7218">
                <path id="Path_10653" data-name="Path 10653" d="M347.7,340.289a65.1,65.1,0,0,1-7.637,3.952,64.88,64.88,0,0,1,7.637-3.952Z" transform="translate(-340.064 -340.284)" fill="#fafafa"/>
              </g>
            </g>
            <g id="Group_7221" data-name="Group 7221" transform="translate(45.01 101.461)">
              <g id="Group_7220" data-name="Group 7220">
                <path id="Path_10654" data-name="Path 10654" d="M314.419,341.144a70.3,70.3,0,0,1-5.3-7.2,70.291,70.291,0,0,1,5.3,7.2Z" transform="translate(-309.118 -333.94)" fill="#fafafa"/>
              </g>
            </g>
            <g id="Group_7223" data-name="Group 7223" transform="translate(44.223 85.475)">
              <g id="Group_7222" data-name="Group 7222">
                <path id="Path_10655" data-name="Path 10655" d="M307.825,312.336a4.136,4.136,0,0,1-.121-1.122c-.032-.695-.038-1.656.01-2.716s.145-2.018.24-2.706a4.161,4.161,0,0,1,.224-1.105c.082.011-.085,1.716-.18,3.825S307.907,312.333,307.825,312.336Z" transform="translate(-307.678 -304.687)" fill="#fafafa"/>
              </g>
            </g>
            <g id="Group_7225" data-name="Group 7225" transform="translate(31.757 114.491)">
              <g id="Group_7224" data-name="Group 7224">
                <path id="Path_10656" data-name="Path 10656" d="M291.07,362.945a57.268,57.268,0,0,1-6.2-5.157,57.27,57.27,0,0,1,6.2,5.157Z" transform="translate(-284.866 -357.785)" fill="#fafafa"/>
              </g>
            </g>
            <g id="Group_7227" data-name="Group 7227" transform="translate(41.534 110.265)">
              <g id="Group_7226" data-name="Group 7226">
                <path id="Path_10657" data-name="Path 10657" d="M303.031,358.624a64.728,64.728,0,0,1-.2-8.572,64.742,64.742,0,0,1,.2,8.572Z" transform="translate(-302.757 -350.052)" fill="#fafafa"/>
              </g>
            </g>
            <g id="Group_7229" data-name="Group 7229" transform="translate(36.89 133.239)">
              <g id="Group_7228" data-name="Group 7228">
                <path id="Path_10658" data-name="Path 10658" d="M306.775,394.148c-.019.043-.682-.228-1.78-.578a25.633,25.633,0,0,0-8.866-1.212c-1.152.043-1.863.126-1.869.08a1.751,1.751,0,0,1,.492-.116c.319-.059.786-.117,1.366-.164a21.425,21.425,0,0,1,8.943,1.221c.545.2.979.383,1.271.525A1.74,1.74,0,0,1,306.775,394.148Z" transform="translate(-294.259 -392.094)" fill="#fafafa"/>
              </g>
            </g>
            <g id="Group_7231" data-name="Group 7231" transform="translate(55.663 138.294)">
              <g id="Group_7230" data-name="Group 7230">
                <path id="Path_10659" data-name="Path 10659" d="M328.613,401.344a6.624,6.624,0,0,1,1.231.852,30.744,30.744,0,0,1,5.1,5.1,6.609,6.609,0,0,1,.851,1.23,9.445,9.445,0,0,1-1.007-1.1c-.6-.692-1.455-1.635-2.445-2.626s-1.933-1.84-2.626-2.445A9.442,9.442,0,0,1,328.613,401.344Z" transform="translate(-328.612 -401.343)" fill="#fafafa"/>
              </g>
            </g>
            <g id="Group_7233" data-name="Group 7233" transform="translate(55.814 103.347)">
              <g id="Group_7232" data-name="Group 7232">
                <path id="Path_10660" data-name="Path 10660" d="M331.463,343.871a42.7,42.7,0,0,1-2.567-6.478,42.771,42.771,0,0,1,2.567,6.478Z" transform="translate(-328.888 -337.392)" fill="#fafafa"/>
              </g>
            </g>
            <g id="Group_7235" data-name="Group 7235" transform="translate(29.488 54.44)">
              <g id="Group_7234" data-name="Group 7234">
                <path id="Path_10661" data-name="Path 10661" d="M287.663,247.9a4.39,4.39,0,0,1-.836.911,18.527,18.527,0,0,1-4.95,3.3,4.413,4.413,0,0,1-1.163.421c-.035-.081,1.7-.822,3.614-2.108S287.6,247.833,287.663,247.9Z" transform="translate(-280.713 -247.894)" fill="#fafafa"/>
              </g>
            </g>
            <g id="Group_7237" data-name="Group 7237" transform="translate(37.767 43.787)">
              <g id="Group_7236" data-name="Group 7236">
                <path id="Path_10662" data-name="Path 10662" d="M295.93,233.265a20.921,20.921,0,0,1,.231-4.865,20.916,20.916,0,0,1-.231,4.865Z" transform="translate(-295.863 -228.4)" fill="#fafafa"/>
              </g>
            </g>
            <g id="Group_7239" data-name="Group 7239" transform="translate(21.381 50.961)">
              <g id="Group_7238" data-name="Group 7238">
                <path id="Path_10663" data-name="Path 10663" d="M271.437,244.083a32.978,32.978,0,0,1-5.56-2.548,32.928,32.928,0,0,1,5.56,2.548Z" transform="translate(-265.877 -241.528)" fill="#fafafa"/>
              </g>
            </g>
            <g id="Group_7241" data-name="Group 7241" transform="translate(46.351 40.08)">
              <g id="Group_7240" data-name="Group 7240">
                <path id="Path_10664" data-name="Path 10664" d="M311.611,227.639a32.022,32.022,0,0,1,.461-6.023,32.135,32.135,0,0,1-.461,6.023Z" transform="translate(-311.571 -221.616)" fill="#fafafa"/>
              </g>
            </g>
            <g id="Group_7243" data-name="Group 7243" transform="translate(15.357 61.62)">
              <g id="Group_7242" data-name="Group 7242">
                <path id="Path_10665" data-name="Path 10665" d="M260.647,264.511a13.3,13.3,0,0,1-5.791-3.474c.056-.065,1.218.913,2.818,1.867S260.678,264.431,260.647,264.511Z" transform="translate(-254.854 -261.033)" fill="#fafafa"/>
              </g>
            </g>
            <g id="Group_7245" data-name="Group 7245" transform="translate(8.176 53.977)">
              <g id="Group_7244" data-name="Group 7244">
                <path id="Path_10666" data-name="Path 10666" d="M246.579,247.05a45.77,45.77,0,0,1-4.864,5.327,45.781,45.781,0,0,1,4.864-5.327Z" transform="translate(-241.713 -247.048)" fill="#fafafa"/>
              </g>
            </g>
            <g id="Group_7247" data-name="Group 7247" transform="translate(7.712 40.541)">
              <g id="Group_7246" data-name="Group 7246">
                <path id="Path_10667" data-name="Path 10667" d="M245.5,225.937a11.061,11.061,0,0,1-4.633-3.474c.062-.058.978.865,2.256,1.818S245.538,225.862,245.5,225.937Z" transform="translate(-240.864 -222.46)" fill="#fafafa"/>
              </g>
            </g>
            <g id="Group_7249" data-name="Group 7249" transform="translate(4.698 46.1)">
              <g id="Group_7248" data-name="Group 7248">
                <path id="Path_10668" data-name="Path 10668" d="M237.9,232.636a13.7,13.7,0,0,1-2.548,3.012,13.743,13.743,0,0,1,2.548-3.012Z" transform="translate(-235.35 -232.633)" fill="#fafafa"/>
              </g>
            </g>
            <g id="Group_7251" data-name="Group 7251" transform="translate(13.693 27.61)">
              <g id="Group_7250" data-name="Group 7250">
                <path id="Path_10669" data-name="Path 10669" d="M256.3,198.8a44.334,44.334,0,0,1-4.491,5.486A44.337,44.337,0,0,1,256.3,198.8Z" transform="translate(-251.809 -198.796)" fill="#fafafa"/>
              </g>
            </g>
            <g id="Group_7253" data-name="Group 7253" transform="translate(4.369 24.646)">
              <g id="Group_7252" data-name="Group 7252">
                <path id="Path_10670" data-name="Path 10670" d="M239.184,198.442a39.955,39.955,0,0,1-4.435-5.067,39.84,39.84,0,0,1,4.435,5.067Z" transform="translate(-234.747 -193.373)" fill="#fafafa"/>
              </g>
            </g>
            <g id="Group_7255" data-name="Group 7255" transform="translate(10.481 12.519)">
              <g id="Group_7254" data-name="Group 7254">
                <path id="Path_10671" data-name="Path 10671" d="M248.946,176.511a33.025,33.025,0,0,1-3.01-5.329,32.977,32.977,0,0,1,3.01,5.329Z" transform="translate(-245.931 -171.181)" fill="#fafafa"/>
              </g>
            </g>
            <g id="Group_7257" data-name="Group 7257" transform="translate(13.26 4.879)">
              <g id="Group_7256" data-name="Group 7256">
                <path id="Path_10672" data-name="Path 10672" d="M251.022,162.513c-.069-.054.749-1.091,1.4-2.561s.89-2.766.977-2.751a8.457,8.457,0,0,1-2.375,5.312Z" transform="translate(-251.018 -157.201)" fill="#fafafa"/>
              </g>
            </g>
            <g id="Group_7259" data-name="Group 7259" transform="translate(4.201 3.696)">
              <g id="Group_7258" data-name="Group 7258">
                <path id="Path_10673" data-name="Path 10673" d="M234.476,161.075a6.353,6.353,0,0,1,.673-3.344,8.018,8.018,0,0,1,1.336-2.032,2.618,2.618,0,0,1,.758-.661,11.348,11.348,0,0,0-2.767,6.038Z" transform="translate(-234.438 -155.036)" fill="#fafafa"/>
              </g>
            </g>
          </g>
          <g id="Group_7338" data-name="Group 7338" transform="translate(126.756 13.682)">
            <g id="Group_7261" data-name="Group 7261" transform="translate(9.827)">
              <path id="Path_10674" data-name="Path 10674" d="M378.507,127.717a34.627,34.627,0,0,1-.082-6.821,11.614,11.614,0,0,1,2.515-6.246,7.048,7.048,0,0,1,6.045-2.544c1.4.181,2.718.87,4.124.829,1.627-.048,3.042-1.052,4.523-1.728a11.854,11.854,0,0,1,7.454-.777,7.062,7.062,0,0,1,3.525,1.779,3.962,3.962,0,0,1,1.143,3.654,18.809,18.809,0,0,1,4.894.429,6.342,6.342,0,0,1,3.93,2.757,3.87,3.87,0,0,1-.409,4.562,3.143,3.143,0,0,1,3.474,2.369A4.049,4.049,0,0,1,418,130.047a7.572,7.572,0,0,1-5.107,1.027,10.983,10.983,0,0,1-4.5-1.653" transform="translate(-378.284 -110.15)" fill="#263238"/>
            </g>
            <g id="Group_7334" data-name="Group 7334" transform="translate(0 9.945)">
              <g id="Group_7333" data-name="Group 7333">
                <g id="Group_7274" data-name="Group 7274">
                  <g id="Group_7273" data-name="Group 7273">
                    <g id="Group_7272" data-name="Group 7272">
                      <g id="Group_7266" data-name="Group 7266">
                        <g id="Group_7265" data-name="Group 7265">
                          <g id="Group_7264" data-name="Group 7264">
                            <g id="Group_7263" data-name="Group 7263">
                              <g id="Group_7262" data-name="Group 7262">
                                <path id="Path_10675" data-name="Path 10675" d="M369.163,187.448h0a11.791,11.791,0,0,0,14.336-8.405c.925-3.5,1.676-6.433,1.676-6.433s9.134,1.565,12.154-7.079,8.206-29.078,8.206-29.078h0a31.819,31.819,0,0,0-31.589-6.364l-1.619.558-11.6,42.256A11.794,11.794,0,0,0,369.163,187.448Z" transform="translate(-360.301 -128.35)" fill="#b78876"/>
                              </g>
                            </g>
                          </g>
                        </g>
                      </g>
                      <g id="Group_7271" data-name="Group 7271" transform="translate(14.694 37.126)">
                        <g id="Group_7270" data-name="Group 7270">
                          <g id="Group_7269" data-name="Group 7269">
                            <g id="Group_7268" data-name="Group 7268">
                              <g id="Group_7267" data-name="Group 7267">
                                <path id="Path_10676" data-name="Path 10676" d="M397.426,203.3a21.29,21.29,0,0,1-10.236-7.014s.578,7.144,9.5,9.27Z" transform="translate(-387.19 -196.289)" fill="#aa6550"/>
                              </g>
                            </g>
                          </g>
                        </g>
                      </g>
                    </g>
                  </g>
                </g>
                <g id="Group_7286" data-name="Group 7286" transform="translate(2.584 10.442)">
                  <g id="Group_7279" data-name="Group 7279">
                    <g id="Group_7278" data-name="Group 7278">
                      <g id="Group_7277" data-name="Group 7277">
                        <g id="Group_7276" data-name="Group 7276">
                          <g id="Group_7275" data-name="Group 7275">
                            <path id="Path_10677" data-name="Path 10677" d="M372.524,148.663c-.126-.114-5.371-3.766-7.173,2.232s4.591,6.57,4.653,6.4S372.524,148.663,372.524,148.663Z" transform="translate(-365.03 -147.459)" fill="#b78876"/>
                          </g>
                        </g>
                      </g>
                    </g>
                  </g>
                  <g id="Group_7285" data-name="Group 7285" transform="translate(1.657 1.885)">
                    <g id="Group_7284" data-name="Group 7284">
                      <g id="Group_7283" data-name="Group 7283">
                        <g id="Group_7282" data-name="Group 7282">
                          <g id="Group_7281" data-name="Group 7281">
                            <g id="Group_7280" data-name="Group 7280">
                              <path id="Path_10678" data-name="Path 10678" d="M370.229,156.038c-.021-.027-.127.042-.327.069a1.09,1.09,0,0,1-.786-.219,2.7,2.7,0,0,1-.5-2.679,3.606,3.606,0,0,1,.742-1.408,1.262,1.262,0,0,1,1.027-.566.555.555,0,0,1,.531.472c.03.192-.044.3-.015.32.013.02.159-.061.185-.323a.7.7,0,0,0-.123-.447.824.824,0,0,0-.532-.326,1.532,1.532,0,0,0-1.371.6,3.694,3.694,0,0,0-.865,1.562,2.832,2.832,0,0,0,.745,3.048,1.17,1.17,0,0,0,1,.128C370.175,156.18,370.246,156.055,370.229,156.038Z" transform="translate(-368.063 -150.909)" fill="#aa6550"/>
                            </g>
                          </g>
                        </g>
                      </g>
                    </g>
                  </g>
                </g>
                <g id="Group_7332" data-name="Group 7332" transform="translate(21.417 13.304)">
                  <g id="Group_7331" data-name="Group 7331">
                    <g id="Group_7325" data-name="Group 7325">
                      <g id="Group_7324" data-name="Group 7324">
                        <g id="Group_7323" data-name="Group 7323">
                          <g id="Group_7298" data-name="Group 7298" transform="translate(13.194 4.152)">
                            <g id="Group_7291" data-name="Group 7291" transform="translate(0.694 1.546)">
                              <g id="Group_7290" data-name="Group 7290">
                                <g id="Group_7289" data-name="Group 7289">
                                  <g id="Group_7288" data-name="Group 7288">
                                    <g id="Group_7287" data-name="Group 7287">
                                      <path id="Path_10679" data-name="Path 10679" d="M427.475,164.719a1.307,1.307,0,0,1-1.615.849,1.251,1.251,0,0,1-.9-1.546,1.308,1.308,0,0,1,1.614-.85A1.251,1.251,0,0,1,427.475,164.719Z" transform="translate(-424.908 -163.122)" fill="#263238"/>
                                    </g>
                                  </g>
                                </g>
                              </g>
                            </g>
                            <g id="Group_7297" data-name="Group 7297">
                              <g id="Group_7296" data-name="Group 7296">
                                <g id="Group_7295" data-name="Group 7295">
                                  <g id="Group_7294" data-name="Group 7294">
                                    <g id="Group_7293" data-name="Group 7293">
                                      <g id="Group_7292" data-name="Group 7292">
                                        <path id="Path_10680" data-name="Path 10680" d="M428.52,162.6c-.208.11-.914-.9-2.249-1.344-1.327-.463-2.536-.105-2.626-.317-.046-.1.208-.335.738-.5a3.585,3.585,0,0,1,2.169.054,3.444,3.444,0,0,1,1.722,1.272C428.579,162.213,428.62,162.552,428.52,162.6Z" transform="translate(-423.639 -160.293)" fill="#263238"/>
                                      </g>
                                    </g>
                                  </g>
                                </g>
                              </g>
                            </g>
                          </g>
                          <g id="Group_7310" data-name="Group 7310">
                            <g id="Group_7303" data-name="Group 7303" transform="translate(0.777 1.297)">
                              <g id="Group_7302" data-name="Group 7302">
                                <g id="Group_7301" data-name="Group 7301">
                                  <g id="Group_7300" data-name="Group 7300">
                                    <g id="Group_7299" data-name="Group 7299">
                                      <path id="Path_10681" data-name="Path 10681" d="M403.484,156.666a1.308,1.308,0,0,1-1.615.849,1.251,1.251,0,0,1-.9-1.546,1.308,1.308,0,0,1,1.614-.85A1.251,1.251,0,0,1,403.484,156.666Z" transform="translate(-400.916 -155.069)" fill="#263238"/>
                                    </g>
                                  </g>
                                </g>
                              </g>
                            </g>
                            <g id="Group_7309" data-name="Group 7309">
                              <g id="Group_7308" data-name="Group 7308">
                                <g id="Group_7307" data-name="Group 7307">
                                  <g id="Group_7306" data-name="Group 7306">
                                    <g id="Group_7305" data-name="Group 7305">
                                      <g id="Group_7304" data-name="Group 7304">
                                        <path id="Path_10682" data-name="Path 10682" d="M404.375,155c-.208.11-.915-.9-2.249-1.344-1.327-.463-2.536-.105-2.626-.317-.046-.1.207-.336.739-.5a3.587,3.587,0,0,1,2.169.054,3.448,3.448,0,0,1,1.722,1.272C404.433,154.615,404.474,154.954,404.375,155Z" transform="translate(-399.494 -152.695)" fill="#263238"/>
                                      </g>
                                    </g>
                                  </g>
                                </g>
                              </g>
                            </g>
                          </g>
                          <g id="Group_7316" data-name="Group 7316" transform="translate(6.401 2.505)">
                            <g id="Group_7315" data-name="Group 7315">
                              <g id="Group_7314" data-name="Group 7314">
                                <g id="Group_7313" data-name="Group 7313">
                                  <g id="Group_7312" data-name="Group 7312">
                                    <g id="Group_7311" data-name="Group 7311">
                                      <path id="Path_10683" data-name="Path 10683" d="M411.208,168.6a9.286,9.286,0,0,1,2.3.336c.352.079.7.12.833-.093a1.827,1.827,0,0,0,.111-1.086q-.065-1.4-.137-2.931c-.159-4.162-.152-7.538.015-7.543s.433,3.364.592,7.526q.047,1.535.089,2.933a2.081,2.081,0,0,1-.272,1.4.9.9,0,0,1-.727.31,2.439,2.439,0,0,1-.605-.114A9.144,9.144,0,0,1,411.208,168.6Z" transform="translate(-411.207 -157.279)" fill="#263238"/>
                                    </g>
                                  </g>
                                </g>
                              </g>
                            </g>
                          </g>
                          <g id="Group_7322" data-name="Group 7322" transform="translate(1.566 13.423)">
                            <g id="Group_7321" data-name="Group 7321">
                              <g id="Group_7320" data-name="Group 7320">
                                <g id="Group_7319" data-name="Group 7319">
                                  <g id="Group_7318" data-name="Group 7318">
                                    <g id="Group_7317" data-name="Group 7317">
                                      <path id="Path_10684" data-name="Path 10684" d="M402.96,177.263c.221.06-.262,1.509.632,2.953s2.489,1.8,2.432,2.008c-.01.1-.438.166-1.1-.035a3.8,3.8,0,0,1-2.057-1.595,3.307,3.307,0,0,1-.437-2.444C402.581,177.526,402.863,177.221,402.96,177.263Z" transform="translate(-402.359 -177.259)" fill="#263238"/>
                                    </g>
                                  </g>
                                </g>
                              </g>
                            </g>
                          </g>
                        </g>
                      </g>
                    </g>
                    <g id="Group_7330" data-name="Group 7330" transform="translate(13.901 1.599)">
                      <g id="Group_7329" data-name="Group 7329">
                        <g id="Group_7328" data-name="Group 7328">
                          <g id="Group_7327" data-name="Group 7327">
                            <g id="Group_7326" data-name="Group 7326">
                              <path id="Path_10685" data-name="Path 10685" d="M429.4,157.968c-.337.224-1.15-.4-2.25-.784-1.086-.425-2.109-.481-2.218-.871-.043-.186.206-.44.711-.589a3.449,3.449,0,0,1,3.6,1.333C429.533,157.5,429.556,157.855,429.4,157.968Z" transform="translate(-424.931 -155.62)" fill="#263238"/>
                            </g>
                          </g>
                        </g>
                      </g>
                    </g>
                  </g>
                </g>
              </g>
            </g>
            <g id="Group_7336" data-name="Group 7336" transform="translate(21.053 17.299)">
              <g id="Group_7335" data-name="Group 7335">
                <path id="Path_10686" data-name="Path 10686" d="M403.956,144.659c-.2.113-.524-.068-.938-.3a8.78,8.78,0,0,0-3.269-1.218c-.468-.093-.827-.165-.908-.384-.078-.2.179-.54.772-.766a3.694,3.694,0,0,1,4.261,1.587C404.174,144.134,404.146,144.557,403.956,144.659Z" transform="translate(-398.827 -141.807)" fill="#263238"/>
              </g>
            </g>
            <g id="Group_7337" data-name="Group 7337" transform="translate(8.627 7.98)">
              <path id="Path_10687" data-name="Path 10687" d="M412.231,137.632a21.5,21.5,0,0,1-12.445-4.893c-3.924-3.213-8.838-5.463-10.177-4.831s-2.614,5.137-7.3,5.473c0,0-1.673,8.768-5.072,7.671s1.828-14.08,1.828-14.08l9.427-2.219,9.658.352,8.676,1.969,7.5,4.31Z" transform="translate(-376.088 -124.753)" fill="#263238"/>
            </g>
          </g>
          <g id="Group_7407" data-name="Group 7407">
            <g id="Group_7342" data-name="Group 7342">
              <g id="Group_7339" data-name="Group 7339" transform="translate(0.143 0.142)">
                <rect id="Rectangle_4731" data-name="Rectangle 4731" width="122.696" height="191.063" fill="#fafafa"/>
              </g>
              <g id="Group_7341" data-name="Group 7341">
                <g id="Group_7340" data-name="Group 7340">
                  <path id="Path_10688" data-name="Path 10688" d="M251.183,276.318c0-1.177-.054-78.77-.131-191.063l.131.131L128.5,85.4h-.015l.142-.142c-.011,72.282-.021,138.846-.03,191.062l-.113-.112,122.7.113-122.7.113h-.113v-.113c-.008-52.216-.019-118.781-.03-191.062v-.142h.157l122.681.011h.131v.131C251.237,197.548,251.184,275.142,251.183,276.318Z" transform="translate(-128.344 -85.113)" fill="#082742"/>
                </g>
              </g>
            </g>
            <g id="Group_7368" data-name="Group 7368" transform="translate(87.687 17.029)">
              <g id="Group_7355" data-name="Group 7355" transform="translate(0)">
                <g id="Group_7345" data-name="Group 7345" transform="translate(0)">
                  <g id="Group_7344" data-name="Group 7344">
                    <g id="Group_7343" data-name="Group 7343">
                      <path id="Path_10689" data-name="Path 10689" d="M158.42,141.934h15.7a1.964,1.964,0,0,0,1.964-1.965V118.241a1.964,1.964,0,0,0-1.964-1.965h-9.956l-7.707,7.944v15.75A1.965,1.965,0,0,0,158.42,141.934Z" transform="translate(-156.455 -116.276)" fill="#0f4c81"/>
                    </g>
                  </g>
                </g>
                <g id="Group_7348" data-name="Group 7348">
                  <g id="Group_7347" data-name="Group 7347">
                    <g id="Group_7346" data-name="Group 7346">
                      <path id="Path_10690" data-name="Path 10690" d="M185.976,116.276v6.116a1.827,1.827,0,0,1-1.827,1.827h-5.88Z" transform="translate(-178.269 -116.276)" fill="#e8505b"/>
                    </g>
                  </g>
                </g>
                <g id="Group_7351" data-name="Group 7351" transform="translate(0 6.653)" opacity="0.2">
                  <g id="Group_7350" data-name="Group 7350">
                    <g id="Group_7349" data-name="Group 7349">
                      <path id="Path_10691" data-name="Path 10691" d="M186.042,128.45a2.03,2.03,0,0,1-1.611,1.971,1.8,1.8,0,0,1-.193.044c-.768.137-5.823,1.037-5.823.92v-1.643h5.88S185.764,129.691,186.042,128.45Z" transform="translate(-178.415 -128.45)"/>
                    </g>
                  </g>
                </g>
                <g id="Group_7354" data-name="Group 7354" opacity="0.3">
                  <g id="Group_7353" data-name="Group 7353">
                    <g id="Group_7352" data-name="Group 7352">
                      <path id="Path_10692" data-name="Path 10692" d="M185.976,116.276v6.116a1.827,1.827,0,0,1-1.827,1.827h-5.88Z" transform="translate(-178.269 -116.276)" fill="#fff"/>
                    </g>
                  </g>
                </g>
              </g>
              <g id="Group_7357" data-name="Group 7357" transform="translate(9.024 5.724)">
                <g id="Group_7356" data-name="Group 7356">
                  <path id="Path_10693" data-name="Path 10693" d="M162.569,126.893a23.292,23.292,0,0,0,3.631.142,23.3,23.3,0,0,0,3.632-.142,23.3,23.3,0,0,0-3.632-.142A23.293,23.293,0,0,0,162.569,126.893Z" transform="translate(-162.569 -126.751)" fill="#fafafa"/>
                </g>
              </g>
              <g id="Group_7359" data-name="Group 7359" transform="translate(4.333 9.182)">
                <g id="Group_7358" data-name="Group 7358">
                  <path id="Path_10694" data-name="Path 10694" d="M162.569,133.22c0,.079,2.676.143,5.977.143s5.977-.064,5.977-.143-2.675-.142-5.977-.142S162.569,133.142,162.569,133.22Z" transform="translate(-162.569 -133.078)" fill="#fafafa"/>
                </g>
              </g>
              <g id="Group_7361" data-name="Group 7361" transform="translate(3.256 12.069)">
                <g id="Group_7360" data-name="Group 7360">
                  <path id="Path_10695" data-name="Path 10695" d="M162.569,138.5c0,.079,2.917.143,6.515.143s6.515-.064,6.515-.143-2.916-.142-6.515-.142S162.569,138.425,162.569,138.5Z" transform="translate(-162.569 -138.362)" fill="#fafafa"/>
                </g>
              </g>
              <g id="Group_7363" data-name="Group 7363" transform="translate(3.256 14.793)">
                <g id="Group_7362" data-name="Group 7362">
                  <path id="Path_10696" data-name="Path 10696" d="M162.569,143.489c0,.079,2.917.143,6.515.143s6.515-.064,6.515-.143-2.916-.142-6.515-.142S162.569,143.41,162.569,143.489Z" transform="translate(-162.569 -143.347)" fill="#fafafa"/>
                </g>
              </g>
              <g id="Group_7365" data-name="Group 7365" transform="translate(3.256 17.517)">
                <g id="Group_7364" data-name="Group 7364">
                  <path id="Path_10697" data-name="Path 10697" d="M162.569,148.474c0,.079,2.917.143,6.515.143s6.515-.064,6.515-.143-2.916-.142-6.515-.142S162.569,148.4,162.569,148.474Z" transform="translate(-162.569 -148.332)" fill="#fafafa"/>
                </g>
              </g>
              <g id="Group_7367" data-name="Group 7367" transform="translate(3.256 20.241)">
                <g id="Group_7366" data-name="Group 7366">
                  <path id="Path_10698" data-name="Path 10698" d="M162.569,153.459c0,.079,2.917.143,6.515.143s6.515-.064,6.515-.143-2.916-.142-6.515-.142S162.569,153.38,162.569,153.459Z" transform="translate(-162.569 -153.317)" fill="#fafafa"/>
                </g>
              </g>
            </g>
            <g id="Group_7370" data-name="Group 7370" transform="translate(38.975 37.153)">
              <path id="Path_10713" data-name="Path 10713" d="M205.5,153.524l-1.286,3.847h-.577L202.59,154.3l-1.05,3.072h-.588l-1.286-3.847h.566l1.038,3.127,1.083-3.127h.505l1.061,3.143,1.061-3.143Z" transform="translate(-199.666 -153.293)" fill="rgba(15,76,129,0.1)"/>
              <path id="Path_10714" data-name="Path 10714" d="M213.429,156.843h-2.363a.986.986,0,0,0,1.055.851,1.088,1.088,0,0,0,.841-.351l.291.34a1.587,1.587,0,0,1-2.714-1.016A1.427,1.427,0,0,1,212,155.183a1.4,1.4,0,0,1,1.439,1.5C213.44,156.727,213.435,156.793,213.429,156.843Zm-2.363-.379h1.868a.94.94,0,0,0-1.868,0Z" transform="translate(-204.597 -154.046)" fill="rgba(15,76,129,0.1)"/>
              <path id="Path_10715" data-name="Path 10715" d="M217.188,153.1h.527v4.077h-.527Z" transform="translate(-207.613 -153.102)" fill="rgba(15,76,129,0.1)"/>
              <path id="Path_10716" data-name="Path 10716" d="M219.5,156.667a1.455,1.455,0,0,1,1.538-1.484,1.3,1.3,0,0,1,1.187.621l-.4.258a.906.906,0,0,0-.791-.417,1.025,1.025,0,0,0,0,2.05.908.908,0,0,0,.791-.418l.4.252a1.3,1.3,0,0,1-1.187.627A1.459,1.459,0,0,1,219.5,156.667Z" transform="translate(-208.662 -154.046)" fill="rgba(15,76,129,0.1)"/>
              <path id="Path_10717" data-name="Path 10717" d="M225.164,156.667a1.514,1.514,0,1,1,1.516,1.489A1.449,1.449,0,0,1,225.164,156.667Zm2.495,0a.982.982,0,1,0-.978,1.027A.956.956,0,0,0,227.659,156.667Z" transform="translate(-211.23 -154.046)" fill="rgba(15,76,129,0.1)"/>
              <path id="Path_10718" data-name="Path 10718" d="M236.88,156.447v1.676h-.527v-1.615c0-.572-.275-.852-.753-.852a.846.846,0,0,0-.874.967v1.5H234.2v-1.615c0-.572-.275-.852-.753-.852a.846.846,0,0,0-.874.967v1.5h-.527v-2.912h.505v.434a1.181,1.181,0,0,1,1.006-.462,1.078,1.078,0,0,1,1.011.539,1.313,1.313,0,0,1,1.121-.539A1.117,1.117,0,0,1,236.88,156.447Z" transform="translate(-214.351 -154.046)" fill="rgba(15,76,129,0.1)"/>
              <path id="Path_10719" data-name="Path 10719" d="M245.1,156.843H242.74a.986.986,0,0,0,1.055.851,1.088,1.088,0,0,0,.841-.351l.291.34a1.588,1.588,0,0,1-2.715-1.016,1.427,1.427,0,0,1,1.462-1.484,1.4,1.4,0,0,1,1.44,1.5C245.114,156.727,245.108,156.793,245.1,156.843Zm-2.363-.379h1.868a.94.94,0,0,0-1.868,0Z" transform="translate(-218.962 -154.046)" fill="rgba(15,76,129,0.1)"/>
              <path id="Path_10720" data-name="Path 10720" d="M248.64,157.052A.349.349,0,0,1,249,156.7a.344.344,0,0,1,.352.351.348.348,0,0,1-.352.352A.353.353,0,0,1,248.64,157.052Zm.049-3.528h.621l-.1,2.632h-.418Z" transform="translate(-221.878 -153.293)" fill="rgba(15,76,129,0.1)"/>
            </g>
            <g id="Group_7371" data-name="Group 7371" transform="translate(113.594 11.903)">
              <path id="Path_41030" data-name="Path 41030" d="M1.049,0h0A1.049,1.049,0,0,1,2.1,1.049V159.374a1.049,1.049,0,1,1-2.1,0V1.049A1.049,1.049,0,0,1,1.049,0Z" fill="rgba(15,76,129,0.1)"/>
            </g>
            <g id="Group_7372" data-name="Group 7372" transform="translate(113.594 11.903)">
              <path id="Rectangle_4733" data-name="Rectangle 4733" d="M1.049,0h0A1.049,1.049,0,0,1,2.1,1.049V81.656a1.049,1.049,0,0,1-1.049,1.049h0A1.049,1.049,0,0,1,0,81.656V1.049A1.049,1.049,0,0,1,1.049,0Z" fill="#0f4c81"/>
            </g>
            <g id="Group_7373" data-name="Group 7373" transform="translate(17.935 59.787)">
              <path id="Path_10721" data-name="Path 10721" d="M162.576,194.521v3.847h-.544V195h-.868v-.478Z" transform="translate(-161.164 -194.521)" fill="#082742"/>
              <path id="Path_10722" data-name="Path 10722" d="M165.268,200.617a.367.367,0,0,1,.374-.374.361.361,0,0,1,.362.374.366.366,0,0,1-.362.379A.372.372,0,0,1,165.268,200.617Z" transform="translate(-163.025 -197.116)" fill="#082742"/>
              <path id="Path_10723" data-name="Path 10723" d="M171.153,195h-1.319v-.478h3.181V195H171.7v3.368h-.544Z" transform="translate(-165.096 -194.521)" fill="#082742"/>
              <path id="Path_10724" data-name="Path 10724" d="M178.458,197.841h-2.363a.986.986,0,0,0,1.055.851,1.088,1.088,0,0,0,.841-.351l.291.34a1.588,1.588,0,0,1-2.715-1.016,1.426,1.426,0,0,1,1.462-1.484,1.4,1.4,0,0,1,1.44,1.5C178.469,197.725,178.463,197.791,178.458,197.841Zm-2.363-.379h1.868a.94.94,0,0,0-1.868,0Z" transform="translate(-167.696 -195.274)" fill="#082742"/>
              <path id="Path_10725" data-name="Path 10725" d="M183.782,196.181v.511a.943.943,0,0,0-.121-.005.869.869,0,0,0-.918.984v1.45h-.527v-2.912h.505v.489A1.111,1.111,0,0,1,183.782,196.181Z" transform="translate(-170.712 -195.274)" fill="#082742"/>
              <path id="Path_10726" data-name="Path 10726" d="M191.1,197.445v1.675h-.527v-1.615c0-.572-.275-.852-.753-.852a.846.846,0,0,0-.874.967v1.5h-.527v-1.615c0-.572-.275-.852-.753-.852a.846.846,0,0,0-.874.967v1.5h-.527v-2.912h.505v.434a1.18,1.18,0,0,1,1.005-.461,1.078,1.078,0,0,1,1.012.538,1.312,1.312,0,0,1,1.121-.538A1.117,1.117,0,0,1,191.1,197.445Z" transform="translate(-172.55 -195.274)" fill="#082742"/>
            </g>
            <g id="Group_7374" data-name="Group 7374" transform="translate(17.968 119.164)">
              <path id="Path_10727" data-name="Path 10727" d="M164.115,307.083v.478h-2.764v-.373l1.566-1.512c.407-.4.484-.637.484-.879,0-.4-.28-.638-.819-.638a1.208,1.208,0,0,0-.984.417l-.374-.324a1.774,1.774,0,0,1,1.407-.583c.8,0,1.319.412,1.319,1.072a1.558,1.558,0,0,1-.632,1.209l-1.177,1.132Z" transform="translate(-161.224 -303.402)" fill="#082742"/>
              <path id="Path_10728" data-name="Path 10728" d="M167.42,309.847a.367.367,0,0,1,.374-.374.362.362,0,0,1,.363.374.367.367,0,0,1-.363.379A.372.372,0,0,1,167.42,309.847Z" transform="translate(-164.034 -306.033)" fill="#082742"/>
              <path id="Path_10729" data-name="Path 10729" d="M173,303.751h.55v3.368h2.083v.478H173Z" transform="translate(-166.566 -303.438)" fill="#082742"/>
              <path id="Path_10730" data-name="Path 10730" d="M178.665,303.524a.348.348,0,0,1,.357-.346.344.344,0,1,1-.357.346Zm.093.9h.527v2.912h-.527Z" transform="translate(-169.134 -303.178)" fill="#082742"/>
              <path id="Path_10731" data-name="Path 10731" d="M181.15,306.894a1.455,1.455,0,0,1,1.538-1.484,1.3,1.3,0,0,1,1.187.621l-.4.258a.907.907,0,0,0-.791-.418,1.025,1.025,0,0,0,0,2.05.908.908,0,0,0,.791-.418l.4.252a1.3,1.3,0,0,1-1.187.627A1.459,1.459,0,0,1,181.15,306.894Z" transform="translate(-170.261 -304.19)" fill="#082742"/>
              <path id="Path_10732" data-name="Path 10732" d="M189.7,307.07h-2.363a.987.987,0,0,0,1.055.851,1.088,1.088,0,0,0,.841-.351l.291.34a1.587,1.587,0,0,1-2.714-1.017,1.426,1.426,0,0,1,1.462-1.484,1.4,1.4,0,0,1,1.439,1.5C189.713,306.955,189.708,307.02,189.7,307.07Zm-2.363-.38h1.868a.94.94,0,0,0-1.868,0Z" transform="translate(-172.829 -304.19)" fill="#082742"/>
              <path id="Path_10733" data-name="Path 10733" d="M196.225,306.674v1.676H195.7v-1.615c0-.572-.286-.851-.786-.851a.865.865,0,0,0-.923.967v1.5h-.527v-2.912h.505v.439a1.248,1.248,0,0,1,1.049-.467A1.129,1.129,0,0,1,196.225,306.674Z" transform="translate(-175.845 -304.19)" fill="#082742"/>
              <path id="Path_10734" data-name="Path 10734" d="M199.848,306.894a1.455,1.455,0,0,1,1.538-1.484,1.3,1.3,0,0,1,1.187.621l-.4.258a.907.907,0,0,0-.791-.418,1.025,1.025,0,0,0,0,2.05.908.908,0,0,0,.791-.418l.4.252a1.3,1.3,0,0,1-1.187.627A1.459,1.459,0,0,1,199.848,306.894Z" transform="translate(-178.741 -304.19)" fill="#082742"/>
              <path id="Path_10735" data-name="Path 10735" d="M208.4,307.07h-2.363a.987.987,0,0,0,1.055.851,1.087,1.087,0,0,0,.84-.351l.291.34a1.587,1.587,0,0,1-2.714-1.017,1.426,1.426,0,0,1,1.462-1.484,1.4,1.4,0,0,1,1.439,1.5C208.412,306.955,208.407,307.02,208.4,307.07Zm-2.363-.38h1.868a.94.94,0,0,0-1.868,0Z" transform="translate(-181.31 -304.19)" fill="#082742"/>
            </g>
            <g id="Group_7376" data-name="Group 7376" transform="translate(17.891 72.143)">
              <g id="Group_7375" data-name="Group 7375">
                <path id="Path_10736" data-name="Path 10736" d="M245.32,217.274c0,.079-18.858.142-42.116.142s-42.12-.063-42.12-.142,18.855-.143,42.12-.143S245.32,217.195,245.32,217.274Z" transform="translate(-161.084 -217.131)" fill="#082742"/>
              </g>
            </g>
            <g id="Group_7378" data-name="Group 7378" transform="translate(17.891 78.518)">
              <g id="Group_7377" data-name="Group 7377">
                <path id="Path_10737" data-name="Path 10737" d="M245.32,228.939c0,.079-18.858.142-42.116.142s-42.12-.063-42.12-.142,18.855-.142,42.12-.142S245.32,228.86,245.32,228.939Z" transform="translate(-161.084 -228.797)" fill="#082742"/>
              </g>
            </g>
            <g id="Group_7380" data-name="Group 7380" transform="translate(17.891 84.892)">
              <g id="Group_7379" data-name="Group 7379">
                <path id="Path_10738" data-name="Path 10738" d="M245.32,240.6c0,.079-18.858.143-42.116.143s-42.12-.064-42.12-.143,18.855-.142,42.12-.142S245.32,240.526,245.32,240.6Z" transform="translate(-161.084 -240.462)" fill="#082742"/>
              </g>
            </g>
            <g id="Group_7382" data-name="Group 7382" transform="translate(17.891 91.267)">
              <g id="Group_7381" data-name="Group 7381">
                <path id="Path_10739" data-name="Path 10739" d="M245.32,252.27c0,.078-18.858.142-42.116.142s-42.12-.064-42.12-.142,18.855-.143,42.12-.143S245.32,252.191,245.32,252.27Z" transform="translate(-161.084 -252.127)" fill="#082742"/>
              </g>
            </g>
            <g id="Group_7384" data-name="Group 7384" transform="translate(17.891 97.641)">
              <g id="Group_7383" data-name="Group 7383">
                <path id="Path_10740" data-name="Path 10740" d="M245.32,263.935c0,.079-18.858.142-42.116.142s-42.12-.063-42.12-.142,18.855-.143,42.12-.143S245.32,263.856,245.32,263.935Z" transform="translate(-161.084 -263.792)" fill="#082742"/>
              </g>
            </g>
            <g id="Group_7386" data-name="Group 7386" transform="translate(17.891 104.016)">
              <g id="Group_7385" data-name="Group 7385">
                <path id="Path_10741" data-name="Path 10741" d="M245.32,275.6c0,.079-18.858.143-42.116.143s-42.12-.064-42.12-.143,18.855-.142,42.12-.142S245.32,275.521,245.32,275.6Z" transform="translate(-161.084 -275.458)" fill="#082742"/>
              </g>
            </g>
            <g id="Group_7388" data-name="Group 7388" transform="translate(17.891 128.23)">
              <g id="Group_7387" data-name="Group 7387">
                <path id="Path_10742" data-name="Path 10742" d="M245.32,319.91c0,.079-18.858.142-42.116.142s-42.12-.063-42.12-.142,18.855-.143,42.12-.143S245.32,319.831,245.32,319.91Z" transform="translate(-161.084 -319.767)" fill="#082742"/>
              </g>
            </g>
            <g id="Group_7390" data-name="Group 7390" transform="translate(17.891 133.682)">
              <g id="Group_7389" data-name="Group 7389">
                <path id="Path_10743" data-name="Path 10743" d="M245.32,329.886c0,.079-18.858.142-42.116.142s-42.12-.063-42.12-.142,18.855-.142,42.12-.142S245.32,329.807,245.32,329.886Z" transform="translate(-161.084 -329.744)" fill="rgba(8,39,66,0.5)"/>
              </g>
            </g>
            <g id="Group_7392" data-name="Group 7392" transform="translate(17.891 139.133)">
              <g id="Group_7391" data-name="Group 7391">
                <path id="Path_10744" data-name="Path 10744" d="M245.32,339.862c0,.079-18.858.142-42.116.142s-42.12-.063-42.12-.142,18.855-.142,42.12-.142S245.32,339.783,245.32,339.862Z" transform="translate(-161.084 -339.72)" fill="rgba(8,39,66,0.5)"/>
              </g>
            </g>
            <g id="Group_7394" data-name="Group 7394" transform="translate(75.304 161.651)">
              <path id="Path_10745" data-name="Path 10745" d="M269.4,384.022h-2.194l-.454,1.032h-.607l1.869-4.127h.583l1.875,4.127h-.619Zm-.207-.472-.89-2.022-.89,2.022Z" transform="translate(-266.146 -380.927)" fill="#fff"/>
              <path id="Path_10746" data-name="Path 10746" d="M274.449,384.3a1.561,1.561,0,0,1,1.65-1.592,1.393,1.393,0,0,1,1.273.666l-.43.277a.973.973,0,0,0-.849-.448,1.1,1.1,0,0,0,0,2.2.974.974,0,0,0,.849-.448l.43.271a1.4,1.4,0,0,1-1.273.672A1.565,1.565,0,0,1,274.449,384.3Z" transform="translate(-269.912 -381.734)" fill="#fff"/>
              <path id="Path_10747" data-name="Path 10747" d="M280.519,384.3a1.561,1.561,0,0,1,1.651-1.592,1.393,1.393,0,0,1,1.273.666l-.43.277a.975.975,0,0,0-.849-.448,1.1,1.1,0,0,0,0,2.2.976.976,0,0,0,.849-.448l.43.271a1.4,1.4,0,0,1-1.273.672A1.565,1.565,0,0,1,280.519,384.3Z" transform="translate(-272.665 -381.734)" fill="#fff"/>
              <path id="Path_10748" data-name="Path 10748" d="M289.691,384.487h-2.535a1.058,1.058,0,0,0,1.132.914,1.169,1.169,0,0,0,.9-.377l.313.365a1.7,1.7,0,0,1-2.913-1.09,1.53,1.53,0,0,1,1.568-1.592,1.507,1.507,0,0,1,1.545,1.61C289.7,384.364,289.7,384.435,289.691,384.487Zm-2.535-.407h2a1.009,1.009,0,0,0-2,0Z" transform="translate(-275.418 -381.734)" fill="#fff"/>
              <path id="Path_10749" data-name="Path 10749" d="M296.954,384.3a1.518,1.518,0,0,1-1.58,1.6,1.332,1.332,0,0,1-1.09-.507V387h-.567v-4.268h.543v.5a1.33,1.33,0,0,1,1.114-.525A1.516,1.516,0,0,1,296.954,384.3Zm-.572,0a1.053,1.053,0,1,0-1.055,1.1A1.032,1.032,0,0,0,296.382,384.3Z" transform="translate(-278.651 -381.734)" fill="#fff"/>
              <path id="Path_10750" data-name="Path 10750" d="M302.456,385.136a1.069,1.069,0,0,1-.684.217.891.891,0,0,1-.991-.978V382.66h-.53v-.466h.53v-.684h.566v.684h.9v.466h-.9v1.691a.461.461,0,0,0,.49.525.709.709,0,0,0,.442-.147Z" transform="translate(-281.614 -381.191)" fill="#fff"/>
            </g>
          </g>
          <g id="Group_7448" data-name="Group 7448" transform="translate(99.55 97.211)">
            <g id="Group_7408" data-name="Group 7408" transform="translate(0 50.655)">
              <path id="Path_10761" data-name="Path 10761" d="M334.987,376.008l6.362-3.063-3.5-10.335-7.684-1.78c-.717-.159-1.513-.351-2.4-.6a9.706,9.706,0,0,1-2.909-1.369,14.815,14.815,0,0,1-3.051-2.585c-.726-.99-2.268-.621-2.265.478s1.937,3.872,5.383,5.831-2.645,2.908-4.858,3.294-8.994,1.9-9.4,2.667c-.59,1.13.538,1.993,2.738,1.557,2.226-.441,8.9-1.282,9.076-.11l-.021.032a4.791,4.791,0,0,0,.292,5.57c1.231,1.547,3.084,3.487,4.448,3.193A63.017,63.017,0,0,0,334.987,376.008Z" transform="translate(-310.517 -355.7)" fill="#b78876"/>
            </g>
            <g id="Group_7409" data-name="Group 7409" transform="translate(24.083)">
              <path id="Path_10762" data-name="Path 10762" d="M354.588,315.775l5.961,20.156,46.29-14.066a18.554,18.554,0,0,0,12.231-23.547L407.721,263l-24.649,6.12L396.6,301.792Z" transform="translate(-354.588 -263.004)" fill="#0f4c81"/>
            </g>
            <g id="Group_7411" data-name="Group 7411" transform="translate(23.904 12.828)">
              <g id="Group_7410" data-name="Group 7410">
                <path id="Path_10763" data-name="Path 10763" d="M407.735,332.159s-.074.031-.224.08l-.666.213-2.589.8-9.718,2.974-33.694,10.221-.126.038-.042-.125c-2.063-6.16-4.062-12.939-6.372-19.9l-.045-.135.135-.045,1.164-.387,40.857-13.567-.069.15-7.79-18.943-2.129-5.221-.549-1.368c-.122-.309-.177-.472-.177-.472s.076.154.208.458l.579,1.356,2.185,5.2,7.882,18.9.046.112-.115.038-40.838,13.623-1.165.387.09-.18c2.313,6.966,4.306,13.746,6.359,19.9l-.167-.086,33.724-10.124,9.741-2.9,2.6-.762.672-.191C407.655,332.175,407.735,332.159,407.735,332.159Z" transform="translate(-354.259 -286.479)" fill="#263238"/>
              </g>
            </g>
            <g id="Group_7413" data-name="Group 7413" transform="translate(65.818 38.795)">
              <g id="Group_7412" data-name="Group 7412">
                <path id="Path_10764" data-name="Path 10764" d="M439.8,339.872c-.044.025-.352-.51-.971-1.279a12.54,12.54,0,0,0-6.311-4.186c-.949-.271-1.562-.348-1.556-.4a1.315,1.315,0,0,1,.436.007,7.836,7.836,0,0,1,1.171.2,11.252,11.252,0,0,1,6.42,4.259,7.85,7.85,0,0,1,.636,1A1.289,1.289,0,0,1,439.8,339.872Z" transform="translate(-430.96 -333.997)" fill="#263238"/>
              </g>
            </g>
            <g id="Group_7415" data-name="Group 7415" transform="translate(63.292 1.854)">
              <g id="Group_7414" data-name="Group 7414">
                <path id="Path_10765" data-name="Path 10765" d="M426.48,272.378a31.428,31.428,0,0,1,0-5.98,31.536,31.536,0,0,1,0,5.98Z" transform="translate(-426.337 -266.397)" fill="#fafafa"/>
              </g>
            </g>
            <g id="Group_7417" data-name="Group 7417" transform="translate(70.983 2.5)">
              <g id="Group_7416" data-name="Group 7416">
                <path id="Path_10766" data-name="Path 10766" d="M442.16,273.39a32.393,32.393,0,0,1-1.738-5.812,32.393,32.393,0,0,1,1.738,5.812Z" transform="translate(-440.411 -267.578)" fill="#fafafa"/>
              </g>
            </g>
            <g id="Group_7419" data-name="Group 7419" transform="translate(61.558 15.105)">
              <g id="Group_7418" data-name="Group 7418">
                <path id="Path_10767" data-name="Path 10767" d="M428.571,292.238a10.331,10.331,0,0,1-5.406-1.586c.038-.075,1.183.463,2.673.9S428.58,292.154,428.571,292.238Z" transform="translate(-423.164 -290.645)" fill="#fafafa"/>
              </g>
            </g>
            <g id="Group_7421" data-name="Group 7421" transform="translate(77.458 15.654)">
              <g id="Group_7420" data-name="Group 7420">
                <path id="Path_10768" data-name="Path 10768" d="M452.281,297.314a29.162,29.162,0,0,1,.979-5.664,29.052,29.052,0,0,1-.979,5.664Z" transform="translate(-452.261 -291.651)" fill="#fafafa"/>
              </g>
            </g>
            <g id="Group_7423" data-name="Group 7423" transform="translate(71.256 23.471)">
              <g id="Group_7422" data-name="Group 7422">
                <path id="Path_10769" data-name="Path 10769" d="M443.373,311.322a30.635,30.635,0,0,1-2.454-5.367,30.63,30.63,0,0,1,2.454,5.367Z" transform="translate(-440.912 -305.955)" fill="#fafafa"/>
              </g>
            </g>
            <g id="Group_7425" data-name="Group 7425" transform="translate(67.115 32.973)">
              <g id="Group_7424" data-name="Group 7424">
                <path id="Path_10770" data-name="Path 10770" d="M438.4,325.8a27.843,27.843,0,0,1-5.061-2.453A27.843,27.843,0,0,1,438.4,325.8Z" transform="translate(-433.334 -323.343)" fill="#fafafa"/>
              </g>
            </g>
            <g id="Group_7427" data-name="Group 7427" transform="translate(81.857 33.678)">
              <g id="Group_7426" data-name="Group 7426">
                <path id="Path_10771" data-name="Path 10771" d="M462.455,324.634a125.705,125.705,0,0,1-2.134,4.989,14.533,14.533,0,0,1,2.134-4.989Z" transform="translate(-460.311 -324.633)" fill="#fafafa"/>
              </g>
            </g>
            <g id="Group_7429" data-name="Group 7429" transform="translate(80.075 43.414)">
              <g id="Group_7428" data-name="Group 7428">
                <path id="Path_10772" data-name="Path 10772" d="M457.687,348.585a33.463,33.463,0,0,1-.605-6.135,33.474,33.474,0,0,1,.605,6.135Z" transform="translate(-457.05 -342.45)" fill="#fafafa"/>
              </g>
            </g>
            <g id="Group_7431" data-name="Group 7431" transform="translate(68.209 50.743)">
              <g id="Group_7430" data-name="Group 7430">
                <path id="Path_10773" data-name="Path 10773" d="M439.492,359.681a28.067,28.067,0,0,1-4.155-3.818,27.99,27.99,0,0,1,4.155,3.818Z" transform="translate(-435.335 -355.861)" fill="#fafafa"/>
              </g>
            </g>
            <g id="Group_7433" data-name="Group 7433" transform="translate(54.358 56)">
              <g id="Group_7432" data-name="Group 7432">
                <path id="Path_10774" data-name="Path 10774" d="M413.568,365.483a32.185,32.185,0,0,1-3.575,4.872,32.1,32.1,0,0,1,3.575-4.872Z" transform="translate(-409.989 -365.481)" fill="#fafafa"/>
              </g>
            </g>
            <g id="Group_7435" data-name="Group 7435" transform="translate(58.523 44.942)">
              <g id="Group_7434" data-name="Group 7434">
                <path id="Path_10775" data-name="Path 10775" d="M421.6,349.541a14.316,14.316,0,0,1-3.987-4.294c.067-.049.881.979,1.98,2.159S421.656,349.478,421.6,349.541Z" transform="translate(-417.611 -345.246)" fill="#fafafa"/>
              </g>
            </g>
            <g id="Group_7437" data-name="Group 7437" transform="translate(47.333 50.448)">
              <g id="Group_7436" data-name="Group 7436">
                <path id="Path_10776" data-name="Path 10776" d="M401.428,355.648a5.654,5.654,0,0,1-4.294-.313c.028-.08.955.216,2.137.3S401.412,355.565,401.428,355.648Z" transform="translate(-397.134 -355.322)" fill="#fafafa"/>
              </g>
            </g>
            <g id="Group_7439" data-name="Group 7439" transform="translate(43.902 57.983)">
              <g id="Group_7438" data-name="Group 7438">
                <path id="Path_10777" data-name="Path 10777" d="M391.693,373.856a20.394,20.394,0,0,1-.814-4.745,20.411,20.411,0,0,1,.814,4.745Z" transform="translate(-390.855 -369.111)" fill="#fafafa"/>
              </g>
            </g>
            <g id="Group_7441" data-name="Group 7441" transform="translate(31.249 63.466)">
              <g id="Group_7440" data-name="Group 7440">
                <path id="Path_10778" data-name="Path 10778" d="M373.062,382.531a35.39,35.39,0,0,1-5.361-3.384,35.39,35.39,0,0,1,5.361,3.384Z" transform="translate(-367.7 -379.143)" fill="#fafafa"/>
              </g>
            </g>
            <g id="Group_7443" data-name="Group 7443" transform="translate(36.287 52.302)">
              <g id="Group_7442" data-name="Group 7442">
                <path id="Path_10779" data-name="Path 10779" d="M380.145,358.716c.061.056-.732.995-1.615,2.219s-1.533,2.268-1.6,2.228a13.083,13.083,0,0,1,3.22-4.447Z" transform="translate(-376.919 -358.714)" fill="#fafafa"/>
              </g>
            </g>
            <g id="Group_7445" data-name="Group 7445" transform="translate(30.157 53.52)">
              <g id="Group_7444" data-name="Group 7444">
                <path id="Path_10780" data-name="Path 10780" d="M368.771,362.488a10.4,10.4,0,0,1-3.067-1.533,10.383,10.383,0,0,1,3.067,1.533Z" transform="translate(-365.703 -360.943)" fill="#fafafa"/>
              </g>
            </g>
            <g id="Group_7447" data-name="Group 7447" transform="translate(65.707 37.606)" opacity="0.2">
              <g id="Group_7446" data-name="Group 7446">
                <path id="Path_10781" data-name="Path 10781" d="M430.757,332.176c2.473.254,4.947.509,7.414.82a9.123,9.123,0,0,1,2.511.568,3.194,3.194,0,0,1,1.8,1.756,1.965,1.965,0,0,1-.686,2.289,2.284,2.284,0,0,1-2.241-.1,11.948,11.948,0,0,1-1.845-1.449,10.234,10.234,0,0,0-3.794-1.984,6.5,6.5,0,0,1-1.812-.637,1.563,1.563,0,0,1-.786-1.62" transform="translate(-430.757 -331.822)"/>
              </g>
            </g>
          </g>
        </g>
      </g>
    </g>
    <text id="_" data-name=" " transform="translate(213 355)" fill="#082742" font-size="10" font-family="GeezaPro, Geeza Pro" letter-spacing="-0.02em"><tspan x="-21.096" y="0"></tspan><tspan y="0" font-family="Helvetica"> </tspan><tspan y="0"></tspan></text>
  </g>
</svg>
