<svg xmlns="http://www.w3.org/2000/svg" width="209" height="122.272" viewBox="0 0 209 122.272">
  <g id="Group_48481" data-name="Group 48481" transform="translate(3759.225 -11534.246)">
    <path id="Path_8396" data-name="Path 8396" d="M-1149.948,2243.4h-24.789a14.637,14.637,0,0,0,4.345-10.623v-3.144c0-9.106,6.4-16.489,14.286-16.489h0c8.088,0,14.645-7.568,14.645-16.9h0c0-9.335-6.557-16.9-14.645-16.9h-2.4c-7.89,0-14.286-7.382-14.286-16.489h0c0-7.6-5.337-13.759-11.921-13.759h-93.146c-7.328,0-13.268,6.856-13.268,15.314h0a15.8,15.8,0,0,0,6.874,13.422h-16.362c-6.824,0-12.356,5.909-12.356,13.2h0c0,8.735-6.629,15.816-14.807,15.816h-2.487c-8.383,0-15.178,7.259-15.178,16.213h0c0,8.954,6.8,16.213,15.178,16.213h0c8.177,0,14.807,7.081,14.807,15.816v3.015c0,7.289,5.532,13.2,12.355,13.2h57.493a13.142,13.142,0,0,0,1.318.067h94.342a13.751,13.751,0,0,0,13.508-13.981h0A13.751,13.751,0,0,0-1149.948,2243.4Z" transform="translate(-2413.784 9385.152)" fill="rgba(159,183,205,0.1)"/>
    <g id="Group_3124" data-name="Group 3124" transform="translate(-3699.144 11550.424)">
      <path id="Path_8394" data-name="Path 8394" d="M-407.781,170.82c-1.634-.114-4.137.6-4.915,1.735-3.26,4.762,5.015,4.09,7.34,4.2-1.5,1.278-7.254,7.31-7.6,8.738-.385,1.6-.385,14.349-.421,17.1-.049,3.7-.863,12.093,1.862,14.22h-4.53a1.367,1.367,0,0,0-1.362,1.363h0a1.367,1.367,0,0,0,1.362,1.363h87.54a1.367,1.367,0,0,0,1.363-1.363h0a1.367,1.367,0,0,0-1.363-1.363h-4.558c3.46-2.8,1.462-17.111,1.541-22.165.157-9.309-.136-11.936-7.683-17.889,2.468-.114,9.887.778,7.519-3.9-.714-1.413-5.25-3.184-6.927-1.228-3.4,3.969-3.031-.3-6.135-4.768-.335-.671-.642-1.278-.942-1.835a4.275,4.275,0,0,1-1.22.971l5.157,9.994c-3.146-.022-6.312-.15-9.494-.307-1.548,1.606-4.251,2.534-6.028.849a3.15,3.15,0,0,0-1.569-.764c-.507.414-1.47,2.013-1.312,2.677a2.688,2.688,0,0,1,.157.678c.236,2.12-1.641,3.834-3.517,4.4-2.14.771-4.979.2-5.828-2.141l-.014-.029c-.128-.393-.621-1.292-1.048-1.442a4.41,4.41,0,0,0-2.375,1.663c-.549,2.392-3.318,3.227-5.486,2.734-2.29-.442-4.5-2.363-3.916-4.868a3.013,3.013,0,0,0-.171-1.706c-.649-.186-2.475-.271-2.875.178-1.64,1.877-4.6,1.092-6.227-.4a6,6,0,0,1-1.305-1.763c-3.446.178-6.82.293-10.051.236a61.058,61.058,0,0,1,3.723-7.5c.264-.471.5-.9.713-1.3a5.777,5.777,0,0,1-.942-1.549,68.219,68.219,0,0,0-3.474,6.2c-2.29,4.511-1.876-.785-4.993-1.014Zm5.792,45.986c1.491-1.05,1.084-3.277,1.191-5.839,10.036-.7,47.044-.7,57.038,0,.107,2.491-.307,4.768,1.2,5.839Zm8.96-74.362c1.055.992.934,3.619.621,4.426-.443.757-1.812,1.064-3.238.814-1.377-.307-2.868,1-3.253,3-.435,1.878.321,3.676,1.69,3.99,1.491.314,2.554,2.748,2.618,3.562.121.807-.87,1.87-2.247,2.241-1.427.507-2,2.434-1.427,4.3s2.233,3.063,3.61,2.627c1.305-.5,2.81-.25,3.181.5.435.621.927,3.241-.064,4.362-.87,1.064-.492,2.991.942,4.3s3.488,1.563,4.422.5,3.552-.807,4.366-.5c.749.314,1.127,1.756.87,3.12-.371,1.5.935,3,2.932,3.369,1.876.435,3.688-.371,3.995-1.806.378-1.371,2.746-2.556,3.552-2.62s1.877.993,2.312,2.313c.5,1.371,2.368,2.049,4.237,1.371,1.868-.564,3.053-2.192,2.553-3.5-.435-1.435,1.127-3.627,1.812-4.119.621-.5,2.061-.064,3.117.871,1.056,1,2.989.628,4.359-.871,1.255-1.5,1.5-3.434.449-4.426s-.82-3.619-.449-4.376c.321-.742,1.69-1.121,3.06-.807,1.5.314,3-1.056,3.374-2.934.435-2-.378-3.8-1.819-4.112-1.363-.257-2.49-2.684-2.618-3.5-.057-.878,1-1.806,2.311-2.313,1.434-.436,2.061-2.313,1.434-4.176-.627-1.941-2.24-3.055-3.552-2.62-1.37.371-3.617-1.121-4.116-1.756-.492-.743-.057-2.113.935-3.177s.556-3.062-.935-4.369c-1.441-1.313-3.424-1.556-4.43-.507-.935,1.071-3.617.949-4.294.571-.756-.321-1.191-1.813-.884-3.191.378-1.363-1.056-2.87-2.925-3.305-1.926-.371-3.738.371-4.116,1.813-.25,1.435-2.682,2.563-3.488,2.62-.82,0-1.812-.928-2.311-2.37-.442-1.371-2.3-1.934-4.18-1.371s-3.053,2.177-2.618,3.619c.371,1.371-1.055,3.491-1.812,3.991-.685.507-2.054.121-3.117-.871-1.056-.935-3.053-.5-4.358.871-1.312,1.5-1.57,3.562-.5,4.433Zm15.893-.992h0a15.7,15.7,0,0,1,19.716,10.1,15.652,15.652,0,0,1-10.108,19.781,15.614,15.614,0,0,1-19.638-10.165,15.708,15.708,0,0,1,10.029-19.716Zm-10.707,56.08a5.1,5.1,0,0,0,5.079,5.082h20.986a5.1,5.1,0,0,0,5.078-5.082v-3.505a5.1,5.1,0,0,0-5.078-5.083h-20.986a5.1,5.1,0,0,0-5.079,5.083Zm-6.463.014a6.222,6.222,0,0,0,2.775-3.005c-3.132-1.849-14.773-2.67-18.347-1.964-1.613,9.473,12.291,6.531,15.572,4.969Zm41.294-3.005a6.223,6.223,0,0,0,2.775,3.005c3.282,1.563,17.185,4.5,15.572-4.969-3.574-.707-15.215.114-18.347,1.964Z" transform="translate(417.404 -129.615)" fill="#e8a188" fill-rule="evenodd"/>
      <path id="Path_8395" data-name="Path 8395" d="M-229.719,222.107a.544.544,0,0,0-.393-.164.543.543,0,0,0-.391.164l-.485.479c-.792-.8-1.47-1.464-2.126-2.12l2.333-2.342.977-.978a3.745,3.745,0,0,0,4.038-.821,3.728,3.728,0,0,0,.956-3.648l-.107-.371-2.532,2.541-2.112-2.113,2.533-2.542-.364-.1a3.751,3.751,0,0,0-3.652.949,3.766,3.766,0,0,0-.813,4.041l-.977.985v0l-2.347,2.342c-1.177-1.164-2.6-2.577-4.708-4.69a.022.022,0,0,0-.007-.014l-1.013-1.734a.221.221,0,0,0-.064-.078l-1.712-1.185a.237.237,0,0,0-.3.028l-.764.764a.229.229,0,0,0-.028.3l1.184,1.713a.384.384,0,0,0,.078.071l1.733,1.014h.015c2.04,2.041,3.488,3.49,4.708,4.7l-2.347,2.342h0l-.977.978a3.748,3.748,0,0,0-4.037.821,3.74,3.74,0,0,0-.949,3.648l.1.371,2.539-2.542,2.111,2.113-2.539,2.541.371.1a3.735,3.735,0,0,0,3.645-.949,3.755,3.755,0,0,0,.82-4.04l.977-.985,2.346-2.348c.692.685,1.37,1.356,2.133,2.127l-.477.478a.545.545,0,0,0-.164.393.545.545,0,0,0,.164.392l5.378,5.383a.544.544,0,0,0,.392.164.543.543,0,0,0,.392-.164l1.841-1.842a.547.547,0,0,0,.163-.392.549.549,0,0,0-.163-.393Zm2.746,6.8-4.166-4.169.442-.435,4.159,4.162Zm.985-.992-4.158-4.162.435-.443,4.166,4.169Z" transform="translate(279.595 -193.651)" fill="#e8a188" fill-rule="evenodd"/>
    </g>
  </g>
</svg>
