<svg xmlns="http://www.w3.org/2000/svg" width="331.992" height="301.7" viewBox="0 0 331.992 301.7">
  <g id="Group_47580" data-name="Group 47580" transform="translate(-22.146 -36.214)">
    <g id="Floor" transform="translate(22.146 176.238)">
      <path id="Floor-2" data-name="Floor" d="M70.765,362.023c-64.825-37.428-64.825-68.108,0-105.536s169.928-37.426,234.754,0,64.825,68.108,0,105.536S135.591,399.45,70.765,362.023Z" transform="translate(-22.146 -228.417)" fill="rgba(15,76,129,0.1)"/>
    </g>
    <g id="World" transform="translate(122.641 36.214)">
      <g id="World-2" data-name="World">
        <path id="Path_40022" data-name="Path 40022" d="M174.737,143.023a65.506,65.506,0,1,0-12.074-59.5A65.512,65.512,0,0,0,174.737,143.023Z" transform="translate(-160.09 -36.214)" fill="#9fb7cd"/>
        <path id="Path_40025" data-name="Path 40025" d="M258.821,45.393C217.113,33.3,209.289,61.728,231.378,79.68s59.983,23.9,65.105,12.091S289.825,54.383,258.821,45.393Z" transform="translate(-176.174 -37.917)" fill="#fff" opacity="0.1"/>
        <path id="Path_40026" data-name="Path 40026" d="M196.344,148.669C169.136,126.286,167.608,87.03,181.393,59.8a65.5,65.5,0,0,0,85.494,99.193q2.562-2.08,4.856-4.359C250.379,164.113,220.3,168.377,196.344,148.669Z" transform="translate(-160.09 -42.617)" fill="#fff" opacity="0.279"/>
        <path id="Path_40997" data-name="Path 40997" d="M174.737,143.023a65.506,65.506,0,1,0-12.074-59.5A65.512,65.512,0,0,0,174.737,143.023Z" transform="translate(-160.09 -36.215)" fill="rgba(159,183,205,0.1)"/>
      </g>
    </g>
    <g id="Wi_Fi_Icon" data-name="Wi Fi Icon" transform="translate(150.781 74.816)">
      <path id="WIFI" d="M236.088,122.472a10.276,10.276,0,1,0,10.277,10.277A10.276,10.276,0,0,0,236.088,122.472Zm-.006-16.817a27.08,27.08,0,0,0-23.9,14.334,4.055,4.055,0,0,0,1.091,5.092l.017.013a3.983,3.983,0,0,0,5.978-1.228,19.011,19.011,0,0,1,33.634,0,3.984,3.984,0,0,0,5.995,1.23l.018-.014a4.056,4.056,0,0,0,1.08-5.083A27.08,27.08,0,0,0,236.083,105.655Zm36.71,3.745a43.466,43.466,0,0,0-73.4-.039,4.086,4.086,0,0,0,.846,5.438l.031.025a4.015,4.015,0,0,0,5.892-1.048,35.41,35.41,0,0,1,59.89.006,4.015,4.015,0,0,0,5.888,1.048A4.088,4.088,0,0,0,272.793,109.4Z" transform="translate(-198.716 -89.201)" fill="#fff"/>
    </g>
    <g id="Character_2" data-name="Character 2" transform="translate(210.182 191.189)">
      <g id="Character" transform="translate(0)">
        <g id="Top">
          <g id="Group_47518" data-name="Group 47518">
            <g id="Group_47512" data-name="Group 47512" transform="translate(49.129)">
              <path id="Path_40055" data-name="Path 40055" d="M431.157,310.368a17.175,17.175,0,0,1-13.607-6.653l-35.156-45.544a12.862,12.862,0,0,0-16.435-3.439l-16.261,8.9-2.009-3.67,16.261-8.9a17.026,17.026,0,0,1,21.755,4.553l35.156,45.543a13,13,0,0,0,16.737,3.3l2.092,3.623A17.031,17.031,0,0,1,431.157,310.368Z" transform="translate(-347.688 -248.94)"/>
            </g>
            <path id="Path_40056" data-name="Path 40056" d="M340.025,261.352a2.515,2.515,0,0,0-1.048,2.317,7.911,7.911,0,0,0,3.578,6.2,2.516,2.516,0,0,0,2.531.251l7.671-4.429a2.515,2.515,0,0,0,1.048-2.317,7.911,7.911,0,0,0-3.579-6.2,2.516,2.516,0,0,0-2.531-.251Z" transform="translate(-296.195 -251.043)" fill="#37474f"/>
            <path id="Path_40057" data-name="Path 40057" d="M346.135,269.452a2.181,2.181,0,0,1-3.579,2.066,7.91,7.91,0,0,1-3.578-6.2,2.181,2.181,0,0,1,3.578-2.066A7.909,7.909,0,0,1,346.135,269.452Z" transform="translate(-296.195 -252.693)"/>
            <g id="Group_47514" data-name="Group 47514" transform="translate(0 3.555)">
              <path id="Path_40058" data-name="Path 40058" d="M336.018,271.084v2.284a12.669,12.669,0,0,1-5.729,9.928l-21.15,12.218L287.634,283.1l-.009-18.622L308.5,254.83a14.317,14.317,0,0,1,11.739.531l10.044,5.8A12.665,12.665,0,0,1,336.018,271.084Z" transform="translate(-282.254 -253.819)" fill="#37474f"/>
              <path id="Path_40059" data-name="Path 40059" d="M308.5,254.83a14.317,14.317,0,0,1,11.739.531l10.044,5.8c3.165,1.826,3.042,4.55-.275,6.084l-20.872,9.646-21.513-12.409Z" transform="translate(-282.254 -253.819)" fill="#455a64"/>
              <path id="Path_40060" data-name="Path 40060" d="M311.166,275.441a6.331,6.331,0,0,1,2.867,4.963l0,15.316-4.9,2.828-21.505-12.413-.009-18.622L293.069,265Z" transform="translate(-282.254 -256.854)" opacity="0.1"/>
              <g id="Group_47513" data-name="Group 47513" transform="translate(0 7.264)">
                <path id="Path_40061" data-name="Path 40061" d="M283.8,263.98a2,2,0,0,1,2.012.2l21.153,12.206a6.335,6.335,0,0,1,2.867,4.963l0,18.214a1.991,1.991,0,0,1-.843,1.848c-.483.274-2.21,1.271-2.689,1.554a1.992,1.992,0,0,1-2.023-.193l-21.153-12.206a6.333,6.333,0,0,1-2.867-4.963l0-18.215a2.013,2.013,0,0,1,.833-1.852C281.568,265.257,283.31,264.26,283.8,263.98Z" transform="translate(-280.252 -263.791)" fill="#37474f"/>
                <path id="Path_40062" data-name="Path 40062" d="M304.271,278.52l-21.153-12.206c-1.583-.914-2.865-.173-2.865,1.654l0,18.215a6.334,6.334,0,0,0,2.866,4.963l21.154,12.206c1.582.914,2.865.173,2.865-1.655l0-18.214A6.331,6.331,0,0,0,304.271,278.52Z" transform="translate(-280.252 -264.369)" fill="#455a64"/>
              </g>
            </g>
            <g id="Group_47517" data-name="Group 47517" transform="translate(4.685 19.211)">
              <g id="Group_47515" data-name="Group 47515" transform="translate(14.227 8.21)">
                <path id="Path_40063" data-name="Path 40063" d="M306.212,300.6V286.579l3.293,1.906v14.025Z" transform="translate(-306.212 -286.579)"/>
                <path id="Path_40064" data-name="Path 40064" d="M306.212,305.681l.7-.4,2.6,1.5v.806Z" transform="translate(-306.212 -291.656)" fill="#37474f"/>
                <path id="Path_40065" data-name="Path 40065" d="M307.169,300.353v-13.22l2.6,1.5v13.22Z" transform="translate(-306.472 -286.729)" fill="#263238"/>
              </g>
              <g id="Group_47516" data-name="Group 47516">
                <path id="Path_40066" data-name="Path 40066" d="M286.684,289.335V275.31l3.293,1.906v14.026Z" transform="translate(-286.684 -275.31)"/>
                <path id="Path_40067" data-name="Path 40067" d="M286.684,294.412l.7-.4,2.6,1.5v.806Z" transform="translate(-286.684 -280.386)" fill="#37474f"/>
                <path id="Path_40068" data-name="Path 40068" d="M287.641,289.084v-13.22l2.6,1.5v13.22Z" transform="translate(-286.943 -275.46)" fill="#263238"/>
              </g>
            </g>
          </g>
        </g>
      </g>
    </g>
    <g id="Character_1" data-name="Character 1" transform="translate(24.974 191.189)">
      <g id="Character-2" data-name="Character">
        <g id="Top-2" data-name="Top">
          <g id="Group_47561" data-name="Group 47561">
            <g id="Group_47556" data-name="Group 47556">
              <path id="Path_40132" data-name="Path 40132" d="M34.559,310.368a17.024,17.024,0,0,1-8.532-2.282l2.092-3.623a13,13,0,0,0,16.737-3.3l35.156-45.543a17.026,17.026,0,0,1,21.754-4.553l16.262,8.9-2.009,3.67-16.261-8.9a12.864,12.864,0,0,0-16.435,3.439L48.166,303.715A17.174,17.174,0,0,1,34.559,310.368Z" transform="translate(-26.027 -248.94)"/>
            </g>
            <path id="Path_40133" data-name="Path 40133" d="M146.738,256.923a2.516,2.516,0,0,0-2.531.251,7.911,7.911,0,0,0-3.579,6.2,2.515,2.515,0,0,0,1.048,2.317l7.671,4.429a2.516,2.516,0,0,0,2.531-.251,7.911,7.911,0,0,0,3.578-6.2,2.515,2.515,0,0,0-1.048-2.317Z" transform="translate(-57.139 -251.043)" fill="#37474f"/>
            <path id="Path_40134" data-name="Path 40134" d="M151.157,269.452a2.181,2.181,0,0,0,3.579,2.066,7.91,7.91,0,0,0,3.578-6.2,2.181,2.181,0,0,0-3.578-2.066A7.909,7.909,0,0,0,151.157,269.452Z" transform="translate(-59.997 -252.693)"/>
            <g id="Group_47560" data-name="Group 47560" transform="translate(87.334 3.555)">
              <path id="Path_40135" data-name="Path 40135" d="M145.907,271.084v2.284a12.667,12.667,0,0,0,5.729,9.928l21.15,12.218L194.291,283.1l.009-18.622-20.877-9.649a14.317,14.317,0,0,0-11.739.531l-10.044,5.8A12.665,12.665,0,0,0,145.907,271.084Z" transform="translate(-145.906 -253.819)" fill="#37474f"/>
              <path id="Path_40136" data-name="Path 40136" d="M174.7,254.83a14.317,14.317,0,0,0-11.739.531l-10.044,5.8c-3.165,1.826-3.042,4.55.275,6.084l20.872,9.646,21.513-12.409Z" transform="translate(-147.187 -253.819)" fill="#455a64"/>
              <path id="Path_40137" data-name="Path 40137" d="M178.95,275.441a6.331,6.331,0,0,0-2.867,4.963l0,15.316,4.9,2.828,21.506-12.413.009-18.622L197.047,265Z" transform="translate(-154.097 -256.854)" opacity="0.1"/>
              <g id="Group_47557" data-name="Group 47557" transform="translate(24.186 7.264)">
                <path id="Path_40138" data-name="Path 40138" d="M205.141,263.98a2,2,0,0,0-2.011.2l-21.154,12.206a6.337,6.337,0,0,0-2.867,4.963l0,18.214a1.991,1.991,0,0,0,.843,1.848c.483.274,2.21,1.271,2.689,1.554a1.992,1.992,0,0,0,2.023-.193l21.153-12.206a6.333,6.333,0,0,0,2.867-4.963l0-18.215a2.013,2.013,0,0,0-.833-1.852C207.368,265.257,205.626,264.26,205.141,263.98Z" transform="translate(-179.105 -263.791)" fill="#37474f"/>
                <path id="Path_40139" data-name="Path 40139" d="M185.668,278.52l21.153-12.206c1.583-.914,2.865-.173,2.865,1.654l0,18.215a6.334,6.334,0,0,1-2.866,4.963l-21.154,12.206c-1.582.914-2.865.173-2.865-1.655l0-18.214A6.331,6.331,0,0,1,185.668,278.52Z" transform="translate(-180.107 -264.369)" fill="#455a64"/>
              </g>
              <g id="Group_47558" data-name="Group 47558" transform="translate(32.253 25.075)">
                <path id="Path_40140" data-name="Path 40140" d="M209.576,298.343l-17.491-10.1-1.9,1.1,0,12.416,17.492,10.1a2.813,2.813,0,0,0,2.845.27c.323-.188,1.583-.916,1.905-1.1a2.794,2.794,0,0,0,1.164-2.583v-3.152A8.863,8.863,0,0,0,209.576,298.343Zm-3.215,3.321a5.94,5.94,0,0,1,2.687,4.657,2.829,2.829,0,0,1-.1.735,2.842,2.842,0,0,1-.688-.282,5.944,5.944,0,0,1-2.687-4.657,2.918,2.918,0,0,1,.1-.747A2.9,2.9,0,0,1,206.361,301.664Z" transform="translate(-190.178 -288.239)" fill="#0f4c81"/>
                <path id="Path_40141" data-name="Path 40141" d="M209.579,298.342l-17.495-10.1-1.893,1.1,17.482,10.1a8.858,8.858,0,0,1,4.009,6.949v3.15a2.765,2.765,0,0,1-1.258,2.647c.027-.013.066-.039.092-.052.331-.2,1.589-.926,1.907-1.112a2.764,2.764,0,0,0,1.165-2.58v-3.15A8.893,8.893,0,0,0,209.579,298.342Z" transform="translate(-190.182 -288.239)" fill="#fff" opacity="0.85"/>
                <path id="Path_40142" data-name="Path 40142" d="M221.133,310.171v3.15a2.764,2.764,0,0,1-1.165,2.58c-.318.186-1.576.914-1.907,1.112l-.079.039a2.762,2.762,0,0,0,1.244-2.634v-3.15a8.227,8.227,0,0,0-1.177-3.958l1.906-1.1A8.176,8.176,0,0,1,221.133,310.171Z" transform="translate(-197.726 -293.119)" fill="#ffdf44"/>
                <path id="Path_40143" data-name="Path 40143" d="M221.133,310.171v3.15a2.764,2.764,0,0,1-1.165,2.58c-.318.186-1.576.914-1.907,1.112l-.079.039a2.762,2.762,0,0,0,1.244-2.634v-3.15a8.227,8.227,0,0,0-1.177-3.958l1.906-1.1A8.176,8.176,0,0,1,221.133,310.171Z" transform="translate(-197.726 -293.119)" fill="#0f4c81" opacity="0.6"/>
                <path id="Path_40144" data-name="Path 40144" d="M221.133,310.171v3.15a2.764,2.764,0,0,1-1.165,2.58c-.318.186-1.576.914-1.907,1.112l-.079.039a2.762,2.762,0,0,0,1.244-2.634v-3.15a8.227,8.227,0,0,0-1.177-3.958l1.906-1.1A8.176,8.176,0,0,1,221.133,310.171Z" transform="translate(-197.726 -293.119)" opacity="0.05"/>
                <path id="Path_40145" data-name="Path 40145" d="M210.607,306.978a3.063,3.063,0,0,1,.094-.743h0c-1.149-.321-2,.4-2,1.842a5.947,5.947,0,0,0,2.686,4.659c1.244.729,2.3.345,2.594-.82a2.279,2.279,0,0,1-.688-.278A5.945,5.945,0,0,1,210.607,306.978Z" transform="translate(-195.206 -293.104)" fill="#fff" opacity="0.6"/>
                <path id="Path_40146" data-name="Path 40146" d="M210.607,306.978a3.063,3.063,0,0,1,.094-.743h0c-1.149-.321-2,.4-2,1.842a5.947,5.947,0,0,0,2.686,4.659c1.244.729,2.3.345,2.594-.82a2.279,2.279,0,0,1-.688-.278A5.945,5.945,0,0,1,210.607,306.978Z" transform="translate(-195.206 -293.104)" opacity="0.1"/>
                <path id="Path_40147" data-name="Path 40147" d="M207.673,299.851l-17.491-10.1,0,12.416,17.492,10.1c2.215,1.28,4.011.243,4.013-2.315V306.8A8.866,8.866,0,0,0,207.673,299.851Zm-1.314,8.431a5.94,5.94,0,0,1-2.687-4.657c0-1.714,1.2-2.408,2.688-1.552a5.94,5.94,0,0,1,2.687,4.657C209.047,308.444,207.843,309.139,206.359,308.282Z" transform="translate(-190.178 -288.648)" fill="#fff" opacity="0.7"/>
              </g>
              <g id="Group_47559" data-name="Group 47559" transform="translate(46.485 16.864)">
                <path id="Path_40148" data-name="Path 40148" d="M229.111,287.073l-17.491-10.1-1.9,1.1-.005,12.416,17.492,10.1a2.812,2.812,0,0,0,2.846.27c.323-.189,1.583-.916,1.905-1.1a2.8,2.8,0,0,0,1.164-2.583v-3.151A8.866,8.866,0,0,0,229.111,287.073Zm-3.216,3.321a5.943,5.943,0,0,1,2.688,4.657,2.878,2.878,0,0,1-.1.734,2.79,2.79,0,0,1-.688-.282,5.939,5.939,0,0,1-2.687-4.656,2.867,2.867,0,0,1,.1-.748A2.915,2.915,0,0,1,225.9,290.394Z" transform="translate(-209.713 -276.968)" fill="#0f4c81"/>
                <path id="Path_40149" data-name="Path 40149" d="M229.115,287.071l-17.5-10.1-1.893,1.1,17.482,10.1a8.862,8.862,0,0,1,4.009,6.949v3.15a2.766,2.766,0,0,1-1.258,2.647c.026-.013.066-.039.093-.052.331-.2,1.589-.926,1.907-1.112a2.766,2.766,0,0,0,1.165-2.581v-3.149A8.893,8.893,0,0,0,229.115,287.071Z" transform="translate(-209.717 -276.968)" fill="#fff" opacity="0.85"/>
                <path id="Path_40150" data-name="Path 40150" d="M240.669,298.9v3.149a2.766,2.766,0,0,1-1.165,2.581c-.318.186-1.576.913-1.907,1.112l-.079.039a2.764,2.764,0,0,0,1.245-2.634V300a8.232,8.232,0,0,0-1.177-3.957l1.906-1.1A8.188,8.188,0,0,1,240.669,298.9Z" transform="translate(-217.261 -281.848)" fill="#ffdf44"/>
                <path id="Path_40151" data-name="Path 40151" d="M240.669,298.9v3.149a2.766,2.766,0,0,1-1.165,2.581c-.318.186-1.576.913-1.907,1.112l-.079.039a2.764,2.764,0,0,0,1.245-2.634V300a8.232,8.232,0,0,0-1.177-3.957l1.906-1.1A8.188,8.188,0,0,1,240.669,298.9Z" transform="translate(-217.261 -281.848)" fill="#0f4c81" opacity="0.6"/>
                <path id="Path_40152" data-name="Path 40152" d="M240.669,298.9v3.149a2.766,2.766,0,0,1-1.165,2.581c-.318.186-1.576.913-1.907,1.112l-.079.039a2.764,2.764,0,0,0,1.245-2.634V300a8.232,8.232,0,0,0-1.177-3.957l1.906-1.1A8.188,8.188,0,0,1,240.669,298.9Z" transform="translate(-217.261 -281.848)" opacity="0.05"/>
                <path id="Path_40153" data-name="Path 40153" d="M230.142,295.708a3.071,3.071,0,0,1,.095-.744h0c-1.149-.32-2,.4-2,1.842a5.947,5.947,0,0,0,2.685,4.66c1.244.729,2.3.345,2.595-.82a2.284,2.284,0,0,1-.688-.278A5.95,5.95,0,0,1,230.142,295.708Z" transform="translate(-214.742 -281.833)" fill="#fff" opacity="0.6"/>
                <path id="Path_40154" data-name="Path 40154" d="M230.142,295.708a3.071,3.071,0,0,1,.095-.744h0c-1.149-.32-2,.4-2,1.842a5.947,5.947,0,0,0,2.685,4.66c1.244.729,2.3.345,2.595-.82a2.284,2.284,0,0,1-.688-.278A5.95,5.95,0,0,1,230.142,295.708Z" transform="translate(-214.742 -281.833)" opacity="0.1"/>
                <path id="Path_40155" data-name="Path 40155" d="M227.209,288.581l-17.491-10.1-.005,12.416L227.2,301c2.215,1.28,4.012.243,4.013-2.315v-3.151A8.866,8.866,0,0,0,227.209,288.581Zm-1.315,8.431a5.942,5.942,0,0,1-2.687-4.657c0-1.714,1.2-2.409,2.688-1.552a5.943,5.943,0,0,1,2.688,4.657C228.582,297.174,227.379,297.87,225.894,297.012Z" transform="translate(-209.713 -277.378)" fill="#fff" opacity="0.7"/>
              </g>
            </g>
          </g>
        </g>
      </g>
    </g>
    <g id="Lines" transform="translate(147.991 163.797)">
      <g id="Lines-2" data-name="Lines" transform="translate(0)">
        <g id="Group_47562" data-name="Group 47562" transform="translate(0 15.229)">
          <path id="Path_40157" data-name="Path 40157" d="M219.406,254.611,211.722,239.6l-6.89,3.764-9.946-11.116,9.129,17.35L210.808,246Z" transform="translate(-194.886 -232.244)" fill="#0f4c81"/>
        </g>
        <g id="Group_47563" data-name="Group 47563" transform="translate(60.272 76.823)">
          <path id="Path_40158" data-name="Path 40158" d="M304.934,335.642l-9.642-13.84-6.318,4.661-11.356-9.671,11.388,15.958,6.246-4.479Z" transform="translate(-277.618 -316.791)" fill="#0f4c81"/>
        </g>
        <g id="Group_47564" data-name="Group 47564" transform="translate(54.858 12.231)">
          <path id="Path_40159" data-name="Path 40159" d="M270.187,255.142l4.363-16.293,7.526,2.235,7.393-12.956-5.285,18.879-7.4-2.089Z" transform="translate(-270.187 -228.129)" fill="#0f4c81"/>
        </g>
        <g id="Group_47565" data-name="Group 47565" transform="translate(2.88 80.883)">
          <path id="Path_40160" data-name="Path 40160" d="M198.839,344.275,206.8,329.4l6.819,3.891,10.149-10.931-9.447,17.179-6.726-3.719Z" transform="translate(-198.839 -322.363)" fill="#0f4c81"/>
        </g>
        <g id="Group_47566" data-name="Group 47566" transform="translate(38.5)">
          <path id="Path_40161" data-name="Path 40161" d="M249.569,248.381a.727.727,0,0,1-.69-.7l-1.147-35.584a.729.729,0,0,1,.7-.752.719.719,0,0,1,.751.7l1.147,35.585a.727.727,0,0,1-.7.751A.568.568,0,0,1,249.569,248.381Z" transform="translate(-247.732 -211.34)" fill="#0f4c81"/>
        </g>
        <g id="Group_47567" data-name="Group 47567" transform="translate(22.511 12.385)">
          <path id="Path_40162" data-name="Path 40162" d="M234.935,248.483a.728.728,0,0,1-.627-.427l-8.457-18.685a.728.728,0,0,1,1.327-.6l8.457,18.684a.729.729,0,0,1-.364.964A.713.713,0,0,1,234.935,248.483Z" transform="translate(-225.785 -228.341)" fill="#0f4c81"/>
        </g>
        <g id="Group_47568" data-name="Group 47568" transform="translate(48.205 12.893)">
          <path id="Path_40163" data-name="Path 40163" d="M261.835,249.815a.743.743,0,0,1-.245-.024.729.729,0,0,1-.51-.9l5.284-19.322a.729.729,0,1,1,1.405.385l-5.284,19.322A.729.729,0,0,1,261.835,249.815Z" transform="translate(-261.054 -229.038)" fill="#0f4c81"/>
        </g>
        <g id="Group_47569" data-name="Group 47569" transform="translate(41.788 78.94)">
          <path id="Path_40164" data-name="Path 40164" d="M255.933,356.633a.727.727,0,0,1-.725-.668l-2.96-35.48a.728.728,0,0,1,1.452-.121l2.959,35.48a.728.728,0,0,1-.665.786A.579.579,0,0,1,255.933,356.633Z" transform="translate(-252.246 -319.696)" fill="#0f4c81"/>
        </g>
        <g id="Group_47570" data-name="Group 47570" transform="translate(50.145 83.031)">
          <path id="Path_40165" data-name="Path 40165" d="M273.845,345a.729.729,0,0,1-.648-.395l-9.4-18.23a.728.728,0,0,1,1.295-.667l9.4,18.23a.728.728,0,0,1-.313.981A.713.713,0,0,1,273.845,345Z" transform="translate(-263.716 -325.312)" fill="#0f4c81"/>
        </g>
        <g id="Group_47571" data-name="Group 47571" transform="translate(28.256 83.033)">
          <path id="Path_40166" data-name="Path 40166" d="M234.4,345.662a.748.748,0,0,1-.243-.042.729.729,0,0,1-.444-.93l6.662-18.891a.729.729,0,1,1,1.374.485l-6.662,18.891A.731.731,0,0,1,234.4,345.662Z" transform="translate(-233.671 -325.314)" fill="#0f4c81"/>
        </g>
      </g>
    </g>
  </g>
</svg>
