<svg id="Group_46957" data-name="Group 46957" xmlns="http://www.w3.org/2000/svg" width="23.385" height="23.385" viewBox="0 0 23.385 23.385">
  <path id="Path_40815" data-name="Path 40815" d="M11.693,0A11.693,11.693,0,1,1,0,11.693,11.693,11.693,0,0,1,11.693,0Z" fill="#0f4c81"/>
  <g id="Group_46949" data-name="Group 46949" transform="translate(4.288 5.474)">
    <g id="Group_38789" data-name="Group 38789">
      <path id="Path_39510" data-name="Path 39510" d="M576.987,737.466a1.951,1.951,0,0,0-2.742,0l-3.384,4.2-1.612,2c-.191.237-.418.592-.665.921l-.145-.149-1.094-1.124c-1.744-1.792-4.484.952-2.742,2.742.9.924,1.818,2.216,3.038,2.7a2.893,2.893,0,0,0,3.383-1.152c2.014-2.444,3.975-4.934,5.962-7.4A2,2,0,0,0,576.987,737.466Z" transform="translate(-564.045 -736.902)" fill="#fff"/>
    </g>
  </g>
</svg>
