<svg id="Group_2813" data-name="Group 2813" xmlns="http://www.w3.org/2000/svg" width="171" height="11" viewBox="0 0 171 11">
  <g id="Group_2691" data-name="Group 2691">
    <g id="Group_2688" data-name="Group 2688" transform="translate(160)">
      <g id="Path_40805" data-name="Path 40805" fill="none">
        <path d="M5.5,0A5.5,5.5,0,1,1,0,5.5,5.5,5.5,0,0,1,5.5,0Z" stroke="none"/>
        <path d="M 5.5 1 C 3.01869010925293 1 1 3.01869010925293 1 5.5 C 1 7.98130989074707 3.01869010925293 10 5.5 10 C 7.98130989074707 10 10 7.98130989074707 10 5.5 C 10 3.01869010925293 7.98130989074707 1 5.5 1 M 5.5 0 C 8.537569999694824 0 11 2.462430000305176 11 5.5 C 11 8.537569999694824 8.537569999694824 11 5.5 11 C 2.462430000305176 11 0 8.537569999694824 0 5.5 C 0 2.462430000305176 2.462430000305176 0 5.5 0 Z" stroke="none" fill="rgba(15,76,129,0.5)"/>
      </g>
    </g>
    <g id="Group_2689" data-name="Group 2689">
      <g id="Path_40808" data-name="Path 40808" fill="none">
        <path d="M5.5,0A5.5,5.5,0,1,1,0,5.5,5.5,5.5,0,0,1,5.5,0Z" stroke="none"/>
        <path d="M 5.5 1 C 3.01869010925293 1 1 3.01869010925293 1 5.5 C 1 7.98130989074707 3.01869010925293 10 5.5 10 C 7.98130989074707 10 10 7.98130989074707 10 5.5 C 10 3.01869010925293 7.98130989074707 1 5.5 1 M 5.5 0 C 8.537569999694824 0 11 2.462430000305176 11 5.5 C 11 8.537569999694824 8.537569999694824 11 5.5 11 C 2.462430000305176 11 0 8.537569999694824 0 5.5 C 0 2.462430000305176 2.462430000305176 0 5.5 0 Z" stroke="none" fill="rgba(15,76,129,0.5)"/>
      </g>
    </g>
    <g id="Group_2690" data-name="Group 2690" transform="translate(13.53 5.5)">
      <line id="Line_5" data-name="Line 5" x1="5" transform="translate(140)" fill="none" stroke="rgba(15,76,129,0.5)" stroke-width="1"/>
      <line id="Line_6" data-name="Line 6" x1="5" transform="translate(130)" fill="none" stroke="rgba(15,76,129,0.5)" stroke-width="1"/>
      <line id="Line_7" data-name="Line 7" x1="5" transform="translate(120)" fill="none" stroke="rgba(15,76,129,0.5)" stroke-width="1"/>
      <line id="Line_8" data-name="Line 8" x1="5" transform="translate(110)" fill="none" stroke="rgba(15,76,129,0.5)" stroke-width="1"/>
      <line id="Line_9" data-name="Line 9" x1="5" transform="translate(100)" fill="none" stroke="rgba(15,76,129,0.5)" stroke-width="1"/>
      <line id="Line_11" data-name="Line 11" x1="5" transform="translate(90)" fill="none" stroke="rgba(15,76,129,0.5)" stroke-width="1"/>
      <line id="Line_12" data-name="Line 12" x1="5" transform="translate(80)" fill="none" stroke="rgba(15,76,129,0.5)" stroke-width="1"/>
      <path id="Path_40806" data-name="Path 40806" d="M5,0H0" transform="translate(60)" fill="none" stroke="rgba(15,76,129,0.5)" stroke-width="1"/>
      <path id="Path_40807" data-name="Path 40807" d="M5,0H0" transform="translate(50)" fill="none" stroke="rgba(15,76,129,0.5)" stroke-width="1"/>
      <line id="Line_7-2" data-name="Line 7" x1="5" transform="translate(40)" fill="none" stroke="rgba(15,76,129,0.5)" stroke-width="1"/>
      <line id="Line_8-2" data-name="Line 8" x1="5" transform="translate(30)" fill="none" stroke="rgba(15,76,129,0.5)" stroke-width="1"/>
      <line id="Line_9-2" data-name="Line 9" x1="5" transform="translate(20)" fill="none" stroke="rgba(15,76,129,0.5)" stroke-width="1"/>
      <line id="Line_11-2" data-name="Line 11" x1="5" transform="translate(10)" fill="none" stroke="rgba(15,76,129,0.5)" stroke-width="1"/>
      <line id="Line_12-2" data-name="Line 12" x1="5" fill="none" stroke="rgba(15,76,129,0.5)" stroke-width="1"/>
    </g>
  </g>
  <g id="Group_2812" data-name="Group 2812" transform="translate(81.793 0.917)">
    <g id="Group_2796" data-name="Group 2796">
      <path id="Path_1344" data-name="Path 1344" d="M134.693,142.334a3.273,3.273,0,1,0,3.273,3.274A3.277,3.277,0,0,0,134.693,142.334Zm.895,5.332a2.245,2.245,0,1,1,1.163-2.952A2.245,2.245,0,0,1,135.588,147.666Z" transform="translate(-129.775 -140.691)" fill="rgba(15,76,129,0.5)"/>
      <path id="Path_1345" data-name="Path 1345" d="M135.8,142.171l-.311-.718.714-.666-.48-1.1-.973.068-.312-.719-.728-.287.031-.975-1.114-.439-.642.735-.729-.287-.719.311-.667-.712-1.1.478.069.974-.718.312-.287.73-.977-.033-.44,1.115.735.641-.286.729.314.718-.715.667.479,1.1.973-.069.313.719.73.288-.034.975,1.116.441.642-.737.729.288.718-.311.667.712,1.1-.478-.067-.973.718-.312.288-.73.976.031.438-1.115-.736-.641Zm-4.468,3.781a3.7,3.7,0,1,1,3.7-3.7A3.707,3.707,0,0,1,131.333,145.951Z" transform="translate(-126.416 -137.332)" fill="rgba(15,76,129,0.5)"/>
    </g>
  </g>
</svg>
