<svg xmlns="http://www.w3.org/2000/svg" width="17.905" height="22.191" viewBox="0 0 17.905 22.191">
  <g id="Group_49228" data-name="Group 49228" transform="translate(-5458.392 -312.591)">
    <path id="Path_40754" data-name="Path 40754" d="M5460.063,325.9q0-3.059,0-6.119c0-.089-.016-.134-.114-.165a2.248,2.248,0,0,1-1.557-2.131q0-.209,0-.417a.431.431,0,0,1,.045-.219,5.265,5.265,0,0,1,.476-.814,2.253,2.253,0,0,1,1.393-.785,3.006,3.006,0,0,1,.461-.025l3.584,0c.058,0,.116.018.118-.084a2.4,2.4,0,0,1,1.318-2.138,3.187,3.187,0,0,1,3.615.352,2.385,2.385,0,0,1,.813,1.5,1.756,1.756,0,0,1,.01.282c0,.064.018.087.083.084.124,0,.248,0,.373,0,.973,0,1.945,0,2.917,0a4.142,4.142,0,0,1,1.032.069,2.3,2.3,0,0,1,1.635,1.792,2.26,2.26,0,0,1-1.559,2.544c-.078.024-.075.065-.075.122q0,.837,0,1.674,0,5.259,0,10.518a2.909,2.909,0,0,1-2.216,2.764,5.315,5.315,0,0,1-1.191.076c-1.1,0-2.2,0-3.3,0l-4.942,0a2.891,2.891,0,0,1-2.835-2.21,2.747,2.747,0,0,1-.082-.659Q5460.064,328.9,5460.063,325.9Zm7.28-6.169h-6.2c-.072,0-.121,0-.121.1q.005,2.471,0,4.942,0,3.251,0,6.5a7.184,7.184,0,0,0,.018.859,1.925,1.925,0,0,0,1.932,1.69q4.372,0,8.742,0a1.791,1.791,0,0,0,.748-.145,1.9,1.9,0,0,0,1.2-1.849c0-1.043,0-2.087,0-3.13,0-.581,0-1.161,0-1.742q0-2.267,0-4.534c0-.856,0-1.711,0-2.567,0-.1-.025-.129-.128-.129Q5470.442,319.729,5467.343,319.726Zm-.009-.965v0h3.042c1.134,0,2.269,0,3.4,0a2.477,2.477,0,0,0,.551-.032,1.293,1.293,0,0,0-.345-2.552h-13.307a1.323,1.323,0,0,0-.291.032,1.286,1.286,0,0,0,.152,2.542c.569.016,1.139.008,1.707.009Zm.013-3.54c.521,0,1.04,0,1.56,0,.1,0,.119-.028.117-.12a1.156,1.156,0,0,0-.492-.912,1.97,1.97,0,0,0-2.261-.077,1.2,1.2,0,0,0-.6,1c0,.083.021.108.106.107C5466.3,315.219,5466.823,315.221,5467.347,315.221Z" fill="#f36e8e"/>
    <path id="Path_40755" data-name="Path 40755" d="M5663.666,754.22q0,1.985,0,3.969a.6.6,0,0,1-.592.634.606.606,0,0,1-.618-.624c0-.034,0-.068,0-.1v-4.727q0-1.566,0-3.132a.607.607,0,1,1,1.212-.022c0,.7,0,1.41,0,2.114v1.889Z" transform="translate(-199.447 -427.107)" fill="#f36e8e"/>
    <path id="Path_40756" data-name="Path 40756" d="M5992.359,754.178v-3.959a.617.617,0,0,1,.4-.619.606.606,0,0,1,.811.6c0,.6,0,1.206,0,1.81q0,.967,0,1.934c0,1.229,0,2.458,0,3.686a4.725,4.725,0,0,1-.015.686.592.592,0,0,1-.565.491.6.6,0,0,1-.614-.475,1.311,1.311,0,0,1-.018-.247Z" transform="translate(-521.887 -427.087)" fill="#f36e8e"/>
    <path id="Path_40757" data-name="Path 40757" d="M5828.522,754.454v3.981a.6.6,0,0,1-1.177.211.71.71,0,0,1-.033-.222c0-.591.013-1.183.008-1.774-.017-1.9,0-3.792-.008-5.688a5.313,5.313,0,0,1,.011-.6.581.581,0,0,1,.656-.537.594.594,0,0,1,.543.613c0,.584,0,1.168,0,1.753v2.262Z" transform="translate(-360.572 -427.343)" fill="#f36e8e"/>
  </g>
</svg>
