<svg xmlns="http://www.w3.org/2000/svg" width="33.71" height="30.779" viewBox="0 0 33.71 30.779">
  <path id="ic_add_a_photo_24px" d="M4.4,5.4V1H7.328V5.4h4.4V8.328h-4.4v4.4H4.4v-4.4H0V5.4Zm4.4,8.794v-4.4h4.4V5.4h10.26l2.682,2.931h4.646A2.94,2.94,0,0,1,33.71,11.26V28.848a2.94,2.94,0,0,1-2.931,2.931H7.328A2.94,2.94,0,0,1,4.4,28.848V14.191Zm10.26,13.191a7.328,7.328,0,1,0-7.328-7.328A7.331,7.331,0,0,0,19.054,27.382Zm-4.69-7.328a4.69,4.69,0,1,0,4.69-4.69,4.685,4.685,0,0,0-4.69,4.69Z" transform="translate(0 -1)" fill="#e8a188"/>
</svg>
