<svg id="Group_2856" data-name="Group 2856" xmlns="http://www.w3.org/2000/svg" width="34.567" height="23.871" viewBox="0 0 34.567 23.871">
  <g id="Group_2821" data-name="Group 2821" transform="translate(4.211 0.911)">
    <path id="Path_1367" data-name="Path 1367" d="M167.409,41.861Zm-5.062,0Zm-5.331,0Zm-1.3,0Zm-5.33,0Zm-4.767,8.425h26.121l-2.53-7.189a2.057,2.057,0,0,0-1.772-1.235H149.928A2.049,2.049,0,0,0,148.1,43.1l-2.494,7.19Z" transform="translate(-145.603 -41.861)" fill="#fff" fill-rule="evenodd"/>
  </g>
  <g id="Group_2839" data-name="Group 2839" transform="translate(17.116 7.767)">
    <path id="Path_1384" data-name="Path 1384" d="M174.853,55.249a4.05,4.05,0,1,1-4.05,4.05,4.05,4.05,0,0,1,4.05-4.05Zm0,.556a3.494,3.494,0,1,0,3.495,3.495A3.494,3.494,0,0,0,174.853,55.8Z" transform="translate(-170.803 -55.249)" fill="#e8a188" fill-rule="evenodd"/>
  </g>
  <g id="Group_2840" data-name="Group 2840" transform="translate(0.632 19.076)">
    <path id="Path_1385" data-name="Path 1385" d="M144.025,78.374v2.931a.824.824,0,0,1-.821.821h-3.77a.824.824,0,0,1-.821-.821V77.331a3.954,3.954,0,0,0,1.061,1.043Z" transform="translate(-138.613 -77.331)" fill="#e8a188" fill-rule="evenodd"/>
  </g>
  <g id="Group_2841" data-name="Group 2841" transform="translate(28.523 19.076)">
    <path id="Path_1386" data-name="Path 1386" d="M193.078,78.374v2.931a.824.824,0,0,0,.821.821h3.769a.823.823,0,0,0,.821-.821V77.331a3.959,3.959,0,0,1-1.061,1.043Z" transform="translate(-193.078 -77.331)" fill="#e8a188" fill-rule="evenodd"/>
  </g>
  <g id="Group_2842" data-name="Group 2842" transform="translate(1.451 19.83)">
    <rect id="Rectangle_1604" data-name="Rectangle 1604" width="0.367" height="4.041" transform="translate(0)" fill="#e8a188"/>
  </g>
  <g id="Group_2843" data-name="Group 2843" transform="translate(4.856 20.119)">
    <rect id="Rectangle_1605" data-name="Rectangle 1605" width="0.367" height="3.752" transform="translate(0 0)" fill="#e8a188"/>
  </g>
  <g id="Group_2844" data-name="Group 2844" transform="translate(29.345 20.119)">
    <rect id="Rectangle_1606" data-name="Rectangle 1606" width="0.366" height="3.752" transform="translate(0 0)" fill="#e8a188"/>
  </g>
  <g id="Group_2845" data-name="Group 2845" transform="translate(32.88 19.705)">
    <rect id="Rectangle_1607" data-name="Rectangle 1607" width="0.366" height="4.155" transform="translate(0 0)" fill="#e8a188"/>
  </g>
  <g id="Group_2846" data-name="Group 2846" transform="translate(30.248 7.456)">
    <path id="Path_1387" data-name="Path 1387" d="M196.446,54.641h2.623a1,1,0,0,1,.953,1.027V56.78a1,1,0,0,1-.953,1.027h-1.426Z" transform="translate(-196.446 -54.641)" fill="#e8a188" fill-rule="evenodd"/>
  </g>
  <g id="Group_2847" data-name="Group 2847" transform="translate(0.743 7.456)">
    <path id="Path_1388" data-name="Path 1388" d="M142.413,54.641h-2.63a.994.994,0,0,0-.952,1.027V56.78a1,1,0,0,0,.952,1.027h1.48Z" transform="translate(-138.831 -54.641)" fill="#e8a188" fill-rule="evenodd"/>
  </g>
  <g id="Group_2848" data-name="Group 2848" transform="translate(2.494)">
    <path id="Path_1389" data-name="Path 1389" d="M157.039,40.082h8.4a3.57,3.57,0,0,1,3.264,2.251l3.123,8.734h-29.58l3.122-8.734a3.571,3.571,0,0,1,3.265-2.251Zm3.673.911h-12.42a2.048,2.048,0,0,0-1.83,1.235l-2.495,7.19H170.1l-2.53-7.19a2.058,2.058,0,0,0-1.772-1.235h-5.086Z" transform="translate(-142.249 -40.081)" fill="#e8a188" fill-rule="evenodd"/>
  </g>
  <g id="Group_2849" data-name="Group 2849" transform="translate(0 10.984)">
    <path id="Path_1390" data-name="Path 1390" d="M154.663,61.531h14.79c.88.6,2.474,1.66,2.493,3.143V69.5a3.734,3.734,0,0,1-1.692,3.324H139.072A3.732,3.732,0,0,1,137.38,69.5V64.674a3.965,3.965,0,0,1,2.493-3.143Z" transform="translate(-137.379 -61.531)" fill="#e8a188" fill-rule="evenodd"/>
  </g>
  <g id="Group_2850" data-name="Group 2850" transform="translate(1.449 19.47)">
    <path id="Path_1391" data-name="Path 1391" d="M171.878,80.731c-.078.061-.16.121-.244.179H140.452c-.085-.058-.166-.118-.244-.179a2.789,2.789,0,0,1,2.776-2.631H169.1A2.789,2.789,0,0,1,171.878,80.731Z" transform="translate(-140.208 -78.1)" fill="#e8a188" fill-rule="evenodd"/>
  </g>
  <g id="Group_2851" data-name="Group 2851" transform="translate(7.273 19.833)">
    <path id="Path_1392" data-name="Path 1392" d="M151.583,78.81H171.6q0,.03,0,.06h0a1.212,1.212,0,0,1-1.209,1.209H152.789a1.212,1.212,0,0,1-1.208-1.209h0Q151.581,78.84,151.583,78.81Z" transform="translate(-151.581 -78.81)" fill="#e8a188" fill-rule="evenodd"/>
  </g>
  <g id="Group_2852" data-name="Group 2852" transform="translate(0 10.885)">
    <path id="Path_1393" data-name="Path 1393" d="M169.453,61.437c1.012-.026,2.474,1.66,2.493,3.142v1.352a2.788,2.788,0,0,1-2.78,2.78H140.16a2.788,2.788,0,0,1-2.78-2.78V64.579c.018-1.483,1.33-3.143,2.493-3.142l14.918-.1Z" transform="translate(-137.38 -61.337)" fill="#e8a188" fill-rule="evenodd"/>
  </g>
  <g id="Group_2853" data-name="Group 2853" transform="translate(9.932 13.47)">
    <path id="Path_1394" data-name="Path 1394" d="M164.125,70.253h4.526c2.216-.346,2.947-1.786,2.81-3.868H156.789c-.137,2.082.594,3.522,2.81,3.868Z" transform="translate(-156.773 -66.385)" fill="#e8a188" fill-rule="evenodd"/>
  </g>
  <g id="Group_2854" data-name="Group 2854" transform="translate(25.345 13.896)">
    <path id="Path_1395" data-name="Path 1395" d="M186.871,70.706a3.95,3.95,0,0,1,2.846-3.49h4.049c1.175,0,1.062,3.577,0,3.49C193.591,70.692,186.871,70.706,186.871,70.706Z" transform="translate(-186.871 -67.216)" fill="#fff" fill-rule="evenodd"/>
  </g>
  <g id="Group_2855" data-name="Group 2855" transform="translate(1.488 13.896)">
    <path id="Path_1396" data-name="Path 1396" d="M148.019,70.706a3.951,3.951,0,0,0-2.846-3.49h-4.049c-1.174,0-1.061,3.577,0,3.49C141.3,70.692,148.019,70.706,148.019,70.706Z" transform="translate(-140.285 -67.216)" fill="#fff" fill-rule="evenodd"/>
  </g>
</svg>
