<svg xmlns="http://www.w3.org/2000/svg" width="25.387" height="34.844" viewBox="0 0 25.387 34.844">
  <g id="Group_48420" data-name="Group 48420" transform="translate(1424.956 4027.958)" opacity="0.581">
    <path id="Path_40717" data-name="Path 40717" d="M-1424.953-4010.541q0-7.228,0-14.455c0-2.176.8-2.96,2.984-2.96q9.694,0,19.388,0c2.192,0,2.991.784,2.992,2.952,0,8.069-.009,16.138.018,24.207a2.24,2.24,0,0,1-.842,1.87c-1.959,1.709-3.883,3.459-5.8,5.22a2.08,2.08,0,0,1-1.533.594c-4.818-.021-9.637-.006-14.455-.015-1.881,0-2.75-.858-2.754-2.727C-1424.961-4000.751-1424.953-4005.646-1424.953-4010.541Zm1.152-.117c0,4.9.01,9.8-.009,14.7,0,.992.291,1.674,1.391,1.677,4.669.013,9.339,0,14.008.02.633,0,.779-.267.762-.826-.028-.917-.015-1.837-.005-2.755a2.39,2.39,0,0,1,2.682-2.693c1.033-.02,2.07-.058,3.1.011.9.061,1.161-.235,1.157-1.147-.035-7.77-.018-15.539-.021-23.308,0-1.5-.325-1.823-1.816-1.825q-9.7-.007-19.4,0c-1.542,0-1.843.316-1.844,1.911Q-1423.806-4017.777-1423.8-4010.658Zm17.29,15.649,4.846-4.371c-1.421,0-2.485-.017-3.549.005a1.205,1.205,0,0,0-1.291,1.3C-1406.534-3997.166-1406.511-3996.255-1406.511-3995.009Z" transform="translate(0 0)" fill="#e8a188"/>
    <path id="Path_40718" data-name="Path 40718" d="M-1378.893-3962.039c-1.759,0-3.517,0-5.276,0-.479,0-1.135.125-1.126-.6.008-.644.623-.538,1.068-.539q5.276-.007,10.552,0c.467,0,1.151-.153,1.119.595-.03.722-.711.539-1.176.543C-1375.452-3962.029-1377.173-3962.039-1378.893-3962.039Z" transform="translate(-30.552 -49.89)" fill="#e8a188"/>
    <path id="Path_40719" data-name="Path 40719" d="M-1378.959-3944.931c-1.759,0-3.518,0-5.277,0-.443,0-1.043.116-1.075-.534s.547-.606,1.008-.606q5.392,0,10.784,0c.423,0,.941-.041.958.542.02.685-.559.6-1.007.6C-1375.364-3944.928-1377.162-3944.931-1378.959-3944.931Z" transform="translate(-30.539 -63.078)" fill="#e8a188"/>
    <path id="Path_40720" data-name="Path 40720" d="M-1378.992-3979.121q-2.694,0-5.387,0c-.442,0-.936-.022-.955-.568-.02-.58.492-.572.924-.572q5.444,0,10.89,0c.414,0,.948-.055.945.546,0,.667-.579.588-1.028.59C-1375.4-3979.117-1377.2-3979.121-1378.992-3979.121Z" transform="translate(-30.522 -36.743)" fill="#e8a188"/>
    <path id="Path_40721" data-name="Path 40721" d="M-1379.03-3927.828q-2.694,0-5.388,0c-.434,0-.943,0-.925-.573.017-.544.511-.569.954-.569q5.445,0,10.891,0c.432,0,.927,0,.917.59-.01.6-.529.548-.945.549C-1375.361-3927.824-1377.2-3927.827-1379.03-3927.828Z" transform="translate(-30.514 -76.255)" fill="#e8a188"/>
    <path id="Path_40722" data-name="Path 40722" d="M-1389.919-4003.9q-2.461,0-4.922,0c-.423,0-.926.031-.928-.567s.5-.571.924-.571q4.921,0,9.843,0c.428,0,.93-.016.931.569s-.5.571-.927.571Z" transform="translate(-22.484 -17.654)" fill="#e8a188"/>
    <path id="Path_40723" data-name="Path 40723" d="M-1407.338-3980.227c.536,0,1.072-.008,1.607,0,.335.006.615.124.639.51a.522.522,0,0,1-.555.594c-1.147.021-2.3.019-3.443.005a.539.539,0,0,1-.583-.574c0-.379.27-.527.614-.533C-1408.487-3980.233-1407.912-3980.226-1407.338-3980.227Z" transform="translate(-11.772 -36.767)" fill="#e8a188"/>
    <path id="Path_40724" data-name="Path 40724" d="M-1407.471-3962.007c-.493,0-.987,0-1.48,0-.382,0-.7-.12-.73-.543s.277-.595.661-.6c1.1-.007,2.2,0,3.3,0,.348,0,.6.166.615.529.017.431-.272.6-.661.6C-1406.333-3962-1406.9-3962.008-1407.471-3962.007Z" transform="translate(-11.766 -49.926)" fill="#e8a188"/>
    <path id="Path_40725" data-name="Path 40725" d="M-1407.413-3944.906c-.532,0-1.063,0-1.595,0-.384,0-.693-.143-.685-.578a.537.537,0,0,1,.6-.548c1.139-.006,2.277-.009,3.416,0a.523.523,0,0,1,.572.569.537.537,0,0,1-.6.546c-.569.009-1.139,0-1.708,0Z" transform="translate(-11.758 -63.106)" fill="#e8a188"/>
    <path id="Path_40726" data-name="Path 40726" d="M-1407.47-3927.8c-.531,0-1.061.006-1.592,0-.335-.006-.607-.133-.63-.51a.52.52,0,0,1,.546-.594c1.174-.021,2.349-.023,3.523,0a.521.521,0,0,1,.513.622.49.49,0,0,1-.541.468c-.606.015-1.212,0-1.819,0Z" transform="translate(-11.757 -76.294)" fill="#e8a188"/>
  </g>
</svg>
