<svg xmlns="http://www.w3.org/2000/svg" width="67.523" height="22.012" viewBox="0 0 67.523 22.012">
  <path id="Path_1184" data-name="Path 1184" d="M167.554,51.534a2.458,2.458,0,0,1,.122.355c.022.08.046.165.078.259l.052.148c.02.053.041.108.066.167l.09.128.134.01c.048,0,.1.007.144.007h.075l.529.019h0c1.436.047,2.783.044,3.923-.015,1.175.126,3.17.249,4.773.348.964.059,1.8.111,2.308.153a6.3,6.3,0,0,0,10.083.381l10.31-.252c.258,0,5.157.019,10.019.009,3.8-.007,6.316-.034,7.756-.056h.1v0c.127,0,.356.017.6.029l.427.023A6.306,6.306,0,0,0,230.508,50.2c.134-.107.273-.215.414-.325a7.279,7.279,0,0,0,3.271-4.888,8.893,8.893,0,0,0-.211-3.2c-.353-.78-.576-.989-.708-1.045l-.091-.021a.074.074,0,0,0-.021,0l-.065,0c-.187-.006-.694-.023-.923-.023h-.017c-.766-.3-3.1-1.051-5.355-1.778-1.423-.459-2.845-.917-3.893-1.267-.429-.154-.913-.324-1.441-.505a63.629,63.629,0,0,0-8.833-2.416,68.4,68.4,0,0,0-9.736-.908,12.931,12.931,0,0,0-2.628.2l-1.587.437a19.563,19.563,0,0,0-9.714,5.61c-1.655.028-7.83.241-11.441.574-3.448.317-9.436,1.71-10.8,7.477l-.006.05a17.774,17.774,0,0,0,.555,2.579Zm3.568-.394c-1.65.02-2.314-.005-2.564-.025V51.08l-.329,0c-.046-.1-.087-.188-.126-.269-.057-.12-.107-.225-.156-.352,1.473-.15,2.386-.211,3.062-.256.39-.026.694-.047.972-.075.118-.01.137.008.137.071A1.161,1.161,0,0,1,171.122,51.14Zm1.454.489c-.068.009-.161.017-.275.027a3.687,3.687,0,0,0,.426-.737C172.674,51.146,172.625,51.383,172.576,51.629Zm12.457,3a5.108,5.108,0,1,1,5.107-5.107A5.114,5.114,0,0,1,185.033,54.627Zm39.2,0a5.108,5.108,0,1,1,5.107-5.107A5.114,5.114,0,0,1,224.235,54.627Zm9.182-11.118a6.2,6.2,0,0,1-2.9,5.486,6.354,6.354,0,0,0-1.747-3.85,5.207,5.207,0,0,0,1.1.119,4.37,4.37,0,0,0,3.107-1.165A2.61,2.61,0,0,0,233.417,43.509Zm-1.1-1.792c.348-.027.581.023.638.13.069.132-.194.652-.194.652-.364,1.619-2.326,1.745-2.918,1.745a4.57,4.57,0,0,1-1.754-.324,9.207,9.207,0,0,0-3.547-.772,4.833,4.833,0,0,0-1.117.115,6.306,6.306,0,0,0-4.93,8.881c-3.414.043-9.717.074-14.922.074-1.2,0-2.338,0-3.382,0l-9.5.083a6.309,6.309,0,1,0-11.974-2.777,6.227,6.227,0,0,0,.53,2.529c-1.4-.12-4.306-.376-5.572-.579a8.643,8.643,0,0,1,.943-2.819,11.161,11.161,0,0,1,7.626-5.48c2.543-.6,10.353-.914,13.827-.914.179,0,.344,0,.492,0,.378.005.7.008.944.008a4.911,4.911,0,0,1,.477,1.136,8.648,8.648,0,0,1,.248,2.858,16.985,16.985,0,0,1-.28,2.07c-.057.318-.112.631-.157.935a2.121,2.121,0,0,0,.79,2.251,1.7,1.7,0,0,0,1.009.228h0l-.019-.441h-.007a1.508,1.508,0,0,1-1.088-.717,1.892,1.892,0,0,1-.074-1.046c.011-.1.022-.208.029-.31a10.183,10.183,0,0,1,.256-1.437,10.087,10.087,0,0,0,.269-1.53l0-.067a9.274,9.274,0,0,0,.041-1.236,8.117,8.117,0,0,0-.194-1.577,4.353,4.353,0,0,1-.079-.462,4.448,4.448,0,0,0-.128-.666c3-.036,12.346-.225,16.928-.317l1.431-.029a11.9,11.9,0,0,1-4.7,7.941,3.987,3.987,0,0,1-2.256.91c-1.025.139-2.12.241-3.444.32-1.162.062-5.384.248-5.384.248l.013.441s2.187-.027,2.877-.03v.01h.005c1.417-.038,5.027-.088,6.275-.217a7.84,7.84,0,0,0,4.931-2.756,12.891,12.891,0,0,0,1.6-2.491,13.044,13.044,0,0,0,1.086-2.742,13.407,13.407,0,0,0,.3-1.425c.011-.077.023-.155.033-.232.922-.017,2.551-.04,4.347-.064,1.705-.023,4.427-.051,6.572-.073C230.682,41.736,231.867,41.724,232.32,41.717ZM199.63,40.57c-.014.374-.562.648-1.517.771l-.359,0a2.849,2.849,0,0,1-.5-.034.354.354,0,0,1-.071-.02.156.156,0,0,1-.008-.023,1,1,0,0,1,.1-.21l.112-.179a3.979,3.979,0,0,1,.828-.964,2.359,2.359,0,0,1,.609-.374C199.024,39.615,199.647,40.128,199.63,40.57Zm-.1-1.483c.607-.43,1.243-.843,1.894-1.228.762-.45,1.523-.852,2.264-1.2a16.285,16.285,0,0,1,2.414-.919l.263-.075h.083c.192,0,.385.005.577.016.287.017.57.046.838.085.237.034.48.081.724.129l.115.023q.855.163,1.7.347c1.087.233,2.22.5,3.368.8l.429.109a23.745,23.745,0,0,1,2.845.848c2.842,1.111,2.912,1.641,2.9,1.736-.042.263-.943.5-1.716.553-.85.015-5.6.006-9.989,0-2.477,0-4.837-.009-6.321-.009-.6,0-1.057,0-1.321,0a8.994,8.994,0,0,0-.829-.982C199.673,39.225,199.6,39.148,199.529,39.087Zm8.036-4.257a59.789,59.789,0,0,1,14.833,3.6c.139.051.287.1.441.158l.58.209v-.011c.774.258,1.68.538,2.632.835,1.2.37,2.419.749,3.39,1.088H228.6c-2.172,0-5.148,0-5.963.094a.7.7,0,0,0-.077.007l-.2,0c-.117,0-.22,0-.308.005l-.34,0c-.1.011-.6.026-1.385.044.6-.176,1.093-.446,1.153-.862.092-.645-.641-1.639-7.187-3.62a35.432,35.432,0,0,0-3.7-.915q-.865-.155-1.738-.3l-3.067-.466C206.62,34.752,207.279,34.805,207.565,34.83Zm-13.116,2.163c3.878-1.8,5.659-2.175,6.469-2.175.089,0,.158.005.21.01.355.031,1.141.19,1.835.329.448.09.856.173,1.088.208.039,0,.078.012.117.018-1.617.845-6.022,3.217-7.091,4.376l-.533.427a8.4,8.4,0,0,1-1.036.031c-.506,0-1.135-.007-1.8-.016-.736-.01-1.511-.02-2.2-.02-.481,0-.877.005-1.194.015A12.418,12.418,0,0,1,194.449,36.993ZM172.488,42.73c3.151-1.467,12.118-1.6,12.225-1.6.38-.034,3.285-.076,6.326-.076,2.46,0,4.356.028,5.4.078-.005.033-.008.067-.01.1l-.7-.011c-.808-.014-1.837-.031-2.988-.031-5.727,0-9.628.442-11.923,1.352-5.258,2.084-6.691,4.811-7.231,5.838a8.388,8.388,0,0,0-.554,1.4.457.457,0,0,0-.467-.477h-.053c-1.286.106-2.042.188-2.651.252-.688.074-1.195.128-2.078.174a9.859,9.859,0,0,1-.266-1.109l.255-.007c.275,0,.778.041,1.361.088.809.065,1.817.146,2.6.146h0c.99,0,1.261-.129,1.395-.256a2.217,2.217,0,0,0,.458-1.341,5.991,5.991,0,0,1,.578-2.039,1.4,1.4,0,0,0,.131-1.358.824.824,0,0,0-.742-.381h-.294a5.366,5.366,0,0,0-3.649,1.121A9.451,9.451,0,0,1,172.488,42.73Zm-.567,4.745a.52.52,0,0,1-.351-.224,1.006,1.006,0,0,1-.124-.772c.1-.5.5-.88.881-.834a.483.483,0,0,1,.29.154l.228.239a9.315,9.315,0,0,0-.323,1.52Zm.594.15c0,.035-.01.072-.013.108,0,.076-.11.194-.668.229a1.449,1.449,0,0,0,.182-.07Zm-3.071-2.255a4.258,4.258,0,0,1,3.665-1.022c.04,0,.048.014.051.021.1.144-.038.684-.179,1.191a1.382,1.382,0,0,0-1.122-1.035,1.73,1.73,0,0,0-1.762,1.347.662.662,0,0,0-.412-.164.914.914,0,0,0-.8.914,1.035,1.035,0,0,0,.225.769.646.646,0,0,0,.457.229h.028a.715.715,0,0,0,.545-.274l.043-.052s-.027.622-.149.614c-.489-.03-1.036-.064-1.591-.078A3.777,3.777,0,0,1,169.444,45.37Zm.6,1.506-.2.15a.7.7,0,0,1-.078.047.64.64,0,0,1-.014-.37c.017-.108.045-.108.062-.108.067,0,.152.054.155.043l.073.219Zm-1.665-.818a12.884,12.884,0,0,0-.885,2.272l-.019.071c-.014-.066-.027-.138-.043-.217A7.388,7.388,0,0,1,168.382,46.058Z" transform="translate(-166.726 -33.818)" fill="#082742"/>
</svg>
