<svg xmlns="http://www.w3.org/2000/svg" width="44.179" height="44.009" viewBox="0 0 44.179 44.009">
  <path id="Path_8394" data-name="Path 8394" d="M-412.694,149.782a3.154,3.154,0,0,0-2.405.849c-1.6,2.33,2.454,2,3.592,2.054-.737.625-3.551,3.578-3.718,4.277-.189.783-.189,7.023-.206,8.368-.024,1.81-.422,5.919.911,6.96h-2.217a.669.669,0,0,0-.667.667h0a.669.669,0,0,0,.667.667h42.845a.669.669,0,0,0,.667-.667h0a.669.669,0,0,0-.667-.667h-2.231c1.693-1.37.716-8.375.754-10.848.077-4.556-.066-5.842-3.76-8.756,1.208-.056,4.839.381,3.68-1.911-.349-.692-2.57-1.558-3.39-.6-1.662,1.943-1.484-.147-3-2.334-.164-.329-.314-.625-.461-.9a2.093,2.093,0,0,1-.6.475l2.524,4.891c-1.54-.011-3.09-.074-4.647-.15-.758.786-2.081,1.24-2.95.416a1.542,1.542,0,0,0-.768-.374,2.118,2.118,0,0,0-.642,1.31,1.317,1.317,0,0,1,.077.332A2.22,2.22,0,0,1-391.027,156a2.177,2.177,0,0,1-2.852-1.048l-.007-.014c-.063-.192-.3-.632-.513-.706a2.159,2.159,0,0,0-1.163.814,2.158,2.158,0,0,1-2.685,1.338A2.126,2.126,0,0,1-400.164,154a1.475,1.475,0,0,0-.084-.835c-.318-.091-1.211-.133-1.407.087-.8.919-2.252.535-3.048-.2a2.936,2.936,0,0,1-.639-.863c-1.686.087-3.338.143-4.919.115a29.884,29.884,0,0,1,1.822-3.672c.129-.231.244-.44.349-.636a2.828,2.828,0,0,1-.461-.758,33.4,33.4,0,0,0-1.7,3.036c-1.121,2.208-.918-.384-2.444-.5Zm2.835,22.507c.73-.514.531-1.6.583-2.858,4.912-.342,23.025-.342,27.916,0,.052,1.219-.15,2.334.586,2.858Zm4.385-36.4a2.563,2.563,0,0,1,.3,2.166,1.575,1.575,0,0,1-1.585.4c-.674-.15-1.4.489-1.592,1.467a1.541,1.541,0,0,0,.827,1.953c.73.154,1.25,1.345,1.281,1.743.059.395-.426.915-1.1,1.1a1.644,1.644,0,0,0-.7,2.107c.272.919,1.093,1.5,1.767,1.286.639-.245,1.376-.122,1.557.245a2.3,2.3,0,0,1-.031,2.135,1.626,1.626,0,0,0,.461,2.107,1.6,1.6,0,0,0,2.164.245c.457-.517,1.739-.395,2.137-.245.366.154.551.859.426,1.527-.181.734.457,1.467,1.435,1.649a1.538,1.538,0,0,0,1.955-.884c.185-.671,1.344-1.251,1.738-1.282s.919.486,1.131,1.132a1.57,1.57,0,0,0,2.074.671c.914-.276,1.494-1.073,1.25-1.712-.213-.7.552-1.775.887-2.016.3-.245,1.009-.031,1.525.426a1.551,1.551,0,0,0,2.133-.426,1.626,1.626,0,0,0,.22-2.166,2.363,2.363,0,0,1-.22-2.142c.157-.363.827-.549,1.5-.395.733.154,1.467-.517,1.651-1.436.213-.978-.185-1.859-.89-2.012-.667-.126-1.219-1.314-1.281-1.712-.028-.43.489-.884,1.131-1.132a1.527,1.527,0,0,0,.7-2.044c-.307-.95-1.1-1.5-1.739-1.282a2.683,2.683,0,0,1-2.014-.859c-.241-.363-.028-1.034.457-1.555a1.573,1.573,0,0,0-.457-2.138,1.608,1.608,0,0,0-2.168-.248,2.3,2.3,0,0,1-2.1.28c-.37-.157-.583-.888-.433-1.562.185-.667-.517-1.4-1.432-1.618a1.641,1.641,0,0,0-2.014.887c-.122.7-1.313,1.254-1.707,1.282-.4,0-.887-.454-1.131-1.16-.216-.671-1.128-.947-2.046-.671a1.572,1.572,0,0,0-1.281,1.771,2.381,2.381,0,0,1-.887,1.953c-.335.248-1.005.059-1.526-.426a1.645,1.645,0,0,0-2.133.426c-.642.734-.768,1.743-.244,2.17Zm7.779-.486h0a7.682,7.682,0,0,1,9.65,4.944,7.661,7.661,0,0,1-4.947,9.681,7.642,7.642,0,0,1-9.612-4.975,7.688,7.688,0,0,1,4.909-9.65Zm-5.24,27.448a2.494,2.494,0,0,0,2.486,2.487h10.271a2.494,2.494,0,0,0,2.486-2.487v-1.715a2.5,2.5,0,0,0-2.486-2.488H-400.45a2.5,2.5,0,0,0-2.486,2.488Zm-3.163.007a3.045,3.045,0,0,0,1.358-1.471c-1.533-.905-7.23-1.307-8.979-.961-.789,4.636,6.015,3.2,7.621,2.432Zm20.211-1.471a3.045,3.045,0,0,0,1.358,1.471c1.606.765,8.411,2.2,7.622-2.432-1.749-.346-7.447.056-8.98.961Z" transform="translate(417.404 -129.615)" fill="#e8a188" fill-rule="evenodd"/>
</svg>
