<svg xmlns="http://www.w3.org/2000/svg" width="13.114" height="13.136" viewBox="0 0 13.114 13.136">
  <g id="Group_6237" data-name="Group 6237" transform="translate(0 0)">
    <path id="Path_8800" data-name="Path 8800" d="M-553.456,164.945a.809.809,0,0,1,.519.551.532.532,0,0,1,.018.136q0,3.7,0,7.4a.291.291,0,0,1-.4.3.244.244,0,0,1-.143-.243c-.005-.256,0-.513,0-.77q0-2.424,0-4.848c0-.116-.028-.147-.145-.147q-5.095.005-10.19,0c-.123,0-.142.04-.142.15q0,3.777,0,7.555c0,.125.031.153.153.152,1.412,0,2.825,0,4.237,0,.253,0,.381.171.3.4a.233.233,0,0,1-.254.143c-.508,0-1.016,0-1.523,0-1.045,0-2.091,0-3.136,0a.277.277,0,0,1-.314-.312q.008-4.868,0-9.735a.753.753,0,0,1,.5-.7c.017-.005.033-.006.038-.026Zm-5.231,1.822h5.056c.034,0,.069,0,.1,0,.056,0,.074-.018.074-.073,0-.316,0-.633,0-.949,0-.18-.093-.261-.255-.261H-563.7c-.159,0-.231.073-.231.233,0,.3.006.6,0,.9,0,.12.023.156.15.156Q-561.235,166.762-558.688,166.767Z" transform="translate(564.471 -164.945)" fill="#e8a188"/>
    <path id="Path_8801" data-name="Path 8801" d="M-336.494,497.148c-.217-.066-.442-.1-.658-.173a4.869,4.869,0,0,1-1.29-.713,8.081,8.081,0,0,1-.969-.9c-.119-.123-.213-.271-.328-.4a.322.322,0,0,1,.012-.386,3.231,3.231,0,0,1,.248-.3,6.938,6.938,0,0,1,1.5-1.293,3.766,3.766,0,0,1,1.382-.533,3.043,3.043,0,0,1,1.461.124,4.65,4.65,0,0,1,1.4.772,6.49,6.49,0,0,1,.752.681c.189.2.362.419.542.63v.231a1,1,0,0,1-.074.112c-.232.267-.46.536-.719.78a6.144,6.144,0,0,1-1,.786,4.4,4.4,0,0,1-.866.414c-.2.07-.417.1-.62.166Zm.374-4.18a1.672,1.672,0,0,0-.268,0,3.656,3.656,0,0,0-1.482.61,6.929,6.929,0,0,0-1.236,1.12c-.041.046-.063.087-.008.151.161.184.331.358.506.529a4.709,4.709,0,0,0,1.4.973,2.508,2.508,0,0,0,1.53.209,3.731,3.731,0,0,0,1.373-.614,6.6,6.6,0,0,0,.691-.569,4.255,4.255,0,0,0,.515-.561c.024-.03.038-.046,0-.08-.057-.056-.1-.124-.158-.181a6.072,6.072,0,0,0-1.5-1.209A2.849,2.849,0,0,0-336.119,492.968Z" transform="translate(345.562 -484.012)" fill="#e8a188"/>
    <path id="Path_8802" data-name="Path 8802" d="M-419.011,317.231c.956,0,1.911,0,2.867,0,.121,0,.152.035.143.149a3.2,3.2,0,0,0,0,.346c0,.056-.018.079-.074.073-.025,0-.051,0-.077,0q-2.873,0-5.746,0c-.127,0-.161-.035-.15-.155s-.043-.307.024-.384.256-.027.391-.027C-420.76,317.23-419.885,317.231-419.011,317.231Z" transform="translate(425.712 -313.306)" fill="#e8a188"/>
    <path id="Path_8803" data-name="Path 8803" d="M-419.011,368.231c.956,0,1.911,0,2.867,0,.121,0,.152.035.143.149a3.2,3.2,0,0,0,0,.346c0,.056-.018.079-.074.073a.767.767,0,0,0-.077,0q-2.873,0-5.746,0c-.127,0-.161-.034-.15-.155s-.043-.308.024-.384.256-.027.391-.027C-420.76,368.23-419.885,368.231-419.011,368.231Z" transform="translate(425.712 -362.997)" fill="#e8a188"/>
    <path id="Path_8804" data-name="Path 8804" d="M-419.164,420.928c-.964,0-1.928,0-2.892,0-.1,0-.134-.03-.124-.128.014-.134-.057-.315.029-.391s.251-.021.383-.021q2.745,0,5.49,0c.119,0,.155.033.144.148a1.82,1.82,0,0,0,0,.295c.005.078-.019.1-.1.1-.256-.005-.512,0-.768,0Z" transform="translate(425.844 -413.821)" fill="#e8a188"/>
    <path id="Path_8805" data-name="Path 8805" d="M-419.764,472.365c-.61,0-1.22,0-1.83,0-.11,0-.139-.031-.13-.136a2.973,2.973,0,0,0,0-.333c0-.056.018-.079.074-.073a.6.6,0,0,0,.064,0c1.224,0,2.448,0,3.672,0,.117,0,.148.033.136.142-.015.13.055.3-.029.379s-.243.02-.371.021Z" transform="translate(425.388 -463.95)" fill="#e8a188"/>
    <path id="Path_8806" data-name="Path 8806" d="M-492.969,317.888c.149,0,.3,0,.447,0,.067,0,.1.01.1.089-.006.132,0,.265,0,.4,0,.06-.017.082-.079.081q-.46,0-.92,0c-.063,0-.079-.024-.078-.082,0-.132,0-.265,0-.4,0-.066.018-.09.086-.088C-493.267,317.891-493.118,317.888-492.969,317.888Z" transform="translate(495.323 -313.962)" fill="#e8a188"/>
    <path id="Path_8807" data-name="Path 8807" d="M-492.989,368.886c.149,0,.3,0,.447,0,.062,0,.081.02.08.081,0,.132,0,.265,0,.4,0,.064-.014.09-.084.089q-.454-.005-.907,0c-.068,0-.089-.021-.086-.087,0-.128.007-.256,0-.384-.005-.086.032-.1.1-.1C-493.287,368.889-493.138,368.886-492.989,368.886Z" transform="translate(495.361 -363.652)" fill="#e8a188"/>
    <path id="Path_8808" data-name="Path 8808" d="M-492.974,420.9c.153,0,.307,0,.46,0,.059,0,.083.016.082.079,0,.128,0,.256,0,.384,0,.064-.024.078-.082.078-.3,0-.6,0-.907,0-.065,0-.091-.016-.088-.085.005-.124.005-.248,0-.371,0-.071.025-.086.089-.084C-493.272,420.9-493.123,420.9-492.974,420.9Z" transform="translate(495.331 -414.329)" fill="#e8a188"/>
    <path id="Path_8809" data-name="Path 8809" d="M-492.955,472.436c-.153,0-.307,0-.46,0-.06,0-.083-.016-.081-.079q.006-.192,0-.384c0-.064.025-.078.083-.078.3,0,.6,0,.907,0,.065,0,.091.017.088.086-.005.124-.005.248,0,.371,0,.071-.026.086-.089.084C-492.657,472.434-492.806,472.436-492.955,472.436Z" transform="translate(495.317 -464.021)" fill="#e8a188"/>
    <path id="Path_8810" data-name="Path 8810" d="M-256.577,522.943a1.572,1.572,0,0,1,1.594,1.587,1.57,1.57,0,0,1-1.59,1.59,1.589,1.589,0,0,1-1.581-1.692A1.59,1.59,0,0,1-256.577,522.943Zm0,2.617a1.043,1.043,0,0,0,1.041-1.023,1.038,1.038,0,0,0-1.025-1.046,1.033,1.033,0,0,0-1.046,1.048A1.04,1.04,0,0,0-256.579,525.56Z" transform="translate(266.015 -513.759)" fill="#e8a188"/>
    <path id="Path_8811" data-name="Path 8811" d="M-217.107,564.332a.526.526,0,0,1,.521-.541.539.539,0,0,1,.549.526.554.554,0,0,1-.547.555A.53.53,0,0,1-217.107,564.332Z" transform="translate(226.022 -553.558)" fill="#e8a188"/>
  </g>
</svg>
