<svg xmlns="http://www.w3.org/2000/svg" width="23" height="23" viewBox="0 0 23 23">
  <g id="Group_49345" data-name="Group 49345" transform="translate(-380 -635)">
    <path id="Path_41049" data-name="Path 41049" d="M11.5,0A11.5,11.5,0,1,1,0,11.5,11.5,11.5,0,0,1,11.5,0Z" transform="translate(380 635)" fill="#b6c176"/>
    <path id="Path_40743" data-name="Path 40743" d="M572.16,737.256a1.224,1.224,0,0,0-1.719,0l-2.122,2.634-1.01,1.254c-.12.148-.262.371-.417.578l-.091-.094-.686-.7c-1.093-1.123-2.812.6-1.719,1.72a6.476,6.476,0,0,0,1.9,1.7,1.814,1.814,0,0,0,2.122-.722c1.263-1.533,2.493-3.094,3.739-4.641A1.255,1.255,0,0,0,572.16,737.256Z" transform="translate(-176.855 -94.469)" fill="#fff"/>
  </g>
</svg>
