<svg xmlns="http://www.w3.org/2000/svg" xmlns:xlink="http://www.w3.org/1999/xlink" width="38" height="38" viewBox="0 0 38 38">
  <defs>
    <filter id="Path_40832" x="0" y="0" width="38" height="38" filterUnits="userSpaceOnUse">
      <feOffset dy="3" input="SourceAlpha"/>
      <feGaussianBlur stdDeviation="3" result="blur"/>
      <feFlood flood-opacity="0.051"/>
      <feComposite operator="in" in2="blur"/>
      <feComposite in="SourceGraphic"/>
    </filter>
  </defs>
  <g id="Group_49393" data-name="Group 49393" transform="translate(-30.714 2.999)">
    <g id="Group_48920" data-name="Group 48920" transform="translate(39.714 3)">
      <g id="Group_49390" data-name="Group 49390">
        <g id="Group_49389" data-name="Group 49389" transform="translate(0 0.001)">
          <g id="Group_49388" data-name="Group 49388">
            <g id="Group_48919" data-name="Group 48919">
              <g id="Group_49381" data-name="Group 49381">
                <g id="Group_49385" data-name="Group 49385">
                  <g id="Group_49392" data-name="Group 49392">
                    <g transform="matrix(1, 0, 0, 1, -9, -6)" filter="url(#Path_40832)">
                      <path id="Path_40832-2" data-name="Path 40832" d="M10,0A10,10,0,1,1,0,10,10,10,0,0,1,10,0Z" transform="translate(9 6)" fill="rgba(159,183,205,0.1)"/>
                    </g>
                  </g>
                </g>
              </g>
            </g>
          </g>
        </g>
      </g>
      <g id="Group_49391" data-name="Group 49391">
        <g id="Group_49387" data-name="Group 49387">
          <g id="Group_49386" data-name="Group 49386" transform="translate(-0.107 0.318)">
            <path id="Path_40751" data-name="Path 40751" d="M-312.232,308.11a3.264,3.264,0,0,1-.556,1.93c-.852,1.251-1.636,2.544-2.434,3.83-.233.375-.389.374-.626,0-.8-1.282-1.6-2.565-2.433-3.83a3.394,3.394,0,0,1,2.043-5.169,3.315,3.315,0,0,1,3.94,2.611A2.514,2.514,0,0,1-312.232,308.11Zm-3.312-1.332a1.361,1.361,0,0,0-1.355,1.39,1.379,1.379,0,0,0,1.36,1.394,1.379,1.379,0,0,0,1.37-1.415A1.356,1.356,0,0,0-315.544,306.778Z" transform="translate(325.643 -299.785)" fill="#082742"/>
          </g>
        </g>
      </g>
    </g>
  </g>
</svg>
