<svg xmlns="http://www.w3.org/2000/svg" width="40.783" height="41.542" viewBox="0 0 40.783 41.542">
  <g id="Group_7682" data-name="Group 7682" transform="translate(0)" opacity="0.802">
    <g id="Group_7681" data-name="Group 7681" transform="translate(0)">
      <path id="Path_11294" data-name="Path 11294" d="M938.207,478.55a11.735,11.735,0,1,1-11.654-11.814A11.641,11.641,0,0,1,938.207,478.55Zm-3.2-.114a8.539,8.539,0,1,0-8.568,8.575A8.682,8.682,0,0,0,935.011,478.436Z" transform="translate(-906.051 -466.736)" fill="#e8a188"/>
      <path id="Path_11295" data-name="Path 11295" d="M921.278,587.274a1.377,1.377,0,0,1-.993,1.454,1.629,1.629,0,0,1-1.908-.633c-.671-.921-1.278-1.893-1.994-2.777a20,20,0,0,0-31.83,1.147c-.363.519-.688,1.066-1.059,1.578a1.579,1.579,0,0,1-2.213.582,1.521,1.521,0,0,1-.533-2.21,18.659,18.659,0,0,1,3.283-4.486,23.344,23.344,0,0,1,36.432,3.386A3.584,3.584,0,0,1,921.278,587.274Z" transform="translate(-880.495 -547.323)" fill="#e8a188"/>
    </g>
  </g>
</svg>
