<svg xmlns="http://www.w3.org/2000/svg" width="32.361" height="46.332" viewBox="0 0 32.361 46.332">
  <g id="Group_2699" data-name="Group 2699" transform="translate(-123.186 -218.364)">
    <g id="Group_49381" data-name="Group 49381" transform="translate(5 -4)">
      <path id="Path_1159" data-name="Path 1159" d="M130.888,242.723a.507.507,0,0,1-.291-.091l-9.908-6.843a.512.512,0,0,1-.181-.62l1.99-4.733-.639-.442a.511.511,0,0,1-.134-.705l2.139-3.2a.511.511,0,0,1,.716-.137l2.619,1.811,3.125-4.721a1.493,1.493,0,0,1,.964-.647,1.545,1.545,0,0,1,1.175.245,1.565,1.565,0,0,1,.419,2.15l-3.131,4.74,3.242,2.241,3.122-4.725a1.5,1.5,0,0,1,.972-.649,1.531,1.531,0,0,1,1.168.25,1.561,1.561,0,0,1,.419,2.146l-3.131,4.74,2.64,1.825a.511.511,0,0,1,.134.705l-2.137,3.2a.511.511,0,0,1-.718.137l-.628-.436-3.585,3.608A.51.51,0,0,1,130.888,242.723Zm-9.274-7.541,9.212,6.365,3.586-3.609a.511.511,0,0,1,.654-.06l.553.383,1.567-2.348-2.637-1.822a.513.513,0,0,1-.136-.7l3.408-5.161a.534.534,0,0,0-.146-.736.511.511,0,0,0-.394-.088.479.479,0,0,0-.312.208l-3.409,5.161a.518.518,0,0,1-.33.22.508.508,0,0,1-.388-.082l-4.085-2.823a.512.512,0,0,1-.137-.7l3.41-5.163a.537.537,0,0,0-.148-.739.524.524,0,0,0-.4-.083.475.475,0,0,0-.308.206l-3.413,5.158a.507.507,0,0,1-.329.22.513.513,0,0,1-.389-.082l-2.621-1.812-1.57,2.348.566.391a.513.513,0,0,1,.181.62Z" transform="translate(-0.32)" fill="#082742"/>
      <path id="Path_1160" data-name="Path 1160" d="M144.936,270.85a.512.512,0,0,1-.37-.157l-1.129-1.174a.512.512,0,0,1-.032-.674c2.181-2.738,4.435-5.569,3.928-8.242-.629-3.31-3.561-5.745-7.467-6.205-2.9-.343-4.64,1.187-6.651,2.958-1.586,1.395-3.224,2.833-5.452,3.157a8.09,8.09,0,0,1-8.273-3.377c-.113-.17-.218-.35-.316-.534-1.631-3.034-1.228-6.961,1.1-10.833l-1.131-.783a.513.513,0,0,1-.22-.447l.166-3.251a.53.53,0,0,1,.025-.132l1-3.076a.511.511,0,0,1,.777-.262l9.33,6.45a.513.513,0,0,1,.04.812l-2.442,2.077a.5.5,0,0,1-.116.075l-2.914,1.353a.513.513,0,0,1-.507-.043l-.954-.66a5.321,5.321,0,0,1-.964,1.567c-.894,2.262-.865,4.311.085,5.779a4.619,4.619,0,0,0,4.8,1.8c1.2-.174,2.325-1.167,3.631-2.316,2.2-1.934,4.935-4.335,9.389-3.811a11.111,11.111,0,0,1,10.039,8.742h0c1.17,4.414-2.317,9.633-5.137,11.149A.51.51,0,0,1,144.936,270.85Zm-.45-1.718.537.558c2.237-1.459,5.33-5.912,4.3-9.788h0a10.147,10.147,0,0,0-9.168-7.987c-4-.472-6.548,1.763-8.591,3.56-1.432,1.26-2.665,2.346-4.162,2.564-2.531.367-4.652-.453-5.813-2.256-1.15-1.776-1.2-4.2-.136-6.814a.525.525,0,0,1,.12-.176,4.771,4.771,0,0,0,1.03-1.871.513.513,0,0,1,.774-.251l1.247.862,2.586-1.2,1.881-1.6-8.217-5.681-.769,2.359-.148,2.9,1.3.9a.512.512,0,0,1,.14.7c-2.315,3.63-2.807,7.451-1.318,10.22a5.285,5.285,0,0,0,.271.457,7.094,7.094,0,0,0,7.267,2.922c1.928-.279,3.449-1.617,4.919-2.91,2.015-1.774,4.095-3.6,7.451-3.208,4.359.513,7.639,3.273,8.353,7.03C148.91,263.42,146.718,266.322,144.486,269.132Z" transform="translate(0 -2.153)" fill="#082742"/>
    </g>
  </g>
</svg>
