<svg xmlns="http://www.w3.org/2000/svg" width="43.505" height="43.469" viewBox="0 0 43.505 43.469">
  <g id="Group_6629" data-name="Group 6629" transform="translate(372.404 -157.748)">
    <path id="Path_9723" data-name="Path 9723" d="M-200.375,157.748c2.952.877,5.7,2.054,7.717,4.561a12.09,12.09,0,0,1-.765,16.342c-1.239,1.223-.882,2.553-1.01,3.909-.087.917.479,2.184-.5,2.663-1.182.578-1.766-.782-2.363-1.478a4.023,4.023,0,0,0-3.981-1.4c-5.462.611-10.293-.712-13.42-5.636a12.219,12.219,0,0,1,6.97-18.419c.53-.161,1.049-.36,1.573-.542Zm4.013,24.86c.485-3.372.485-3.372,2.428-5.805a10.62,10.62,0,0,0,1.05-11.789c-2.65-4.942-8.5-6.808-14.826-4.919a10.453,10.453,0,0,0-6.863,12.857c1.573,5.468,6.625,8.531,13.052,7.721C-199.546,180.424-197.714,180.035-196.363,182.608Z" transform="translate(-139.052 0)" fill="#0f4c81"/>
    <path id="Path_9724" data-name="Path 9724" d="M-372.4,299.984c1.354-3.476,3.931-4.859,7.594-4.616,2.086.138,4.189.014,6.284.038.606.007,1.394-.035,1.38.852s-.8.821-1.407.826c-2.378.022-4.757-.007-7.135.019-3.354.037-5,1.689-5.013,5.005q-.016,5.861,0,11.723c.013,3.1,1.739,4.818,4.824,4.851.4,0,.793.006,1.189,0,2.357-.038,4.836-.439,6.369,2.424-.181-2.451,1.181-2.511,2.8-2.446,2.262.09,4.53.034,6.795.02,3.109-.019,4.843-1.731,4.871-4.8.015-1.586,0-3.171.005-4.757,0-.591.056-1.247.792-1.277.867-.035.9.687.9,1.331,0,1.812.054,3.627-.021,5.436a5.887,5.887,0,0,1-5.784,5.748c-2.376.08-4.758.065-7.134.005-.992-.025-1.524.185-1.344,1.292a7.681,7.681,0,0,1,.009,1.018c.014.525,0,1.081-.54,1.323a1.063,1.063,0,0,1-1.309-.542c-1.942-2.887-4.715-3.374-7.954-3.117-3.122.247-4.9-1.8-6.177-4.373Z" transform="translate(0 -122.857)" fill="#0f4c81"/>
    <path id="Path_9725" data-name="Path 9725" d="M-318.559,405.462c-2.709,0-5.419.016-8.128-.011-.639-.006-1.526.115-1.46-.918.056-.875.865-.758,1.453-.76q8.213-.024,16.426,0c.65,0,1.534-.086,1.47.919-.054.841-.861.758-1.463.762C-313.027,405.471-315.793,405.462-318.559,405.462Z" transform="translate(-39.514 -219.668)" fill="#0f4c81"/>
    <path id="Path_9726" data-name="Path 9726" d="M-320.249,449.892c-2.149,0-4.3.016-6.447-.01-.589-.007-1.4.112-1.445-.771-.052-1.034.839-.9,1.477-.906q6.532-.032,13.065,0c.591,0,1.4-.1,1.447.771.052,1.029-.84.9-1.479.906C-315.837,449.91-318.043,449.892-320.249,449.892Z" transform="translate(-39.521 -259.337)" fill="#0f4c81"/>
    <path id="Path_9727" data-name="Path 9727" d="M-321.233,359.28c1.8,0,3.609-.015,5.414.008.656.008,1.535-.085,1.526.876-.007.829-.811.807-1.425.809q-5.5.018-11,0c-.587,0-1.4.1-1.422-.789-.03-1.027.856-.876,1.49-.888C-324.843,359.259-323.038,359.28-321.233,359.28Z" transform="translate(-39.525 -179.943)" fill="#0f4c81"/>
    <path id="Path_9728" data-name="Path 9728" d="M-119.739,221.729a1.961,1.961,0,0,1,1.438-2.24,1.736,1.736,0,0,0,1.2-2.156,1.687,1.687,0,0,0-1.693-1.408,1.769,1.769,0,0,0-1.945,1.518c-.13.562-.35,1.187-1.1.98-.877-.24-.627-1.013-.471-1.563a3.3,3.3,0,0,1,3.156-2.613,3.444,3.444,0,0,1,3.581,2.282,3.433,3.433,0,0,1-1.254,4.062c-.768.488-1.369.885-1.224,1.931.085.616,0,1.38-.836,1.4-.894.025-.817-.754-.841-1.373C-119.747,222.326-119.739,222.1-119.739,221.729Z" transform="translate(-223.163 -50.44)" fill="#0f4c81"/>
  </g>
</svg>
