<svg xmlns="http://www.w3.org/2000/svg" width="14.706" height="18.925" viewBox="0 0 14.706 18.925">
  <g id="Group_48851" data-name="Group 48851" transform="translate(-1138.781 -438.609)">
    <path id="Path_81" data-name="Path 81" d="M1152.464,452.045c-.18-.1-.264-.168-.264-.217,0-.014,0-.028,0-.041l-.5-4.8a5.723,5.723,0,0,0-3.919-5.766,1.824,1.824,0,1,0-3.291,0,5.723,5.723,0,0,0-3.919,5.766l-.5,4.811c0,.014,0,.028,0,.041,0,.037-.124.13-.206.191l-.065.048a2.364,2.364,0,0,0-1.016,1.84,1.448,1.448,0,0,0,1.447,1.447h3.374a2.563,2.563,0,0,0,5.065,0h3.374a1.453,1.453,0,0,0,1.447-1.469A2.129,2.129,0,0,0,1152.464,452.045Zm-6.329,4.693a1.773,1.773,0,0,1-1.725-1.371h3.447A1.771,1.771,0,0,1,1146.135,456.738Zm5.905-2.167h-11.812a.656.656,0,0,1-.65-.673,1.585,1.585,0,0,1,.7-1.183l.059-.044a2.032,2.032,0,0,0,.288-.248h4.291a.4.4,0,0,0,0-.8h-4.027l.475-4.576c0-.013,0-.027,0-.041,0-2.677,1.552-4.743,3.861-5.141a.4.4,0,0,0,.2-.684,1.028,1.028,0,1,1,1.407,0,.4.4,0,0,0,.2.684c2.309.4,3.861,2.465,3.861,5.141,0,.014,0,.027,0,.041l.5,4.8a1.1,1.1,0,0,0,.682.894,1.376,1.376,0,0,1,.6,1.174A.651.651,0,0,1,1152.04,454.57Z" fill="#fff"/>
    <path id="Path_82" data-name="Path 82" d="M1178.28,508.141h-1.087a.4.4,0,0,0,0,.8h1.087a.4.4,0,0,0,0-.8Z" transform="translate(-30.898 -56.515)" fill="#fff"/>
  </g>
</svg>
