<svg xmlns="http://www.w3.org/2000/svg" width="49" height="49" viewBox="0 0 49 49">
  <g id="Group_48459" data-name="Group 48459" transform="translate(-351 -130)">
    <path id="Path_40794" data-name="Path 40794" d="M24.5,0A24.5,24.5,0,1,1,0,24.5,24.5,24.5,0,0,1,24.5,0Z" transform="translate(351 130)" fill="rgba(159,183,205,0.1)"/>
    <g id="rbMUt1" transform="translate(-4770.179 -3261.231)">
      <g id="Group_48458" data-name="Group 48458" transform="translate(5126.816 3406.306)">
        <path id="Path_40734" data-name="Path 40734" d="M5145.35,3442.418a6.788,6.788,0,0,0-.573.638.265.265,0,0,1-.241.1,11,11,0,0,0-3.783.888,6.846,6.846,0,0,0-2.822,2.084,3.088,3.088,0,0,0-.267.451c-.134.259-.038.417.26.421.407.005.813,0,1.221,0,1.248,0,2.5-.006,3.745-.018.161,0,.175.046.159.192a7.869,7.869,0,0,0,.99,4.833,7.713,7.713,0,0,0,.668.992,10.727,10.727,0,0,0,.8.873.321.321,0,0,1-.226.036q-3.914,0-7.828.005c-.18,0-.219-.03-.169-.215a3.822,3.822,0,0,0-1.587-4.1,3.75,3.75,0,0,0-4.951.662,3.671,3.671,0,0,0-.844,3.407c.043.186.035.253-.182.244a18.293,18.293,0,0,1-2.037-.056.9.9,0,0,1-.824-.616,1.1,1.1,0,0,1-.036-.333c0-.624-.021-1.25.01-1.873a3.78,3.78,0,0,1,1.451-2.8,5.216,5.216,0,0,1,1.867-.975,10.119,10.119,0,0,1,1.84-.308c1.268-.137,2.535-.282,3.8-.424a.363.363,0,0,0,.236-.12,13.065,13.065,0,0,1,3.027-2.382,11.473,11.473,0,0,1,5.3-1.578A9.487,9.487,0,0,1,5145.35,3442.418Z" transform="translate(-5126.816 -3440.893)" fill="#e8a188"/>
        <path id="Path_40735" data-name="Path 40735" d="M5529.806,3413a7.192,7.192,0,0,1,13.053-3.64,7.029,7.029,0,0,1,1.21,5.187,6.934,6.934,0,0,1-1.249,3.1c-.1.142-.078.2.044.308q2.539,2.236,5.067,4.482a1.4,1.4,0,0,1,.175,1.916,1.43,1.43,0,0,1-1.866.353,3.784,3.784,0,0,1-.794-.8q-2.02-2.267-4.022-4.549c-.1-.118-.158-.113-.281-.03a7.087,7.087,0,0,1-6.377.979,6.976,6.976,0,0,1-3.594-2.6A7.484,7.484,0,0,1,5529.806,3413Zm13.2.5a6.03,6.03,0,1,0-6.1,6.01A6.012,6.012,0,0,0,5543,3413.5Zm-.011,5.136c-.087.007-.137.058-.1.151a.462.462,0,0,0,.121.142q1.909,1.74,3.82,3.478c.108.1.223.192.333.288.06.052.122.112.2.036s.019-.152-.042-.213c-.029-.03-.062-.056-.094-.084-.452-.408-.905-.814-1.355-1.223q-1.359-1.236-2.717-2.474A.282.282,0,0,0,5542.992,3418.632Z" transform="translate(-5512.844 -3406.306)" fill="#e8a188"/>
        <path id="Path_40736" data-name="Path 40736" d="M5215.848,3613.419a3.316,3.316,0,1,1-3.354-3.32A3.31,3.31,0,0,1,5215.848,3613.419Zm-3.329,2.206a2.2,2.2,0,0,0,2.213-2.171,2.207,2.207,0,1,0-2.213,2.171Z" transform="translate(-5205.749 -3601.521)" fill="#e8a188"/>
        <path id="Path_40737" data-name="Path 40737" d="M5687.968,3465.034a4.78,4.78,0,0,1,2.646.949,4.96,4.96,0,0,1,.958.963.48.48,0,0,1-.137.764.45.45,0,0,1-.582-.188,3.782,3.782,0,0,0-1.7-1.314,3.9,3.9,0,0,0-1.355-.249.458.458,0,0,1-.157-.893A1.774,1.774,0,0,1,5687.968,3465.034Z" transform="translate(-5663.73 -3462.562)" fill="#e8a188"/>
        <path id="Path_40738" data-name="Path 40738" d="M5786.368,3543.85a.475.475,0,0,1-.381.509.429.429,0,0,1-.512-.352,5.28,5.28,0,0,1-.108-.617.449.449,0,0,1,.339-.466.425.425,0,0,1,.537.279,1.893,1.893,0,0,1,.077.3C5786.342,3543.631,5786.354,3543.756,5786.368,3543.85Z" transform="translate(-5757.646 -3537.161)" fill="#e8a188"/>
      </g>
    </g>
  </g>
</svg>
