<svg xmlns="http://www.w3.org/2000/svg" width="15.014" height="15.043" viewBox="0 0 15.014 15.043">
  <g id="Group_6236" data-name="Group 6236" transform="translate(0 0)">
    <path id="Path_8795" data-name="Path 8795" d="M-405.869,188.644H-413.9a.379.379,0,0,0-.065-.027,1.457,1.457,0,0,1-1.18-1.244,4.617,4.617,0,0,1-.015-.689c0-.294.094-.39.382-.39.415,0,.831,0,1.246,0,.1,0,.133-.02.133-.127q0-4.752,0-9.5c0-.1-.029-.13-.13-.129-.513,0-1.026.007-1.539,0a1.47,1.47,0,0,1-1.374-1.027,1.474,1.474,0,0,1,.542-1.63,2.024,2.024,0,0,1,.652-.279h12.492a.346.346,0,0,0,.065.027,1.462,1.462,0,0,1,.938.612,2.062,2.062,0,0,1,.258.625v.411a.132.132,0,0,0-.022.036,1.462,1.462,0,0,1-1.523,1.227c-.469,0-.938.006-1.407,0-.132,0-.159.034-.159.161q.007,2.541,0,5.082,0,2.68,0,5.361a1.472,1.472,0,0,1-1.025,1.436C-405.712,188.6-405.791,188.621-405.869,188.644Zm.674-7.3q0-2.908,0-5.817c0-.139-.041-.165-.17-.165q-3.643.006-7.286,0c-.14,0-.176.031-.176.174q.007,5.3,0,10.59c0,.147.042.172.178.172q2.646-.007,5.292,0c.309,0,.4.091.4.4,0,.171,0,.343,0,.514a.881.881,0,0,0,.868.843.88.88,0,0,0,.889-.911Q-405.193,184.243-405.195,181.342Zm-3.8-7.154q-3.005,0-6.01,0a.88.88,0,0,0-.917.883.883.883,0,0,0,.921.879c.381,0,.762,0,1.143,0,.149,0,.354.068.432-.031s.017-.29.026-.441c.005-.089-.02-.119-.113-.117-.293.006-.586,0-.88,0-.224,0-.36-.115-.357-.3s.135-.289.351-.289h10.789c.215,0,.349.111.352.288s-.134.3-.356.3c-.293,0-.586,0-.88,0-.091,0-.12.025-.114.115a3.346,3.346,0,0,1,0,.367c0,.081.019.11.105.109.523,0,1.046,0,1.568,0a.876.876,0,0,0,.849-.89.881.881,0,0,0-.917-.869Q-406,174.187-409,174.189Zm1.75,13.868a1.531,1.531,0,0,1-.289-1.009c.009-.131-.028-.17-.165-.169q-3.357.007-6.713,0c-.029,0-.059,0-.088,0-.059,0-.07.025-.075.078a.922.922,0,0,0,.984,1.1h6.346Z" transform="translate(416.514 -173.601)" fill="#e8a188"/>
    <path id="Path_8796" data-name="Path 8796" d="M-246.132,346.678a.269.269,0,0,1-.288-.284.408.408,0,0,0-.277-.493.662.662,0,0,1-.259-.234.29.29,0,0,1,.022-.409.288.288,0,0,1,.409.014,1.643,1.643,0,0,0,.186.164.308.308,0,0,0,.382.007.269.269,0,0,0,.1-.312.311.311,0,0,0-.313-.218.876.876,0,0,1-.815-.645.869.869,0,0,1,.451-1.013.159.159,0,0,0,.106-.179,1.288,1.288,0,0,1,0-.235.3.3,0,0,1,.291-.275.27.27,0,0,1,.285.274.438.438,0,0,0,.3.522.465.465,0,0,1,.153.134.286.286,0,0,1-.01.387.294.294,0,0,1-.375.043c-.057-.038-.106-.087-.163-.123a.3.3,0,0,0-.369,0,.271.271,0,0,0-.105.312.3.3,0,0,0,.3.214.881.881,0,0,1,.739,1.327.8.8,0,0,1-.372.341.136.136,0,0,0-.094.156,1.634,1.634,0,0,1,0,.249A.285.285,0,0,1-246.132,346.678Z" transform="translate(253.669 -335.95)" fill="#e8a188"/>
    <path id="Path_8797" data-name="Path 8797" d="M-289.579,294.183h-2.241a1.191,1.191,0,0,1-.132,0,.294.294,0,0,1-.268-.3.3.3,0,0,1,.264-.286.847.847,0,0,1,.1,0h4.54c.029,0,.059,0,.088,0a.3.3,0,0,1,.282.3.294.294,0,0,1-.278.287c-.044,0-.088,0-.132,0Z" transform="translate(297.088 -288.894)" fill="#e8a188"/>
    <path id="Path_8798" data-name="Path 8798" d="M-290.155,248.6h1.684c.222,0,.359.117.355.3s-.137.288-.352.288h-3.4c-.222,0-.359-.117-.355-.3s.136-.288.351-.288Z" transform="translate(297.089 -245.659)" fill="#e8a188"/>
    <path id="Path_8799" data-name="Path 8799" d="M-171.869,248.92a.3.3,0,0,1-.3.287.3.3,0,0,1-.279-.3.3.3,0,0,1,.3-.287A.3.3,0,0,1-171.869,248.92Z" transform="translate(182.014 -245.683)" fill="#e8a188"/>
  </g>
</svg>
