<svg xmlns="http://www.w3.org/2000/svg" width="23.617" height="19.404" viewBox="0 0 23.617 19.404">
  <g id="Group_49357" data-name="Group 49357" transform="translate(-455.001 -728)">
    <g id="Group_49353" data-name="Group 49353" transform="translate(-2513.684 -529.113)">
      <path id="Path_8885" data-name="Path 8885" d="M2978.407,1276.517a9.694,9.694,0,0,1-1.233-19.314,9.341,9.341,0,0,1,7.419,2.17c.69.57.814,1.16.39,1.715s-1.1.557-1.811,0a7.464,7.464,0,1,0-.28,11.684c.148-.112.285-.239.434-.349a1.124,1.124,0,0,1,1.631.091,1.092,1.092,0,0,1-.21,1.618A9.584,9.584,0,0,1,2978.407,1276.517Z" transform="translate(0)" fill="#f36e8e"/>
      <path id="Path_8886" data-name="Path 8886" d="M3055.442,1308.267H3046.3c-1.247,0-1.754-.317-1.771-1.1s.482-1.128,1.718-1.129h9.437c-.524-.543-.931-.962-1.334-1.385a1.169,1.169,0,0,1-.121-1.749c.494-.463,1.092-.42,1.685.161q1.59,1.561,3.151,3.151a1.12,1.12,0,0,1-.021,1.853q-1.559,1.591-3.147,3.154a1.122,1.122,0,1,1-1.583-1.559c.4-.412.838-.787,1.259-1.178Z" transform="translate(-67.243 -40.316)" fill="#f36e8e"/>
    </g>
  </g>
</svg>
