<svg xmlns="http://www.w3.org/2000/svg" width="46.533" height="40.844" viewBox="0 0 46.533 40.844">
  <path id="Path_1163" data-name="Path 1163" d="M284.281,72.384a5.844,5.844,0,0,0-3.108-1.338c-1.756-.658-4.95-.154-6.386-1.317l-7.1-6.072c2.993-2.606,5.72-4.919,10.65-9.111,1.036-.257,2.553-.054,3.469-.213,2.85-.484,5.073-2.956,5.059-5.322-3.029,1.371-2.426,1.052-4.043,1.89-1.937-.484-3.3-1.942-2.673-4.66,1.638-1,2.516-1.443,4.215-2.382a5.861,5.861,0,0,0-5.947-.257c-3.736,2.361-2.394,5.623-3.629,6.655l-11.21,9.883-11.055-9.474c-1.259-1.017.047-4.314-3.758-6.639a5.9,5.9,0,0,0-5.989.335c1.732.923,2.614,1.354,4.289,2.351.673,2.723-.679,4.208-2.632,4.728-1.638-.819-1.029-.5-4.1-1.851.02,2.387,2.3,4.844,5.179,5.3.917.141,2.447-.086,3.509.161,4.8,3.977,7.556,6.246,10.468,8.695l-6.5,5.736c-1.491,1.244-4.972.651-6.619,1.527-1.957,1.049-4.354,3.248-4.061,5.729a45.79,45.79,0,0,1,4.442-2.46,13.346,13.346,0,0,1,2.84,2.035c.141,1.752.141,1.752.181,3.535-1.554.81-3.175,1.587-4.691,2.44a6.918,6.918,0,0,0,7.058-.354c2.582-1.636,2.271-5.267,3.589-7.753,3.342-2.953,5.818-5.139,7.874-6.958,2.194,1.87,4.839,4.141,8.485,7.289,1.359,2.459,1.119,6.079,3.665,7.712.024.023.037.032.056.053a6.514,6.514,0,1,0,8.475-9.894ZM276.424,46.63c-.181,3.612,1.746,6.531,4.74,7.3C277.194,53.768,275.532,49.3,276.424,46.63Zm-3.11,7.228c.646-.563,1.436-.725,1.764-.364.331.377.071,1.142-.573,1.716l-8.219,7.242L264.9,61.273Zm-27.156.62c3.012-.825,4.9-3.8,4.673-7.444C251.775,49.713,250.15,54.249,246.158,54.478Zm7.8,23.966c.016-2.452-2.377-7.168-6.1-7.234C251.795,70.755,254.435,74.515,253.954,78.443Zm3.284-8.014c-.653.574-1.44.736-1.77.362s-.064-1.141.577-1.7l4.785-4.22c.438.385.9.769,1.38,1.177Zm15.069.655c-.328.384-1.126.235-1.785-.335l-17.63-15.095c-.663-.565-.935-1.325-.607-1.712.326-.37,1.125-.222,1.783.346L271.693,69.37C272.358,69.939,272.635,70.709,272.307,71.084Zm8.047.371c-4.016-.6-7.151,4.355-6.083,7.429C272.4,74.585,275.752,70.146,280.354,71.456Zm3.19,7.551-.2,1.093-1.05.37-.718.849-1.084-.2-1.049.377-.85-.719-1.091-.2-.37-1.048-.849-.72.2-1.1-.378-1.04.72-.843.2-1.1,1.048-.374.72-.84,1.1.2,1.041-.377.842.718,1.1.2.374,1.049.839.72-.2,1.083.378,1.048Z" transform="translate(-240.336 -42.904)" fill="#082742"/>
</svg>
