<svg xmlns="http://www.w3.org/2000/svg" width="19.515" height="20.258" viewBox="0 0 19.515 20.258">
  <g id="Group_3107" data-name="Group 3107" transform="translate(237.937 -351.439)">
    <path id="Path_8391" data-name="Path 8391" d="M-228.094,371.7c-1.664,0-3.329,0-4.993,0a4.16,4.16,0,0,1-1.547-.217,2.086,2.086,0,0,1-1.449-2.1c-.009-2.169-.017-4.338.008-6.507.006-.486-.139-.668-.615-.6a1.807,1.807,0,0,1-.478,0c-.741-.094-1.011-.7-.522-1.264.791-.906,1.625-1.774,2.437-2.662q2.874-3.142,5.746-6.285c.864-.941,2.2-.8,3.257.363,1.411,1.546,2.746,3.166,4.221,4.646,1.105,1.109,2.015,2.4,3.209,3.417a.955.955,0,0,1,.358,1.038.9.9,0,0,1-.861.669c-.6.036-.679.346-.671.871.03,2.077.015,4.155.011,6.233a2.06,2.06,0,0,1-1.7,2.229,4.852,4.852,0,0,1-1.35.172Zm.03-.549c1.186,0,2.372.007,3.557,0a18.542,18.542,0,0,0,2.252-.067c1.309-.171,1.725-.7,1.725-2,0-2.192.018-4.385-.012-6.577-.008-.571.1-.878.743-.787a.579.579,0,0,0,.639-.3c.145-.294-.1-.468-.262-.645-.794-.873-1.578-1.755-2.384-2.619-1.7-1.825-3.389-3.669-5.078-5.509a1.447,1.447,0,0,0-2.425.035c-2.188,2.372-4.346,4.773-6.515,7.162-.274.3-.559.588-.858.865-.26.241-.75.506-.6.89.123.305.63.149.95.116.658-.068.8.205.792.816-.032,2.26-.016,4.522-.011,6.782a1.641,1.641,0,0,0,1.536,1.764,8.122,8.122,0,0,0,1.09.07C-231.3,371.151-229.684,371.147-228.064,371.147Z" fill="#082742"/>
  </g>
</svg>
