<svg xmlns="http://www.w3.org/2000/svg" width="15.773" height="15.776" viewBox="0 0 15.773 15.776">
  <g id="Group_48970" data-name="Group 48970" transform="translate(-3557 -8040.364)">
    <g id="Group_46706" data-name="Group 46706" transform="translate(3557 8040.364)">
      <path id="Path_22880" data-name="Path 22880" d="M126.1,205.052a.4.4,0,0,1-.11.233c-.324.43-.645.863-.974,1.289a.217.217,0,0,0-.024.285,5.119,5.119,0,0,1,.517,1.224.218.218,0,0,0,.215.188c.528.059,1.055.134,1.582.2.272.036.335.106.336.378q0,.889,0,1.778c0,.269-.055.334-.314.374-.532.082-1.063.17-1.6.243a.221.221,0,0,0-.214.192,5.23,5.23,0,0,1-.5,1.209.2.2,0,0,0,.02.268c.329.418.648.844.97,1.267.17.224.166.309-.027.5q-.632.639-1.267,1.277c-.179.18-.27.187-.473.037-.434-.319-.869-.637-1.3-.962a.217.217,0,0,0-.283-.027,4.916,4.916,0,0,1-1.208.5.231.231,0,0,0-.2.23c-.061.535-.135,1.068-.206,1.6-.029.222-.109.3-.329.3q-.93.005-1.859,0c-.238,0-.306-.068-.345-.326-.081-.532-.167-1.064-.241-1.6a.207.207,0,0,0-.183-.2,5.1,5.1,0,0,1-1.191-.491.23.23,0,0,0-.3.019c-.419.327-.847.644-1.272.964-.212.159-.3.152-.487-.035q-.625-.618-1.249-1.238c-.219-.217-.225-.291-.047-.535.309-.425.616-.851.93-1.272a.222.222,0,0,0,.025-.286,5.042,5.042,0,0,1-.515-1.246.2.2,0,0,0-.205-.17c-.515-.056-1.029-.125-1.544-.184-.289-.034-.353-.1-.354-.378q0-.889,0-1.778c0-.273.057-.338.333-.38.532-.081,1.064-.163,1.6-.239.1-.014.154-.041.182-.146a5.289,5.289,0,0,1,.547-1.3.173.173,0,0,0-.029-.23q-.5-.633-1-1.272c-.166-.213-.163-.3.021-.488q.639-.646,1.282-1.289c.179-.179.268-.184.472-.029.435.329.871.657,1.3.992a.2.2,0,0,0,.268.022,5.256,5.256,0,0,1,1.245-.518.205.205,0,0,0,.173-.207c.063-.548.135-1.1.206-1.643.029-.223.107-.294.329-.3q.919,0,1.839,0c.258,0,.326.063.365.327.078.54.16,1.079.231,1.619a.207.207,0,0,0,.176.2,5.043,5.043,0,0,1,1.21.5.2.2,0,0,0,.265-.019c.425-.331.855-.656,1.284-.982.235-.179.313-.174.518.029l1.275,1.268A.344.344,0,0,1,126.1,205.052Zm-6.333,12.073v0c.2,0,.4-.007.606,0,.132.006.186-.032.2-.174.059-.515.136-1.028.2-1.542a.34.34,0,0,1,.295-.328,5,5,0,0,0,1.523-.631.354.354,0,0,1,.458.023c.413.314.838.611,1.249.927.119.091.181.079.279-.025.273-.289.554-.57.839-.847.09-.088.1-.146.019-.25-.321-.407-.627-.826-.948-1.234a.35.35,0,0,1-.031-.458,4.937,4.937,0,0,0,.631-1.523.344.344,0,0,1,.329-.294c.52-.074,1.037-.163,1.557-.237.118-.017.159-.058.157-.177q-.011-.616-.005-1.233c0-.117-.033-.163-.155-.178-.515-.06-1.028-.139-1.543-.2a.359.359,0,0,1-.356-.315,4.849,4.849,0,0,0-.64-1.519.349.349,0,0,1,.021-.457c.322-.415.63-.841.952-1.256a.153.153,0,0,0-.018-.248q-.438-.419-.859-.856c-.089-.093-.148-.1-.25-.016-.419.328-.848.643-1.267.971a.344.344,0,0,1-.441.023,5.066,5.066,0,0,0-1.527-.621.327.327,0,0,1-.279-.318c-.069-.527-.156-1.052-.225-1.579-.017-.126-.055-.172-.186-.169-.411.008-.822.008-1.233,0-.118,0-.162.035-.176.156-.061.528-.136,1.055-.2,1.583a.33.33,0,0,1-.275.324,5.112,5.112,0,0,0-1.578.653.327.327,0,0,1-.423-.021c-.42-.327-.849-.641-1.268-.969-.1-.08-.16-.076-.248.017q-.411.431-.84.846c-.1.093-.106.154-.018.263.326.4.638.818.962,1.223a.337.337,0,0,1,.028.44,5.135,5.135,0,0,0-.659,1.576.319.319,0,0,1-.3.269c-.513.072-1.024.162-1.538.228-.16.02-.2.082-.193.23q.014.576,0,1.152c0,.144.036.2.187.212.509.053,1.015.13,1.524.184a.331.331,0,0,1,.323.3,4.877,4.877,0,0,0,.631,1.523.363.363,0,0,1-.017.475c-.315.412-.613.837-.924,1.252-.072.1-.087.155.012.249.3.282.59.573.876.868.084.087.14.087.234.015.415-.322.84-.631,1.254-.954a.34.34,0,0,1,.44-.026,4.942,4.942,0,0,0,1.524.628.341.341,0,0,1,.295.327c.071.507.161,1.011.227,1.518.02.151.064.212.222.2C119.387,217.115,119.577,217.125,119.765,217.125Z" transform="translate(-111.871 -201.871)" fill="rgba(8,39,66,0.5)"/>
      <path id="Path_22881" data-name="Path 22881" d="M234.158,321.876a3,3,0,1,1-2.979-3.016A3,3,0,0,1,234.158,321.876Zm-.493-.006a2.51,2.51,0,1,0-2.516,2.5A2.5,2.5,0,0,0,233.664,321.87Z" transform="translate(-223.265 -313.977)" fill="rgba(8,39,66,0.5)"/>
    </g>
  </g>
</svg>
