<svg xmlns="http://www.w3.org/2000/svg" width="18.309" height="16.299" viewBox="0 0 18.309 16.299">
  <path id="Path_40752" data-name="Path 40752" d="M172.814,317.775a2.431,2.431,0,0,1-.963-.251q-3.794-1.9-7.588-3.792a.981.981,0,0,1,0-1.838c.367-.173.726-.362,1.089-.543.183-.091.181-.179,0-.269-.363-.181-.723-.366-1.088-.543a.984.984,0,0,1,0-1.841c.354-.172.7-.358,1.058-.528.219-.1.227-.192.006-.3-.364-.179-.724-.366-1.089-.543a.974.974,0,0,1,0-1.8q3.825-1.91,7.648-3.823a1.93,1.93,0,0,1,1.816.006q3.808,1.906,7.618,3.808a.978.978,0,0,1,0,1.821c-.366.174-.725.363-1.089.543-.2.1-.193.188.005.285.364.178.723.366,1.088.543a.982.982,0,0,1,0,1.825c-.365.176-.724.365-1.088.543-.2.1-.211.183-.006.285.363.18.723.367,1.089.543a.978.978,0,0,1,.008,1.82q-3.812,1.9-7.619,3.807A2.606,2.606,0,0,1,172.814,317.775Zm-.03-7.181a1.137,1.137,0,0,0,.646-.165q3.7-1.85,7.4-3.7c.136-.068.324-.108.322-.3s-.188-.235-.324-.3q-3.7-1.853-7.4-3.705a1.337,1.337,0,0,0-1.287-.007q-3.713,1.866-7.431,3.72c-.137.068-.319.112-.309.312.009.177.179.217.306.281q3.715,1.861,7.433,3.718A1.119,1.119,0,0,0,172.784,310.594Zm0,6.422a2.147,2.147,0,0,0,.626-.186c.733-.372,1.47-.736,2.205-1.1q2.629-1.315,5.257-2.63c.128-.064.289-.116.279-.3-.009-.162-.16-.2-.278-.265-.472-.239-.953-.463-1.417-.716a.694.694,0,0,0-.724-.005c-1.614.822-3.244,1.614-4.855,2.442a2.267,2.267,0,0,1-2.218-.008c-1.613-.826-3.241-1.62-4.856-2.441a.667.667,0,0,0-.693,0c-.455.247-.926.465-1.387.7-.135.069-.325.106-.325.3s.185.237.322.306q3.7,1.853,7.4,3.7A2.031,2.031,0,0,0,172.787,317.016Zm-.005-3.213a1.675,1.675,0,0,0,.553-.133q3.786-1.9,7.575-3.79c.111-.055.238-.107.243-.253.006-.168-.139-.218-.258-.278-.492-.249-.991-.484-1.476-.745a.638.638,0,0,0-.66,0c-1.648.835-3.307,1.649-4.954,2.487a2.133,2.133,0,0,1-2.064,0c-1.646-.838-3.3-1.653-4.954-2.486a.61.61,0,0,0-.629-.006c-.485.262-.984.5-1.476.745-.118.06-.269.1-.28.264-.012.185.152.234.279.3q3.742,1.873,7.485,3.744A1.7,1.7,0,0,0,172.782,313.8Z" transform="translate(-163.624 -301.476)" fill="rgba(8,39,66,0.5)"/>
</svg>
