<svg xmlns="http://www.w3.org/2000/svg" width="19.927" height="17.491" viewBox="0 0 19.927 17.491">
  <g id="Group_3108" data-name="Group 3108" transform="translate(-240.336 -42.904)">
    <path id="Path_1163" data-name="Path 1163" d="M259.155,55.528a2.5,2.5,0,0,0-1.331-.573c-.752-.282-2.12-.066-2.735-.564l-3.039-2.6c1.282-1.116,2.449-2.106,4.561-3.9.444-.11,1.093-.023,1.486-.091a2.546,2.546,0,0,0,2.166-2.279c-1.3.587-1.039.45-1.731.81a1.5,1.5,0,0,1-1.145-2c.7-.43,1.077-.618,1.8-1.02a2.51,2.51,0,0,0-2.547-.11c-1.6,1.011-1.025,2.408-1.554,2.85l-4.8,4.232-4.734-4.057c-.539-.435.02-1.847-1.609-2.843a2.527,2.527,0,0,0-2.564.143c.742.4,1.119.58,1.837,1.007a1.506,1.506,0,0,1-1.127,2.025c-.7-.351-.441-.215-1.756-.793a2.573,2.573,0,0,0,2.218,2.269c.393.06,1.048-.037,1.5.069,2.057,1.7,3.236,2.675,4.483,3.723l-2.785,2.456c-.638.533-2.129.279-2.834.654-.838.449-1.864,1.391-1.739,2.453a19.607,19.607,0,0,1,1.9-1.054,5.715,5.715,0,0,1,1.216.871c.06.75.06.75.077,1.514-.665.347-1.359.68-2.009,1.045a2.963,2.963,0,0,0,3.022-.151c1.106-.7.972-2.256,1.537-3.32l3.372-2.98c.94.8,2.072,1.773,3.634,3.121.582,1.053.479,2.6,1.57,3.3.01.01.016.014.024.023a2.789,2.789,0,1,0,3.629-4.237ZM255.79,44.5a2.9,2.9,0,0,0,2.03,3.128A2.423,2.423,0,0,1,255.79,44.5Zm-1.332,3.1c.276-.241.615-.31.755-.156s.031.489-.245.735l-3.52,3.1-.593-.5Zm-11.629.265a2.933,2.933,0,0,0,2-3.188A2.449,2.449,0,0,1,242.829,47.86Zm3.339,10.263c.007-1.05-1.018-3.07-2.613-3.1A2.556,2.556,0,0,1,246.168,58.123Zm1.406-3.432c-.28.246-.617.315-.758.155s-.027-.488.247-.73l2.049-1.807c.188.165.387.329.591.5Zm6.453.281c-.14.164-.482.1-.764-.143l-7.55-6.464c-.284-.242-.4-.567-.26-.733s.482-.095.763.148l7.547,6.458C254.049,54.482,254.167,54.811,254.027,54.972Zm3.446.159c-1.72-.257-3.062,1.865-2.6,3.181A2.224,2.224,0,0,1,257.473,55.131Zm1.366,3.234-.085.468-.45.158-.307.363-.464-.086-.449.161-.364-.308-.467-.086-.158-.449-.363-.308.086-.47-.162-.445.308-.361.086-.469.449-.16.309-.36.47.086.446-.161.361.307.47.087.16.449.359.308-.086.464.162.449Z" fill="rgba(8,39,66,0.5)"/>
  </g>
</svg>
