<svg id="Group_6655" data-name="Group 6655" xmlns="http://www.w3.org/2000/svg" width="42.909" height="42.111" viewBox="0 0 42.909 42.111">
  <g id="Background_Simple" data-name="Background Simple">
    <g id="Group_6652" data-name="Group 6652" transform="translate(0 0)">
      <path id="Path_9743" data-name="Path 9743" d="M598.975-86.434c3.74-3.738,6.907-.6,8.241-5.622,3.014-11.339,15.513-11.229,17.157-3.163,2.962,14.535,15.859,5.3,15.763,15.714-.1,11.114-8.276,19.771-22.934,20.636C604.06-58.093,592.779-80.24,598.975-86.434Z" transform="translate(-597.228 100.96)" fill="rgba(159,183,205,0.1)"/>
      <path id="Path_9744" data-name="Path 9744" d="M598.975-86.434c3.74-3.738,6.907-.6,8.241-5.622,3.014-11.339,15.513-11.229,17.157-3.163,2.962,14.535,15.859,5.3,15.763,15.714-.1,11.114-8.276,19.771-22.934,20.636C604.06-58.093,592.779-80.24,598.975-86.434Z" transform="translate(-597.228 100.96)" fill="rgba(159,183,205,0.1)" opacity="0.83"/>
    </g>
  </g>
  <g id="Character" transform="matrix(0.999, -0.035, 0.035, 0.999, 12.285, 13.536)">
    <g id="Group_6654" data-name="Group 6654" transform="translate(0 0)">
      <g id="Group_6653" data-name="Group 6653">
        <path id="Path_9745" data-name="Path 9745" d="M0,15.559a1.287,1.287,0,0,0,1.232,1.2l4.96.284a1.978,1.978,0,1,0,3.9.223l4.96.284A1.287,1.287,0,0,0,16.411,16.5a1.251,1.251,0,0,0-1.164-1.442l-.3-.363A4.011,4.011,0,0,1,14.03,11.9l.187-3.267A5.576,5.576,0,0,0,9.729,2.851a1.513,1.513,0,1,0-1.534-.088A5.576,5.576,0,0,0,3.076,8l-.189,3.3a4.012,4.012,0,0,1-1.566,2.956h0A1.251,1.251,0,0,0,0,15.559Zm9.917-14A.884.884,0,1,1,9.086.631.884.884,0,0,1,9.918,1.563Z" fill="#e8a188"/>
        <line id="Line_124" data-name="Line 124" x1="2.188" y1="0.125" transform="translate(7.057 16.926)" fill="#92e3a9"/>
        <line id="Line_125" data-name="Line 125" x1="10.034" y1="0.574" transform="translate(3.269 14.331)" fill="#92e3a9"/>
      </g>
    </g>
  </g>
</svg>
