<svg xmlns="http://www.w3.org/2000/svg" width="10.757" height="11.643" viewBox="0 0 10.757 11.643">
  <path id="Path_40730" data-name="Path 40730" d="M1375.28,1005.15c.1.042.2.085.294.126a1.374,1.374,0,0,1,.858.937c.163.582.292,1.17.4,1.764a.876.876,0,0,1-.258.826,6.019,6.019,0,0,1-.534.517.559.559,0,0,0-.154.792,8.329,8.329,0,0,0,1.385,2.057,10.506,10.506,0,0,0,1.895,1.607.484.484,0,0,0,.716-.055,1.631,1.631,0,0,1,2.163-.43,11.157,11.157,0,0,0,1.05.413,1.4,1.4,0,0,1,.848,1.27.8.8,0,0,1-.146.552c-.041.063-.092.12-.137.18a2.622,2.622,0,0,1-3.069.942,9.628,9.628,0,0,1-7.048-6.933,7.913,7.913,0,0,1-.344-2.65,1.292,1.292,0,0,1,.293-.8,3.831,3.831,0,0,1,1.4-1.115Z" transform="translate(-1373.192 -1005.15)" fill="#e8a188"/>
</svg>
