<svg xmlns="http://www.w3.org/2000/svg" width="30" height="30" viewBox="0 0 30 30">
  <g id="Group_49321" data-name="Group 49321" transform="translate(-35 -638)">
    <g id="Group_49218" data-name="Group 49218">
      <g id="Rectangle_1637" data-name="Rectangle 1637" transform="translate(35 638)" fill="none" stroke="#b6c176" stroke-width="0.5">
        <rect width="30" height="30" rx="3" stroke="none"/>
        <rect x="0.25" y="0.25" width="29.5" height="29.5" rx="2.75" fill="none"/>
      </g>
      <path id="Path_8244" data-name="Path 8244" d="M154.909,604.43v-.485a.66.66,0,0,1,.673-.645H158a5.191,5.191,0,0,0-.377-1.345,5.9,5.9,0,0,0-1.318-1.937,6.176,6.176,0,0,0-1.936-1.264,5.944,5.944,0,0,0-1.4-.376v2.42a.661.661,0,0,1-.672.646h-.484a.661.661,0,0,1-.673-.646v-2.42a5.725,5.725,0,0,0-1.371.376,6.005,6.005,0,0,0-1.964,1.264,6.354,6.354,0,0,0-1.318,1.937,6.532,6.532,0,0,0-.377,1.345h2.528a.661.661,0,0,1,.673.645v.485a.667.667,0,0,1-.673.673h-2.528a7.677,7.677,0,0,0,.377,1.345,5.928,5.928,0,0,0,1.318,1.91,6.082,6.082,0,0,0,1.964,1.291,7.371,7.371,0,0,0,1.371.376v-2.636a.661.661,0,0,1,.673-.646h.484a.66.66,0,0,1,.672.646v2.636a7.659,7.659,0,0,0,1.4-.376,6.262,6.262,0,0,0,1.936-1.291,5.528,5.528,0,0,0,1.318-1.91A5.884,5.884,0,0,0,158,605.1h-2.421a.666.666,0,0,1-.673-.673Zm-1.937-7.532a6.817,6.817,0,0,1,1.964.511A7.479,7.479,0,0,1,159,601.391a7.394,7.394,0,0,1,.511,1.91h.834a.679.679,0,0,1,.672.645v.485a.684.684,0,0,1-.672.673h-.834a8.032,8.032,0,0,1-.511,1.909,7.218,7.218,0,0,1-1.641,2.368,7.086,7.086,0,0,1-2.421,1.613,7.75,7.75,0,0,1-1.964.485v.565a.683.683,0,0,1-.672.672h-.484a.683.683,0,0,1-.673-.672v-.565a8.042,8.042,0,0,1-1.963-.485,7.337,7.337,0,0,1-2.42-1.613,7.208,7.208,0,0,1-1.641-2.368,8.06,8.06,0,0,1-.511-1.909h-.726a.667.667,0,0,1-.673-.673v-.485a.661.661,0,0,1,.673-.645h.726a7.417,7.417,0,0,1,.511-1.91A7.043,7.043,0,0,1,146.759,599a7.264,7.264,0,0,1,2.42-1.587,7.051,7.051,0,0,1,1.963-.511v-.753a.666.666,0,0,1,.673-.673h.484a.666.666,0,0,1,.672.673Z" transform="translate(-102.195 48.906)" fill="#b6c176" fill-rule="evenodd"/>
    </g>
  </g>
</svg>
