<svg id="SAUDI_ARABIA" data-name="SAUDI ARABIA" xmlns="http://www.w3.org/2000/svg" xmlns:xlink="http://www.w3.org/1999/xlink" width="36.27" height="21.162" viewBox="0 0 36.27 21.162">
  <defs>
    <clipPath id="clip-path">
      <rect id="Rectangle_4240" data-name="Rectangle 4240" width="36.27" height="21.162" fill="none"/>
    </clipPath>
  </defs>
  <g id="Group_5875" data-name="Group 5875">
    <g id="Group_5874" data-name="Group 5874">
      <g id="Group_5873" data-name="Group 5873" clip-path="url(#clip-path)">
        <rect id="Rectangle_4238" data-name="Rectangle 4238" width="36.27" height="21.162" fill="#3d9635"/>
        <g id="Group_5872" data-name="Group 5872">
          <g id="Group_5871" data-name="Group 5871" clip-path="url(#clip-path)">
            <path id="Path_8481" data-name="Path 8481" d="M365.759,414.273c-.036.494-.081,1.367.338,1.457.508.045.228-.861.411-1.027.035-.08.1-.08.1.022v.773a.364.364,0,0,0,.289.371c.133-.008.222,0,.273.127.023.443.042.886.063,1.329,0,0,.31.093.325-.747a7.9,7.9,0,0,1-.034-1c0-.093.122-.1.207-.051.133.093.192.206.4.16.315-.089.5-.236.507-.481a2.117,2.117,0,0,0-.142-.688c.014-.042-.063-.147-.047-.189.056.089.141.08.159,0a.681.681,0,0,0-.269-.418c-.111-.1-.276-.076-.335.131a1.131,1.131,0,0,0,.258.739.742.742,0,0,1,.064.371.2.2,0,0,1-.257-.051s-.252-.189-.252-.227a.9.9,0,0,0-.022-.6.758.758,0,0,0-.165-.321c-.062-.072-.147-.072-.187,0a1.115,1.115,0,0,0,.021.785c.056.17.146.275.1.275-.036.1-.106.072-.158-.038a2.747,2.747,0,0,1-.086-.722c-.024-.19-.049-.6-.173-.7-.077-.1-.19-.051-.23.046a3.553,3.553,0,0,0,.013.549,5.985,5.985,0,0,1,.155.886c.011.418-.24.182-.23-.029a1.9,1.9,0,0,0-.009-.8c-.041-.109-.09-.135-.19-.113-.081-.009-.284.215-.341.587a3.015,3.015,0,0,0-.069.363c-.03.189-.156.324-.243-.03-.078-.257-.123-.89-.251-.742" transform="translate(-355.493 -408.274)" fill="#fff"/>
            <path id="Path_8482" data-name="Path 8482" d="M367.133,416.106c-.448.224-.883.426-1.324.638a1.35,1.35,0,0,1,1.047-.848c.272.008.2.1.277.211" transform="translate(-355.487 -408.081)" fill="#fff"/>
            <path id="Path_8483" data-name="Path 8483" d="M368.773,413.5a.448.448,0,0,0-.084.025.249.249,0,0,0-.178.309c.129.776.21,1.367.337,2.14a.167.167,0,0,1-.153.2c-.168-.113-.209-.346-.494-.333a.561.561,0,0,0-.472.443,1.129,1.129,0,0,0,0,.507.415.415,0,0,0,.472.118c.125-.051.229-.177.273-.148h0c.028.051,0,.456-.59.764-.362.161-.647.2-.8-.092-.094-.186.008-.887-.227-.726-.7,1.8,1.632,2.051,1.892.076.017-.055.07-.11.106-.1.017.009.029.029.034.072-.054,1.785-1.8,1.9-2.1,1.346a1.674,1.674,0,0,1-.1-.6.326.326,0,0,0-.071-.2c-.071-.05-.166.089-.187.33a2.106,2.106,0,0,0-.022.431c.093,1.418,2.343.811,2.71-.359a4.025,4.025,0,0,0,.057-1.115h.008l.005,0c.227.241.538.03.607-.05a.1.1,0,0,1,.157-.017.359.359,0,0,0,.541-.152,5.1,5.1,0,0,0,.077-.671.636.636,0,0,0-.243.1.063.063,0,0,0-.017.034c-.009.059-.018.126-.029.19l-.005.017a.048.048,0,0,1-.022.016.074.074,0,0,1-.115-.051c-.052-.24-.274-.278-.41.1-.092.076-.255.089-.272-.017.023-.257-.082-.291-.287-.173-.066-.506-.133-.988-.2-1.495.087,0,.164.064.244-.034a2.862,2.862,0,0,0-.366-.857h0l-.016-.016-.005,0h-.007l-.012-.009c-.011,0-.021,0-.029,0m-.626,2.773a.118.118,0,0,1,.123.077.137.137,0,0,1-.026.135h0c-.017.029-.077.016-.121.016a.11.11,0,0,1-.109-.055c-.016-.045.028-.092.049-.131h0l.008-.012a.173.173,0,0,1,.077-.03" transform="translate(-355.439 -408.274)" fill="#fff"/>
            <path id="Path_8484" data-name="Path 8484" d="M370.124,413.465a.435.435,0,0,0-.158.042.307.307,0,0,0-.053.4c.09.038.178.131.118.177-.25.266-.9.713-.934.8h0v0h0l0,0h0a1.672,1.672,0,0,0,.487,0v0h0a6.751,6.751,0,0,0,.8-.81c-.032-.029-.067-.051-.1-.08a.054.054,0,0,1,0-.093.268.268,0,0,0,.027-.405.4.4,0,0,0-.2-.038m-.03.232c.041,0,.089.038.112.089s.013.109-.027.122a.134.134,0,0,1-.124-.084c-.026-.059-.011-.115.031-.122l.008,0" transform="translate(-355.222 -408.277)" fill="#fff"/>
            <path id="Path_8485" data-name="Path 8485" d="M365.868,417.275a1.318,1.318,0,0,0-.134,1.165.281.281,0,0,0,.282.093.515.515,0,0,0,.187-.5c-.052-.084-.093-.1-.146-.026-.108.219-.155.068-.164-.058a2.9,2.9,0,0,1,.029-.626c.028-.173,0-.122-.054-.05" transform="translate(-355.5 -407.975)" fill="#fff"/>
            <path id="Path_8486" data-name="Path 8486" d="M375.867,416.952c-.239-.52-.573-1.031-.678-1.224s-.906-1.355-1.024-1.49c-.26-.308.423.131-.086-.485-.191-.165-.2-.173-.367-.308-.078-.059-.278-.161-.311.008a.993.993,0,0,0,.017.367,1.3,1.3,0,0,0,.2.312,23.067,23.067,0,0,1,2.224,3.572c.11-.051.086-.662.022-.751" transform="translate(-354.876 -408.285)" fill="#fff"/>
            <path id="Path_8487" data-name="Path 8487" d="M374.708,418.674c-.049.051.115.283.33.279a1.241,1.241,0,0,0,.958-.768,1.343,1.343,0,0,0,.219-.591,12.935,12.935,0,0,0-.239-2.988.471.471,0,0,1,.009-.207c.023-.029.1,0,.143-.067.062-.064-.161-.579-.287-.777-.045-.089-.062-.148-.136.009a1.133,1.133,0,0,0-.124.565c.17,1.174.222,2.208.334,3.381a.469.469,0,0,1-.083.346,3.274,3.274,0,0,1-1.123.819" transform="translate(-354.77 -408.277)" fill="#fff"/>
            <path id="Path_8488" data-name="Path 8488" d="M379.175,418.669c-.257.148-.257.321-.049.325a1.279,1.279,0,0,0,1.07-.511,1.7,1.7,0,0,0,.172-.658,15.489,15.489,0,0,0-.193-3.229,1.4,1.4,0,0,1-.036-.3c.024-.055.139.008.178-.059.063-.059-.3-.527-.427-.726-.043-.089-.058-.148-.134.013a.9.9,0,0,0-.073.561,30.93,30.93,0,0,1,.358,3.647,1.1,1.1,0,0,1-.071.3,2.272,2.272,0,0,1-.349.41c-.118.084-.365.169-.445.231" transform="translate(-354.425 -408.281)" fill="#fff"/>
            <path id="Path_8489" data-name="Path 8489" d="M379.4,417.527c0-.3.009-.558,0-.781s-.114-1.059-.145-1.236-.07-.452-.119-.668a1.752,1.752,0,0,1-.044-.379c.02-.059.1,0,.138-.068a2.365,2.365,0,0,0-.337-.937c-.047-.089-.135-.059-.24.084-.1.093-.065.3-.027.507a18.634,18.634,0,0,1,.406,4.006c-.014.106.376-.325.372-.527" transform="translate(-354.457 -408.282)" fill="#fff"/>
            <path id="Path_8490" data-name="Path 8490" d="M377.636,415.766c-.162,0-.5-.313-.6-.495a.347.347,0,0,1,.019-.266c.059-.038.151-.084.219-.038,0,0,.071.1.057.11.089.042.126.016.135-.022.005-.058-.027-.1-.027-.164a.187.187,0,0,1,.333-.1.691.691,0,0,1,.09.33c0,.055-.088-.009-.136,0s-.062.067-.066.118c-.011.139-.025.354-.027.52" transform="translate(-354.583 -408.175)" fill="#fff"/>
            <path id="Path_8491" data-name="Path 8491" d="M374.9,417.859a13.919,13.919,0,0,0-.019-1.477c-.015-.565-.109-1.659-.151-1.84-.051-.346.139.038.112-.164a2.2,2.2,0,0,0-.475-.892c-.072-.1-.069-.122-.182.026a1.06,1.06,0,0,0,.014.693,12.715,12.715,0,0,1,.3,2.009,17.99,17.99,0,0,1,.017,2.135c.122,0,.316-.2.384-.49" transform="translate(-354.816 -408.282)" fill="#fff"/>
            <path id="Path_8492" data-name="Path 8492" d="M380.045,417.205c-.282-.478-.712-1.034-.826-1.224s-1.083-1.608-1.2-1.734c-.354-.367.162-.059-.067-.351a2.841,2.841,0,0,0-.418-.405c-.083-.05-.134-.156-.162.017a3.628,3.628,0,0,0-.013.465.593.593,0,0,0,.142.286,26.639,26.639,0,0,1,2.544,3.694c.108-.051.07-.662,0-.747" transform="translate(-354.556 -408.281)" fill="#fff"/>
            <path id="Path_8493" data-name="Path 8493" d="M377.392,422.121h0a.238.238,0,0,0-.08.439c-2.65,0-6.716-.042-7.585-.042-.49,0-2.032-.058-2.06-.058a1.569,1.569,0,0,0,1.435.59c1.178,0,6.629-.012,8.177-.012a.539.539,0,0,0,.1.565l.007,0,.01,0h0c.1.025.149-.051.185-.1a10.815,10.815,0,0,0,1.189,0h0c.058.084.118.165.227.152.193-.042.346-.064.352-.456,0,0-.021-.667-.459-.625-.1.013-.4.042-.4.042-.337-.038-.586-.042-.965-.059.036-.042.1-.224.022-.286a.132.132,0,0,0-.091-.026h-.008l-.009-.009v0a.7.7,0,0,1-.042-.115h-.009m.179.954h0c.385.017.747,0,1.136.021a.142.142,0,0,1-.011.195l-.005,0h-.011l-.323-.009c0-.009,0-.012,0-.021-.031-.089-.245-.081-.3-.009h0l0,0,0,.009v.008l0,.013a2.81,2.81,0,0,1-.494-.016c-.048-.059-.042-.17.016-.2" transform="translate(-355.338 -407.579)" fill="#fff"/>
            <path id="Path_8494" data-name="Path 8494" d="M370.469,413.884c-.257.735.149,1.545.429,1.469.2.08.332-.308.416-.73.058-.118.1-.131.13-.071-.009.565.04.693.185.861a.462.462,0,0,0,.612.009c.021-.017.252-.25.252-.25a.15.15,0,0,1,.21-.009c.076.068.066.19.23.27a.494.494,0,0,0,.5-.1c.093-.157.112-.212.156-.27.067-.089.178-.051.178-.022-.01.051-.073.1-.032.186.08.059.1.022.146.009.163-.08.287-.434.287-.434.005-.135-.068-.123-.119-.093s-.065.051-.129.089c-.079.009-.236.063-.31-.055a4.9,4.9,0,0,1-.142-.49c0-.009-.1-.224-.006-.241.048.009.151.038.17-.051.051-.084-.11-.329-.22-.447a.241.241,0,0,0-.357-.013c-.089.081-.077.178-.1.263a.41.41,0,0,0,.086.354,1.082,1.082,0,0,1,.2.722.3.3,0,0,1-.262.135c-.068-.017-.182-.046-.242-.485-.043-.338.013-.811-.131-1.027-.052-.135-.087-.266-.213-.034a.523.523,0,0,0-.073.5,1.492,1.492,0,0,1,.08.781,1.435,1.435,0,0,1-.15.215.253.253,0,0,1-.318.042.345.345,0,0,1-.19-.266,3.811,3.811,0,0,0-.031-.866.154.154,0,0,0-.259-.055,1.956,1.956,0,0,0-.477.976c-.073.236-.152.169-.206.071-.133-.122-.143-1.1-.3-.941" transform="translate(-355.118 -408.29)" fill="#fff"/>
            <path id="Path_8495" data-name="Path 8495" d="M371.492,415.25l-.008,0,0,0c-.017.009-.039.038-.083.071-.078.089-.088.148-.084.317,0,.022.142.405.261.68a2.114,2.114,0,0,1,.1.916,2.225,2.225,0,0,1-.923.962.473.473,0,0,1-.386,0v0a.231.231,0,0,1-.1-.219h0a2.2,2.2,0,0,0,.928-.957,1,1,0,0,0,.026-.693.7.7,0,0,0-.159-.317l0,0c.052-.025.186.076.207.013a.987.987,0,0,0-.266-.49.225.225,0,0,0-.327-.022c-.111.064-.134.287-.083.485.061.144.224.17.34.465v0a.562.562,0,0,1-.021.308,3.533,3.533,0,0,1-.695.651l0,0v0h-.008l0,0a.672.672,0,0,0,0-.1c0-.084.033-.287.031-.325h0v0h0c-.2.131-.266.527-.3.646a8.838,8.838,0,0,0-1.411.966c-.174.266,1.189-.312,1.347-.379l.006,0c.029.029.029.143.121.249a.72.72,0,0,0,.735.241,2.356,2.356,0,0,0,1.063-.887c.04-.058.106-.1.163-.058a1.664,1.664,0,0,0,1.506.789c.17-.206.09-.312.019-.35-.022-.017-.366-.152-.419-.287-.033-.122.048-.231.213-.317a7.274,7.274,0,0,0,1.39-.266,1.2,1.2,0,0,1,.152-.477.211.211,0,0,1,.079-.084l0,0h0v0l0-.009-.078-.046-1.511-.009a.22.22,0,0,1-.042-.021h0v0h0l0,0h0v0h0v0h0v0h0l0,0a.109.109,0,0,1,.048-.029c.363-.046,1-.152,1.044-.773a.535.535,0,0,0-.531-.587.541.541,0,0,0-.464.613c-.013.08.029.244-.055.262-.555.055-1.162.4-1.183.65h-.008l0,0H372.1l-.006,0a.137.137,0,0,1-.073-.151,2.989,2.989,0,0,0-.383-1.292c-.077-.08-.111-.109-.135-.113h-.009m2.207.553a.186.186,0,0,1,.119.029.151.151,0,0,1,.093.126v.009h0l0,0v0l-.01.009c-.029.029-.094.025-.158-.013a.162.162,0,0,1-.093-.122v0c0-.009,0-.013.006-.013l0-.009h0l.008-.009a.056.056,0,0,1,.036-.012m-1.4,1.274h.017a4.5,4.5,0,0,0,.632.072c.175.013.262.148.1.206s-.318.1-.318.334c.021.113.017.177,0,.2l-.007.009v0h0v0h0l-.006,0-.006,0c-.04,0-.1-.038-.139-.055a.872.872,0,0,1-.419-.62.16.16,0,0,1,.158-.165" transform="translate(-355.27 -408.133)" fill="#fff"/>
            <path id="Path_8496" data-name="Path 8496" d="M367.528,413.879c.175.08.5.046.487-.232,0-.026-.005-.11-.008-.131-.033-.084-.133-.068-.155.021-.008.026.011.072-.013.089s-.071,0-.07-.071a.123.123,0,0,0-.028-.068.052.052,0,0,0-.039-.012c-.024,0-.024.008-.035.029a.193.193,0,0,0-.013.064c0,.029-.016.038-.037.042s-.015,0-.036-.009-.025-.017-.025-.038a.324.324,0,0,0-.009-.068.076.076,0,0,0-.043-.025c-.1,0-.1.109-.1.151-.009.009-.012.2.118.258" transform="translate(-355.359 -408.277)" fill="#fff"/>
            <path id="Path_8497" data-name="Path 8497" d="M372.249,415.879c.174.08.588.033.488-.237,0-.026-.006-.11-.01-.131-.036-.084-.132-.064-.155.021-.005.03.014.077-.012.093s-.07,0-.069-.076a.106.106,0,0,0-.029-.064.05.05,0,0,0-.039-.012c-.023,0-.023.008-.037.029a.235.235,0,0,0-.013.064c0,.029-.013.038-.035.042s-.015,0-.035-.009-.025-.017-.025-.038a.16.16,0,0,0-.012-.068.07.07,0,0,0-.042-.025c-.094,0-.1.109-.1.151-.005,0-.01.2.119.258" transform="translate(-354.978 -408.116)" fill="#fff"/>
            <path id="Path_8498" data-name="Path 8498" d="M375,415.051c.173.08.5.042.486-.237,0-.022-.005-.106-.008-.131-.037-.081-.135-.064-.153.025-.009.026.01.072-.016.084s-.069.009-.067-.071a.147.147,0,0,0-.029-.068.08.08,0,0,0-.038,0c-.023,0-.023,0-.037.026a.216.216,0,0,0-.014.067.036.036,0,0,1-.035.039c-.02,0-.018,0-.034-.009s-.026-.017-.026-.038a.3.3,0,0,0-.011-.072.1.1,0,0,0-.042-.016c-.1,0-.1.109-.1.147-.006.009-.011.2.119.258" transform="translate(-354.756 -408.183)" fill="#fff"/>
            <path id="Path_8499" data-name="Path 8499" d="M376.433,417.391a1.062,1.062,0,0,0-.1,1.03.814.814,0,0,0,.375.426.26.26,0,0,0,.392-.042c.177-.186.182-.654.264-.747a.157.157,0,0,1,.278-.068.749.749,0,0,0,.254.22.43.43,0,0,0,.561.038.628.628,0,0,0,.3-.363,13.175,13.175,0,0,0,.023-2.136c-.009-.051-.172-.878-.172-.886s-.024-.423-.04-.52c0-.042-.014-.054.028-.05.044.042.049.047.077.054.044.009.084-.067.058-.139-.137-.253-.278-.51-.416-.76-.031-.038-.076-.071-.13,0a.3.3,0,0,0-.1.228c.013.182.044.367.056.549.056.308.111.62.166.933.052.664.067,1.271.119,1.933-.009.279-.094.655-.179.688,0,0-.122.076-.206,0a2.491,2.491,0,0,1-.3-.405.184.184,0,0,0-.3,0,4.105,4.105,0,0,0-.52.979c-.044.068-.164.128-.3,0a1.383,1.383,0,0,1-.185-.957" transform="translate(-354.646 -408.282)" fill="#fff"/>
            <path id="Path_8500" data-name="Path 8500" d="M375.081,413.512a.565.565,0,0,1,.229.532c-.031.19-.112.4-.173.372s.043-.19-.017-.363c-.037-.115-.247-.317-.225-.38-.045-.126.09-.186.186-.16" transform="translate(-354.755 -408.273)" fill="#fff"/>
            <path id="Path_8501" data-name="Path 8501" d="M376.945,417.579a4.785,4.785,0,0,0-.032-.836c-.01-.219-.251-2.031-.3-2.2-.058-.317.236-.042.2-.228-.1-.232-.354-.574-.433-.777-.05-.089-.029-.164-.137-.02a1.784,1.784,0,0,0-.1.793,17.315,17.315,0,0,1,.478,3.816c.12,0,.259-.274.32-.548" transform="translate(-354.655 -408.279)" fill="#fff"/>
            <path id="Path_8502" data-name="Path 8502" d="M379.36,413.926c.145.076.228.468.212.582-.027.206-.1.43-.157.4s.011-.308-.017-.392c-.033-.123-.226-.347-.206-.414a.137.137,0,0,1,.169-.177" transform="translate(-354.408 -408.24)" fill="#fff"/>
            <path id="Path_8503" data-name="Path 8503" d="M369.586,416.605c.134.051.215.343.2.427-.028.152-.1.312-.15.3s.012-.227-.017-.291c-.01-.157-.2-.237-.195-.3-.036-.123.077-.144.162-.127" transform="translate(-355.196 -408.024)" fill="#fff"/>
            <path id="Path_8504" data-name="Path 8504" d="M366.222,413.422c.2.059.212.354.2.443-.027.157-.1.325-.151.3s0-.232-.029-.3c-.028-.1-.2-.262-.178-.312-.039-.106.077-.157.16-.135" transform="translate(-355.467 -408.281)" fill="#fff"/>
            <path id="Path_8505" data-name="Path 8505" d="M369.888,414.713a.357.357,0,0,0-.117.477.233.233,0,0,0,.249.077c.151.021.241-.283.241-.283s0-.084-.174.076c-.076.017-.085-.012-.1-.055a.378.378,0,0,1,.023-.236c.028-.077-.03-.11-.117-.055" transform="translate(-355.172 -408.178)" fill="#fff"/>
            <path id="Path_8506" data-name="Path 8506" d="M370.961,413.318a.554.554,0,0,0-.233.4c-.006.1-.026.1.042.169.05.071.1.063.2.009a.2.2,0,0,0,.1-.135c.025-.119-.123.054-.144-.077s.063-.169.153-.291c0-.08,0-.135-.111-.072" transform="translate(-355.091 -408.291)" fill="#fff"/>
            <path id="Path_8507" data-name="Path 8507" d="M371.811,413.48a2.4,2.4,0,0,0-.068.46c-.027.113.121.164.187.016a1.349,1.349,0,0,0,.106-.5c-.03-.173-.148-.164-.225.026" transform="translate(-355.009 -408.288)" fill="#fff"/>
            <path id="Path_8508" data-name="Path 8508" d="M377.234,416.274l.827-.59c.082-.03.065.3.027.291a3.17,3.17,0,0,1-.854.6c-.039.025-.079-.224,0-.3" transform="translate(-354.569 -408.098)" fill="#fff"/>
            <path id="Path_8509" data-name="Path 8509" d="M377.925,416.227c.144.071.2.485.184.6.005.219-.137.4-.192.372s.006-.274-.021-.363c-.034-.122-.156-.35-.134-.418a.14.14,0,0,1,.163-.189" transform="translate(-354.524 -408.054)" fill="#fff"/>
            <path id="Path_8510" data-name="Path 8510" d="M373.477,417.9a1.173,1.173,0,0,1,.228-.2.138.138,0,0,1,.157.03c.014.076-.05.151-.029.257.015.042.029.093.107.071a.546.546,0,0,1,.375-.109c.1,0,.1.169.041.169a2.8,2.8,0,0,0-.512.182.112.112,0,0,1-.147-.022.146.146,0,0,1-.015-.147c.008-.084-.027-.131-.1-.127-.054.035-.1.051-.126-.008-.01-.047-.014-.072.022-.1" transform="translate(-354.871 -407.936)" fill="#fff"/>
            <path id="Path_8511" data-name="Path 8511" d="M378.71,418.107a.1.1,0,0,1,0,.156c-.057.055-.1.081-.154.135-.026.046-.042.115.038.135.15.042.5-.182.5-.189a.1.1,0,0,0,.032-.123c-.032-.038-.106-.016-.156-.016-.025,0-.1-.017-.065-.081a.623.623,0,0,0,.064-.122c.022-.055,0-.089-.084-.118a.716.716,0,0,0-.215,0c-.052.013-.069.038-.079.1,0,.093.062.089.121.126" transform="translate(-354.461 -407.921)" fill="#fff"/>
          </g>
        </g>
      </g>
    </g>
  </g>
</svg>
