<svg xmlns="http://www.w3.org/2000/svg" width="35.91" height="34.307" viewBox="0 0 35.91 34.307">
  <g id="Group_6628" data-name="Group 6628" transform="translate(0.066 0.5)">
    <path id="Path_9052" data-name="Path 9052" d="M-2439.408,3680l4.5,9.123a1.146,1.146,0,0,0,.863.627l10.068,1.463a1.145,1.145,0,0,1,.635,1.953l-7.285,7.1a1.144,1.144,0,0,0-.329,1.013l1.72,10.027a1.146,1.146,0,0,1-1.662,1.208l-9-4.734a1.146,1.146,0,0,0-1.066,0l-9.005,4.734a1.145,1.145,0,0,1-1.662-1.208l1.72-10.027a1.145,1.145,0,0,0-.33-1.013l-7.285-7.1a1.145,1.145,0,0,1,.635-1.953l10.068-1.463a1.144,1.144,0,0,0,.862-.627l4.5-9.123A1.146,1.146,0,0,1-2439.408,3680Z" transform="translate(2458.324 -3679.365)" fill="none" stroke="#0f4c81" stroke-width="1"/>
  </g>
</svg>
