<svg id="Group_2878" data-name="Group 2878" xmlns="http://www.w3.org/2000/svg" width="45.861" height="45.203" viewBox="0 0 45.861 45.203">
  <path id="Path_1185" data-name="Path 1185" d="M333.594,198.021h0a.268.268,0,0,0,.19-.079l2.563-2.563a.269.269,0,0,0,0-.379l-10.381-10.38a.267.267,0,0,0-.379,0l-2.563,2.563a.268.268,0,0,0,0,.379L333.4,197.941A.268.268,0,0,0,333.594,198.021Zm2.184-2.831-2.184,2.183-10-10,2.184-2.183Z" transform="translate(-300.564 -175.2)" fill="#082742"/>
  <path id="Path_1186" data-name="Path 1186" d="M339.867,208.183a.267.267,0,0,0,.189-.078l6.453-6.453a.267.267,0,0,0,0-.379l-4.971-4.972a.277.277,0,0,0-.379,0l-6.453,6.454a.269.269,0,0,0,0,.38l4.971,4.971A.267.267,0,0,0,339.867,208.183Zm6.074-6.721-6.074,6.074-4.593-4.592,6.075-6.075Z" transform="translate(-321.256 -176.352)" fill="#082742"/>
  <g id="Group_2705" data-name="Group 2705" transform="translate(18.469 13.254)">
    <path id="Path_1187" data-name="Path 1187" d="M335.227,199.653a.27.27,0,0,0,.19-.078l2.563-2.563a.269.269,0,0,0,.078-.189.273.273,0,0,0-.078-.19l-4.3-4.3a.277.277,0,0,0-.379,0l-2.562,2.563a.267.267,0,0,0,0,.379l4.3,4.3A.267.267,0,0,0,335.227,199.653Zm2.183-2.83-2.183,2.182-3.917-3.918,2.183-2.183Z" transform="translate(-327.621 -189.215)" fill="#082742"/>
    <path id="Path_1188" data-name="Path 1188" d="M330.051,203.225a.27.27,0,0,0,.19-.079l2.562-2.563a.269.269,0,0,0,0-.38l-2.494-2.494a.269.269,0,0,0-.379,0l-2.563,2.563a.269.269,0,0,0,0,.379l2.494,2.494A.27.27,0,0,0,330.051,203.225Zm2.183-2.831-2.183,2.183-2.116-2.116,2.184-2.182Z" transform="translate(-319.402 -189.745)" fill="#082742"/>
    <path id="Path_1189" data-name="Path 1189" d="M338.8,194.475a.269.269,0,0,0,.19-.078l2.562-2.563a.269.269,0,0,0,0-.379l-2.494-2.494a.269.269,0,0,0-.379,0l-2.562,2.562a.267.267,0,0,0,0,.379l2.494,2.5A.265.265,0,0,0,338.8,194.475Zm2.182-2.83-2.182,2.183-2.115-2.116,2.182-2.182Z" transform="translate(-336.037 -188.882)" fill="#082742"/>
  </g>
  <path id="Path_1190" data-name="Path 1190" d="M318.929,182.941h0a.267.267,0,0,0,.189-.078l1.361-1.361a.269.269,0,0,0,0-.38l-.482-.483.015-.014a3.756,3.756,0,0,0,0-5.3l-1.062-1.063a.269.269,0,0,0-.19-.078h0a.265.265,0,0,0-.189.078l-.547.547a.269.269,0,0,0,0,.38l.309.309-.055.055a.269.269,0,0,0-.078.19.265.265,0,0,0,.078.189l.59.59a.267.267,0,0,0,.379,0l.039-.039a2.449,2.449,0,0,1-.2,3.219l-.015.014-.981-.98.411-.411a.269.269,0,0,0,0-.379l-.339-.339.288-.288a.267.267,0,0,0,0-.38l-.588-.589a.269.269,0,0,0-.379,0l-.289.288-.339-.339a.267.267,0,0,0-.379,0l-.41.41-2.391-2.391a.269.269,0,0,0-.38,0l-1.362,1.361a.269.269,0,0,0,0,.379l6.807,6.807A.269.269,0,0,0,318.929,182.941Zm.982-1.63-.982.983-6.428-6.428.982-.982,2.391,2.391a.269.269,0,0,0,.38,0l.411-.411.339.339a.269.269,0,0,0,.379,0l.288-.288.209.21-.288.288a.269.269,0,0,0,0,.379l.339.34-.41.41a.269.269,0,0,0,0,.379l1.36,1.36a.269.269,0,0,0,.19.078h0a.265.265,0,0,0,.189-.078l.2-.2a2.986,2.986,0,0,0,.026-4.178.269.269,0,0,0-.19-.082.236.236,0,0,0-.192.079l-.052.052-.209-.21.055-.055a.269.269,0,0,0,0-.38l-.31-.309.168-.168.873.873a3.218,3.218,0,0,1,0,4.546l-.2.2a.268.268,0,0,0,0,.38Z" transform="translate(-275.247 -174.178)" fill="#082742"/>
  <g id="Group_2706" data-name="Group 2706" transform="translate(25.665 8.71)">
    <path id="Path_1191" data-name="Path 1191" d="M323.641,184.885l-.9-.549.548.9,8.932,8.932.9.549-.549-.9Z" transform="translate(-322.742 -183.89)" fill="#082742"/>
    <path id="Path_1192" data-name="Path 1192" d="M323.146,184.389l-.9-.549.549.9,8.932,8.932.9.549-.549-.9Z" transform="translate(-321.8 -183.841)" fill="#082742"/>
  </g>
  <g id="Group_2707" data-name="Group 2707" transform="translate(28.3 2.005)">
    <path id="Path_1193" data-name="Path 1193" d="M316.212,177.518l-.829-.541.54.83,5.749,5.749.83.541-.541-.829Z" transform="translate(-308.123 -176.459)" fill="#082742"/>
    <path id="Path_1194" data-name="Path 1194" d="M315.637,176.944l-.829-.541.541.829,5.749,5.749.829.541-.541-.829Z" transform="translate(-307.03 -176.403)" fill="#082742"/>
    <path id="Path_1195" data-name="Path 1195" d="M317.938,179.244l-.829-.541.541.829,5.749,5.749.829.541-.542-.829Z" transform="translate(-311.404 -176.629)" fill="#082742"/>
    <path id="Path_1196" data-name="Path 1196" d="M316.789,178.094l-.829-.541.541.83,5.749,5.749.829.541-.54-.83Z" transform="translate(-309.218 -176.516)" fill="#082742"/>
    <path id="Path_1197" data-name="Path 1197" d="M318.513,179.82l-.83-.541.541.829,5.749,5.749.829.541-.542-.829Z" transform="translate(-312.498 -176.686)" fill="#082742"/>
    <path id="Path_1198" data-name="Path 1198" d="M317.363,178.669l-.829-.541.541.829,5.749,5.749.829.541-.541-.829Z" transform="translate(-310.311 -176.573)" fill="#082742"/>
    <path id="Path_1199" data-name="Path 1199" d="M319.664,180.97l-.829-.541.541.83,5.749,5.749.829.541-.541-.83Z" transform="translate(-314.686 -176.8)" fill="#082742"/>
    <path id="Path_1200" data-name="Path 1200" d="M319.088,180.395l-.829-.541.541.829,5.749,5.749.829.541-.541-.829Z" transform="translate(-313.592 -176.743)" fill="#082742"/>
    <path id="Path_1201" data-name="Path 1201" d="M320.814,182.12l-.829-.541.541.83,5.749,5.749.83.541-.542-.83Z" transform="translate(-316.873 -176.913)" fill="#082742"/>
    <path id="Path_1202" data-name="Path 1202" d="M320.239,181.545,319.41,181l.541.829,5.749,5.749.829.541-.541-.829Z" transform="translate(-315.779 -176.856)" fill="#082742"/>
    <path id="Path_1203" data-name="Path 1203" d="M322.539,183.846l-.829-.541.541.83L328,189.883l.83.541-.541-.829Z" transform="translate(-320.154 -177.083)" fill="#082742"/>
    <path id="Path_1204" data-name="Path 1204" d="M321.39,182.7l-.829-.542.541.83,5.749,5.749.829.541-.541-.83Z" transform="translate(-317.968 -176.97)" fill="#082742"/>
    <path id="Path_1205" data-name="Path 1205" d="M323.115,184.421l-.829-.541.541.829,5.749,5.749.83.541-.542-.829Z" transform="translate(-321.248 -177.14)" fill="#082742"/>
    <path id="Path_1206" data-name="Path 1206" d="M321.964,183.271l-.829-.541.541.829,5.749,5.749.829.541-.541-.829Z" transform="translate(-319.06 -177.026)" fill="#082742"/>
    <path id="Path_1207" data-name="Path 1207" d="M324.267,185.571l-.83-.541.541.83,5.75,5.749.829.541-.541-.83Z" transform="translate(-323.436 -177.253)" fill="#082742"/>
    <path id="Path_1208" data-name="Path 1208" d="M323.69,185l-.829-.541.541.83,5.749,5.748.829.541-.541-.829Z" transform="translate(-322.341 -177.197)" fill="#082742"/>
  </g>
  <g id="Group_2708" data-name="Group 2708" transform="translate(0 26.91)">
    <path id="Path_1209" data-name="Path 1209" d="M347.949,216.659a1.271,1.271,0,0,0,.969-2.094l.156-.155a1.271,1.271,0,0,0,1.792-1.792l.156-.156a1.263,1.263,0,0,0,.823.3h0a1.272,1.272,0,0,0,.968-2.095l.155-.155a1.3,1.3,0,0,0,1.723-.07,1.273,1.273,0,0,0,.069-1.722l.1-.1a.269.269,0,0,0,0-.379l-4.02-4.02a.266.266,0,0,0-.189-.079h0a.266.266,0,0,0-.189.079l-.105.1a1.3,1.3,0,0,0-1.723.069,1.275,1.275,0,0,0-.069,1.723l-.155.156a1.271,1.271,0,0,0-1.792,1.792l-.156.156a1.255,1.255,0,0,0-.823-.3h0a1.271,1.271,0,0,0-.969,2.094l-.155.156a1.274,1.274,0,0,0-1.722.068h0a1.275,1.275,0,0,0,0,1.8l4.254,4.254A1.261,1.261,0,0,0,347.949,216.659Zm1.122-2.893a.267.267,0,0,0-.19.078l-.529.529a.269.269,0,0,0,0,.379l.117.116a.733.733,0,0,1,0,1.038.753.753,0,0,1-1.039,0l-4.254-4.254a.739.739,0,0,1,0-1.039h0a.736.736,0,0,1,1.039,0l.117.117a.267.267,0,0,0,.189.078h0a.269.269,0,0,0,.19-.078l.528-.529a.268.268,0,0,0,0-.379l-.117-.117a.735.735,0,0,1,.519-1.255h0a.725.725,0,0,1,.518.215l.118.117a.269.269,0,0,0,.38,0l.529-.53a.267.267,0,0,0,0-.379l-.117-.117a.734.734,0,0,1,1.038-1.038l.117.117a.269.269,0,0,0,.19.078h0a.265.265,0,0,0,.189-.078l.53-.53a.269.269,0,0,0,0-.379l-.118-.117a.735.735,0,0,1,0-1.038.752.752,0,0,1,1.038,0l.118.117a.268.268,0,0,0,.379,0l.1-.1,3.641,3.641-.1.1a.268.268,0,0,0,0,.379l.117.118a.736.736,0,0,1,0,1.039.753.753,0,0,1-1.038,0l-.118-.118a.268.268,0,0,0-.379,0l-.53.529a.269.269,0,0,0,0,.379l.117.117a.735.735,0,0,1,0,1.039.726.726,0,0,1-.519.215h0a.729.729,0,0,1-.519-.215l-.117-.117a.269.269,0,0,0-.379,0l-.529.529a.269.269,0,0,0-.078.19.265.265,0,0,0,.078.189l.117.117a.735.735,0,1,1-1.039,1.038l-.117-.116A.267.267,0,0,0,349.071,213.765Z" transform="translate(-336.76 -204.031)" fill="#082742"/>
    <path id="Path_1210" data-name="Path 1210" d="M354.584,223.221h.015a2.894,2.894,0,0,0,2.729-3.149l.852-.852a1.81,1.81,0,0,0,1.622-.493l1.745-1.745a.269.269,0,0,0,0-.379l-3.4-3.4a.277.277,0,0,0-.379,0l-1.745,1.746a1.812,1.812,0,0,0-.494,1.621l-.851.852a2.888,2.888,0,0,0-2.3.833h0a2.91,2.91,0,0,0-.846,1.9.268.268,0,0,0,.078.206l2.791,2.79A.267.267,0,0,0,354.584,223.221Zm3.512-4.565a.267.267,0,0,0-.189.079l-1.047,1.048a.265.265,0,0,0-.077.224,2.359,2.359,0,0,1-2.1,2.668l-2.615-2.615a2.374,2.374,0,0,1,.681-1.431h0a2.358,2.358,0,0,1,1.988-.666.27.27,0,0,0,.224-.077l1.047-1.047a.265.265,0,0,0,.068-.262,1.277,1.277,0,0,1,.32-1.253l1.556-1.556,3.022,3.023-1.555,1.556a1.277,1.277,0,0,1-1.253.319A.258.258,0,0,0,358.1,218.656Z" transform="translate(-351.526 -204.927)" fill="#082742"/>
  </g>
  <path id="Path_1211" data-name="Path 1211" d="M335.884,198.4a.924.924,0,0,0,.653-1.577l-7.667-7.666a.945.945,0,0,0-1.306,0,.923.923,0,0,0,0,1.306l7.666,7.666a.914.914,0,0,0,.653.271Zm-7.667-8.977a.381.381,0,0,1,.273.114l7.667,7.666a.387.387,0,0,1-.273.661h0a.383.383,0,0,1-.272-.114h0l-7.666-7.667a.386.386,0,0,1,.273-.66Z" transform="translate(-304.864 -175.629)" fill="#082742"/>
  <path id="Path_1212" data-name="Path 1212" d="M339.638,202.4a1.533,1.533,0,0,0,1.088-.45.269.269,0,0,0,0-.379l-8.454-8.452a.265.265,0,0,0-.189-.078h0a.269.269,0,0,0-.19.078,1.536,1.536,0,0,0,0,2.173l6.658,6.659A1.531,1.531,0,0,0,339.638,202.4Zm.492-.665a1,1,0,0,1-1.2-.164l-6.658-6.658a1,1,0,0,1-.165-1.2Z" transform="translate(-312.6 -176.037)" fill="#082742"/>
</svg>
