<svg xmlns="http://www.w3.org/2000/svg" width="24.054" height="24.054" viewBox="0 0 24.054 24.054">
  <g id="Group_2684" data-name="Group 2684" transform="translate(0)">
    <path id="Path_1130" data-name="Path 1130" d="M163.339,138.39s-8.129,1.543-10.892,1.543-10.892-1.543-10.892-1.543v3.333l2.673.778a9.709,9.709,0,0,1,6.351,7.362l.639,3.009h2.541l.646-3.039a9.709,9.709,0,0,1,6.36-7.364l2.574-.746Z" transform="translate(-140.419 -129.911)" fill="#e8a188"/>
    <path id="Path_1131" data-name="Path 1131" d="M142.585,147.6v.073l2.431.707A10.083,10.083,0,0,1,151.6,156l.582,2.743h2l.589-2.773a10.079,10.079,0,0,1,6.6-7.617l2.332-.676V147.6A33.175,33.175,0,0,1,142.585,147.6Z" transform="translate(-141.114 -136.116)" fill="#e8a188" opacity="0.3"/>
    <path id="Path_1132" data-name="Path 1132" d="M150.105,136.469a12.027,12.027,0,1,1,12.027-12.027A12.04,12.04,0,0,1,150.105,136.469Zm0-21.867a9.84,9.84,0,1,0,9.84,9.84A9.852,9.852,0,0,0,150.105,114.6Z" transform="translate(-138.078 -112.415)" fill="#e8a188"/>
    <path id="Path_1133" data-name="Path 1133" d="M169.064,140.452c0,2.044-2.466,6.813-5.509,6.813s-5.509-4.769-5.509-6.813a1.9,1.9,0,0,1,.363-1.167,2.152,2.152,0,0,1,.6-.542,13.044,13.044,0,0,1,9.1,0,2.143,2.143,0,0,1,.6.542A1.9,1.9,0,0,1,169.064,140.452Z" transform="translate(-151.528 -129.597)" fill="#e8a188"/>
    <path id="Path_1134" data-name="Path 1134" d="M171.4,148.636a1.042,1.042,0,0,1,0,.106,3.176,3.176,0,0,1-.129.824,3.5,3.5,0,0,1-6.358,0,3.149,3.149,0,0,1-.13-.824,1.038,1.038,0,0,1,0-.106,3.312,3.312,0,0,1,6.624,0Z" transform="translate(-156.061 -134.582)" fill="#e8a188" opacity="0.3"/>
    <path id="Path_1135" data-name="Path 1135" d="M172.951,151.646a1.854,1.854,0,1,1-1.854-1.854A1.854,1.854,0,0,1,172.951,151.646Z" transform="translate(-159.07 -137.591)" fill="#e8a188"/>
    <path id="Path_1136" data-name="Path 1136" d="M169.395,140.767c-.109-.627-.5-.767-.6-.542a1.406,1.406,0,0,1,.286.9,9.194,9.194,0,0,1-1.527,4.115c-.887,1.385-2.069,2.527-3.309,2.527s-2.422-1.142-3.309-2.527a9.2,9.2,0,0,1-1.528-4.115,1.406,1.406,0,0,1,.286-.9c-.139-.131-.538-.04-.6.542a2.188,2.188,0,0,0-.027.358,9.971,9.971,0,0,0,1.993,4.939,3.5,3.5,0,0,0,6.358,0,9.976,9.976,0,0,0,1.993-4.939A2.19,2.19,0,0,0,169.395,140.767Z" transform="translate(-152.222 -131.079)" fill="#e8a188"/>
    <path id="Path_1137" data-name="Path 1137" d="M172.707,141.06a.464.464,0,0,1-.529.353,9.753,9.753,0,0,0-3.075,0,.464.464,0,0,1-.529-.353h0a.448.448,0,0,1,.389-.521,10.642,10.642,0,0,1,3.354,0,.448.448,0,0,1,.389.521Z" transform="translate(-158.613 -131.269)" fill="#e8a188"/>
    <path id="Path_1138" data-name="Path 1138" d="M162.154,143.387a13.2,13.2,0,0,1-5.823,10.01,9.978,9.978,0,0,1-11.757,0,13.2,13.2,0,0,1-5.823-10.01,11.859,11.859,0,1,0,23.4,0Z" transform="translate(-138.425 -133.277)" fill="#e8a188" opacity="0.5"/>
    <g id="Group_2683" data-name="Group 2683" transform="translate(3.5 0.102)">
      <path id="Path_1139" data-name="Path 1139" d="M157.328,113.28a13.161,13.161,0,0,1,8.527,3.078,11.831,11.831,0,0,0-17.054,0A13.161,13.161,0,0,1,157.328,113.28Z" transform="translate(-148.801 -112.729)" fill="#e8a188" opacity="0.2"/>
    </g>
  </g>
</svg>
