<svg xmlns="http://www.w3.org/2000/svg" width="33.001" height="38.991" viewBox="0 0 33.001 38.991">
  <g id="Group_7600" data-name="Group 7600" transform="translate(-561.951 -53.749)">
    <path id="Path_11206" data-name="Path 11206" d="M746.472,254.737q0-1.053,0-2.107a.362.362,0,0,0-.079-.289,4.311,4.311,0,0,1-1.114-2.689c-.15-1.083-.35-2.159-.527-3.239a9.729,9.729,0,0,0-.477-2.107,7.809,7.809,0,0,0-1.27-1.965,10.317,10.317,0,0,1-2.324-4.861,8.08,8.08,0,0,1,.234-3.373,8.972,8.972,0,0,1,1.79-3.5,9.358,9.358,0,0,1,10.775-2.735,9.382,9.382,0,0,1,5.3,5.68,8.83,8.83,0,0,1,.462,3.436,7.818,7.818,0,0,1-.691,2.6,13.915,13.915,0,0,1-2.163,3.327,5.247,5.247,0,0,0-1.139,2.6q-.4,2.516-.829,5.03a2.976,2.976,0,0,1-.781,1.59.892.892,0,0,0-.258.681c.014,1.335,0,2.671.01,4.007,0,.2-.056.316-.257.348-.04.006-.079.027-.119.034a.768.768,0,0,0-.742.611,1.437,1.437,0,0,1-.981.912,3.552,3.552,0,0,1-2.924-.08,1.532,1.532,0,0,1-.937-1.178c-.015-.1-.079-.131-.165-.153-.193-.05-.383-.114-.577-.158a.252.252,0,0,1-.218-.293C746.476,256.155,746.472,255.446,746.472,254.737Zm3.453-3.943h.95a.92.92,0,0,0,1.041-.886c.254-1.534.52-3.066.751-4.6a8.263,8.263,0,0,1,1.769-4.079,13.167,13.167,0,0,0,1.511-2.159,5.555,5.555,0,0,0,.715-2.289A6.465,6.465,0,0,0,755.5,232.7a6.667,6.667,0,0,0-5.8-2.937,6.542,6.542,0,0,0-4.4,1.824,6.46,6.46,0,0,0-1.812,2.887,5.64,5.64,0,0,0-.236,2.789,7.934,7.934,0,0,0,1.651,3.337,14.244,14.244,0,0,1,1.2,1.6,9.322,9.322,0,0,1,1.121,3.323c.226,1.51.484,3.016.738,4.522a.878.878,0,0,0,.9.747C749.223,250.8,749.574,250.794,749.925,250.794Zm.019,3.553a8.333,8.333,0,0,0,1.62-.14c.628-.13.5-.031.515-.611,0-.076,0-.151,0-.227.007-.123-.04-.159-.16-.128a2.453,2.453,0,0,1-.688.122,17.357,17.357,0,0,1-3.287-.119c-.1-.022-.143.011-.142.112a4.132,4.132,0,0,1,0,.474c-.023.221.08.3.282.339A9.947,9.947,0,0,0,749.944,254.347Zm-.033,1.98a7.763,7.763,0,0,0,1.762-.165c.468-.1.392-.033.409-.491.007-.186-.054-.22-.225-.185a9.7,9.7,0,0,1-1.739.191,9.916,9.916,0,0,1-2.091-.184c-.164-.031-.238.012-.226.182a1.089,1.089,0,0,1,0,.186c-.018.172.062.24.228.273A8.548,8.548,0,0,0,749.911,256.328Z" transform="translate(-171.263 -166.261)" fill="#0f4c81"/>
    <path id="Path_11207" data-name="Path 11207" d="M564.331,431.755c.55,0,1.1,0,1.651,0a.667.667,0,1,1,.01,1.33q-1.661.009-3.323,0a.679.679,0,0,1-.7-.525.662.662,0,0,1,.332-.734.818.818,0,0,1,.381-.073Z" transform="translate(0 -362.389)" fill="#0f4c81"/>
    <path id="Path_11208" data-name="Path 11208" d="M1248.39,443.177c-.557,0-1.115.007-1.671,0a.665.665,0,1,1,.02-1.326c.584-.005,1.169,0,1.754,0,.509,0,1.018-.007,1.527,0a.655.655,0,0,1,.715.824.667.667,0,0,1-.694.5C1249.49,443.181,1248.94,443.177,1248.39,443.177Z" transform="translate(-655.803 -372.062)" fill="#0f4c81"/>
    <path id="Path_11209" data-name="Path 11209" d="M619.376,243.973a.615.615,0,0,1-.318-.077c-.995-.576-1.994-1.144-2.981-1.733a.638.638,0,0,1-.033-1.11.709.709,0,0,1,.781.023l1.038.6,1.718.989a1.1,1.1,0,0,1,.278.212.6.6,0,0,1,.13.686A.639.639,0,0,1,619.376,243.973Z" transform="translate(-51.563 -179.464)" fill="#0f4c81"/>
    <path id="Path_11210" data-name="Path 11210" d="M1103.077,108.018a.653.653,0,0,1-.112.375l-1.37,2.38c-.1.179-.2.36-.314.534a.658.658,0,1,1-1.132-.673c.341-.606.692-1.206,1.041-1.807.231-.4.459-.8.7-1.192a.618.618,0,0,1,.718-.268A.657.657,0,0,1,1103.077,108.018Z" transform="translate(-515.869 -51.374)" fill="#0f4c81"/>
    <path id="Path_11211" data-name="Path 11211" d="M1203.634,591.642a.615.615,0,0,1,.34.092c.983.565,1.968,1.127,2.948,1.7a.658.658,0,1,1-.65,1.144c-.636-.354-1.264-.723-1.9-1.088-.363-.209-.729-.415-1.086-.634a.625.625,0,0,1-.3-.742A.633.633,0,0,1,1203.634,591.642Z" transform="translate(-614.528 -515.671)" fill="#0f4c81"/>
    <path id="Path_11212" data-name="Path 11212" d="M758.753,102.693a.6.6,0,0,1,.509.295c.574.995,1.153,1.986,1.719,2.985a.644.644,0,0,1-.424.982.654.654,0,0,1-.68-.283c-.586-1-1.173-2.007-1.748-3.016A.652.652,0,0,1,758.753,102.693Z" transform="translate(-187.991 -46.922)" fill="#0f4c81"/>
    <path id="Path_11213" data-name="Path 11213" d="M615.1,583.11a.686.686,0,0,1-.355.669q-1.035.6-2.073,1.195c-.28.161-.557.327-.84.485a.661.661,0,1,1-.671-1.138c.722-.426,1.452-.84,2.179-1.259.256-.148.508-.3.768-.443A.64.64,0,0,1,615.1,583.11Z" transform="translate(-46.856 -506.929)" fill="#0f4c81"/>
    <path id="Path_11214" data-name="Path 11214" d="M1211.92,249.742a.66.66,0,0,1,.644.472.638.638,0,0,1-.276.735q-1.505.879-3.019,1.743a.647.647,0,0,1-.878-.247.68.68,0,0,1,.26-.913q1.449-.832,2.9-1.668A.684.684,0,0,1,1211.92,249.742Z" transform="translate(-619.655 -187.896)" fill="#0f4c81"/>
    <path id="Path_11215" data-name="Path 11215" d="M952,56.134c0,.551,0,1.1,0,1.652a.653.653,0,1,1-1.3.007q0-1.673,0-3.346a.653.653,0,1,1,1.3-.007C952,55.005,952,55.57,952,56.134Z" transform="translate(-372.678 0)" fill="#0f4c81"/>
  </g>
</svg>
