<svg xmlns="http://www.w3.org/2000/svg" width="37.165" height="44.896" viewBox="0 0 37.165 44.896">
  <g id="Group_6631" data-name="Group 6631" transform="translate(-230.545 -339.273)">
    <path id="Path_9734" data-name="Path 9734" d="M230.569,358.779c0-5.932.032-11.864-.024-17.8-.012-1.318.443-1.722,1.731-1.711,5.886.05,11.773.034,17.659.008a2.572,2.572,0,0,1,2.035.832q3.159,3.275,6.408,6.462a2.7,2.7,0,0,1,.9,2.136c-.042,3.984,0,7.97-.034,11.954a1.289,1.289,0,0,0,1.007,1.455,11.2,11.2,0,0,1,7.45,11.162,11.33,11.33,0,0,1-20.762,5.807,1.634,1.634,0,0,0-1.549-.791c-4.347.03-8.694.017-13.041.014-1.71,0-1.775-.059-1.776-1.738Q230.564,367.677,230.569,358.779Zm15.07,17.9a11.98,11.98,0,0,1-.416-6.161,11.284,11.284,0,0,1,11.158-9.1c.7-.01,1.291.125,1.27-.976-.069-3.621-.042-7.245-.013-10.867.006-.709-.218-.943-.93-.927-1.81.042-3.623-.005-5.434.02-.92.013-1.316-.379-1.3-1.3.028-1.675-.06-3.355.031-5.025.06-1.1-.24-1.465-1.4-1.45q-7.47.1-14.942,0c-1.238-.019-1.489.381-1.484,1.539.042,10.686.025,21.373.025,32.059,0,2.187,0,2.187,2.234,2.187Zm20.449-3.944a9.721,9.721,0,1,0-9.725,9.77A9.675,9.675,0,0,0,266.089,372.739Zm-14.472-30.416c0,1.414,0,2.67,0,3.926,0,.356-.048.787.5.775a26.8,26.8,0,0,0,4.207-.112Z" transform="translate(0 0)" fill="#0f4c81"/>
    <path id="Path_9735" data-name="Path 9735" d="M256.775,382.571q-4.27,0-8.54,0c-.59,0-1.283.064-1.293-.791-.01-.836.654-.839,1.263-.839h17.351c.624,0,1.261.055,1.231.878-.027.743-.638.754-1.2.754Q261.18,382.57,256.775,382.571Z" transform="translate(-11.939 -30.341)" fill="#0f4c81"/>
    <path id="Path_9736" data-name="Path 9736" d="M256.915,399.51c-2.847,0-5.694,0-8.541,0-.619,0-1.406.126-1.412-.812s.785-.813,1.4-.813q8.541-.008,17.082,0c.639,0,1.4-.066,1.35.872-.042.82-.75.757-1.34.757Q261.186,399.512,256.915,399.51Z" transform="translate(-11.954 -42.672)" fill="#0f4c81"/>
    <path id="Path_9737" data-name="Path 9737" d="M255.2,414.582h-7.045c-.612,0-1.265-.006-1.222-.861.037-.737.632-.769,1.2-.769H262.36c.582,0,1.147.088,1.161.815.014.747-.558.816-1.139.815Q258.792,414.579,255.2,414.582Z" transform="translate(-11.933 -53.65)" fill="#0f4c81"/>
    <path id="Path_9738" data-name="Path 9738" d="M252.418,429.687q-2.163,0-4.326,0c-.562,0-1.157-.017-1.164-.78-.007-.734.551-.844,1.13-.845q4.393-.007,8.786,0c.62,0,1.258.071,1.235.882-.021.75-.647.744-1.2.745Q254.648,429.69,252.418,429.687Z" transform="translate(-11.929 -64.649)" fill="#0f4c81"/>
    <path id="Path_9739" data-name="Path 9739" d="M251.164,444.822c-1.036,0-2.072.006-3.107,0-.562,0-1.146-.043-1.133-.814.011-.654.506-.8,1.037-.8q3.175-.017,6.35,0c.524,0,1.034.124,1.066.774.037.765-.533.838-1.1.843C253.235,444.828,252.2,444.822,251.164,444.822Z" transform="translate(-11.926 -75.671)" fill="#0f4c81"/>
    <path id="Path_9740" data-name="Path 9740" d="M315.493,447.127a5.148,5.148,0,0,1-.449.731c-1.864,2.211-3.75,4.4-5.6,6.621-.534.638-1.028.786-1.712.22-1.183-.98-2.4-1.921-3.6-2.872-.459-.362-.86-.787-.438-1.361s.949-.316,1.409.044c.427.334.848.674,1.273,1.012,2.053,1.63,2.053,1.631,3.787-.417q1.839-2.172,3.68-4.343c.3-.347.606-.7,1.146-.468A.885.885,0,0,1,315.493,447.127Z" transform="translate(-53.129 -77.875)" fill="#0f4c81"/>
  </g>
</svg>
