<svg xmlns="http://www.w3.org/2000/svg" width="27.12" height="22.598" viewBox="0 0 27.12 22.598">
  <path id="Path_9742" data-name="Path 9742" d="M196.158-70.423a10.7,10.7,0,0,1-2.64.751c.426-.07,1.047-.84,1.3-1.151a4.826,4.826,0,0,0,.877-1.6c.021-.044.039-.1-.007-.137a.156.156,0,0,0-.141.013,13.491,13.491,0,0,1-3.129,1.2.21.21,0,0,1-.216-.057,2.465,2.465,0,0,0-.273-.28,5.536,5.536,0,0,0-1.515-.928,5.275,5.275,0,0,0-2.324-.375,5.567,5.567,0,0,0-2.206.624,5.662,5.662,0,0,0-1.779,1.453,5.467,5.467,0,0,0-1.064,2.128,5.769,5.769,0,0,0-.056,2.247c.016.126,0,.142-.108.126-4.3-.64-7.861-2.177-10.752-5.473-.126-.144-.195-.144-.3.011a5.452,5.452,0,0,0,.93,6.442c.211.2.429.4.661.581a5.48,5.48,0,0,1-2.075-.581c-.124-.079-.188-.034-.2.108a3.331,3.331,0,0,0,.034.617,5.513,5.513,0,0,0,3.4,4.394,3.139,3.139,0,0,0,.689.211,6.128,6.128,0,0,1-2.036.064c-.147-.029-.2.046-.147.188a5.72,5.72,0,0,0,4.275,3.579c.195.034.388.034.583.08-.011.018-.023.018-.034.034-.48.732-2.146,1.277-2.92,1.548a10.457,10.457,0,0,1-4.435.566c-.239-.034-.288-.031-.353,0s-.008.1.069.16c.3.2.61.376.923.547a14.557,14.557,0,0,0,2.966,1.187c5.327,1.471,11.329.39,15.328-3.584,3.141-3.121,4.242-7.425,4.242-11.736,0-.169.2-.262.317-.35a10.294,10.294,0,0,0,2.087-2.17.65.65,0,0,0,.137-.416v-.021C196.265-70.492,196.265-70.472,196.158-70.423Z" transform="translate(-169.644 73.499)" fill="none" stroke="#0f4c81" stroke-width="1"/>
</svg>
