<svg xmlns="http://www.w3.org/2000/svg" width="43.383" height="34.707" viewBox="0 0 43.383 34.707">
  <g id="Group_49368" data-name="Group 49368" transform="translate(-865.094 3118.238)">
    <path id="Path_40746" data-name="Path 40746" d="M886.716-3053.41q-7.728,0-15.456,0a5.857,5.857,0,0,1-6.158-6.156q-.018-8.25,0-16.5c0-3.334,1.735-5.415,4.988-6.247,6.885-1.76,13.792-3.426,20.757-4.837a29.812,29.812,0,0,1,5.948-.964,4.3,4.3,0,0,1,4.675,4.675c0,.9.272,1.065,1.111,1.088a5.8,5.8,0,0,1,5.875,6.01q.043,8.458,0,16.917a5.787,5.787,0,0,1-6.075,6.006c-5.221.022-10.443.006-15.665.006Zm.018-.8q7.672,0,15.344,0c3.518-.005,5.58-2.065,5.586-5.561,0-1.044-.058-2.092.019-3.13.065-.865-.276-1.022-1.062-1.014q-5.636.056-11.273.006a3.87,3.87,0,0,1-3.858-3.846c-.012-1.71,1.623-3.953,3.771-3.811.656.043,1.319-.006,1.978-.008,3.264-.012,6.529-.031,9.793-.025.518,0,.65-.21.641-.684-.022-1.183-.005-2.366-.009-3.549-.011-3.692-2.056-5.76-5.739-5.763q-15.24-.011-30.479,0a5.161,5.161,0,0,0-5.536,5.54q0,8.09,0,16.179c0,3.644,2.033,5.666,5.687,5.668Q879.166-3054.2,886.734-3054.209Zm-12.4-28.35.066.181h24.829c.313,0,.626-.014.939-.007s.485-.092.553-.454a3.8,3.8,0,0,0-2.451-4.249,5.883,5.883,0,0,0-2.986-.1c-5.156.91-10.256,2.082-15.352,3.268C878.067-3083.481,876.2-3083.012,874.338-3082.559ZM901-3070.79v-.043c-.9,0-1.8,0-2.7,0-.937.006-1.875.055-2.812.029a3.069,3.069,0,0,0-3.179,2.979,3.04,3.04,0,0,0,2.889,3.087c3.925.048,7.85.01,11.776.031.558,0,.716-.2.707-.728-.027-1.528-.049-3.058.005-4.584.025-.7-.267-.792-.853-.783C904.883-3070.773,902.939-3070.79,901-3070.79Z" transform="translate(0 -30.122)" fill="#0f4c81"/>
    <path id="Path_40748" data-name="Path 40748" d="M889.715-2952.064c-.589,0-1.179.021-1.766,0a1.479,1.479,0,0,1-1.468-1.467,1.516,1.516,0,0,1,1.38-1.662,29.458,29.458,0,0,1,3.843.014,1.412,1.412,0,0,1,1.341,1.562,1.4,1.4,0,0,1-1.357,1.535c-.652.063-1.314.012-1.972.012Zm.148-2.327v0c-.589,0-1.178,0-1.767,0a.722.722,0,0,0-.791.771.7.7,0,0,0,.717.74c1.177.016,2.354.019,3.53,0a.646.646,0,0,0,.67-.753.692.692,0,0,0-.7-.747C890.973-2954.412,890.418-2954.391,889.864-2954.391Z" transform="translate(-16.911 -135.232)" fill="#0f4c81"/>
    <path id="Path_40749" data-name="Path 40749" d="M1007.308-2997.884c.939,0,1.88-.035,2.817.011.874.042,1.556.4,1.637,1.4a1.534,1.534,0,0,1-1.451,1.614c-1.977.065-3.96.055-5.936-.023a1.463,1.463,0,0,1-1.348-1.673,1.4,1.4,0,0,1,1.568-1.328C1005.5-2997.887,1006.4-2997.885,1007.308-2997.884Zm.147,2.268c.869,0,1.739.018,2.608-.007a.787.787,0,0,0,.866-.733c.018-.554-.379-.772-.905-.771-1.74,0-3.479.01-5.219.007-.5,0-.941.107-.95.7-.009.644.461.792,1,.8C1005.719-2995.613,1006.588-2995.619,1007.456-2995.616Z" transform="translate(-109.115 -101.497)" fill="#0f4c81"/>
  </g>
</svg>
