<svg xmlns="http://www.w3.org/2000/svg" width="31.402" height="31.012" viewBox="0 0 31.402 31.012">
  <g id="Group_6632" data-name="Group 6632" transform="translate(-193.802 -420.63)">
    <path id="Path_3664" data-name="Path 3664" d="M195.4,450.512c.6-1.755,1.125-3.349,1.688-4.931a1.138,1.138,0,0,0-.143-1.141,15.116,15.116,0,1,1,14.937,6.533,15.169,15.169,0,0,1-10.273-2.051.986.986,0,0,0-.917-.089C198.993,449.388,197.285,449.917,195.4,450.512Zm5.362-18.454a6.083,6.083,0,0,0,.9,3.263c2.612,4.493,6.191,7.771,11.377,9.047a4.943,4.943,0,0,0,4.639-1.113,3.312,3.312,0,0,0,1-2.736.491.491,0,0,0-.3-.466c-1.232-.617-2.456-1.25-3.736-1.765a.711.711,0,0,0-.91.3c-.413.538-.86,1.049-1.279,1.582a.76.76,0,0,1-.99.229,12.107,12.107,0,0,1-5.879-4.938.893.893,0,0,1,.143-1.317,4.162,4.162,0,0,0,.971-1.312.873.873,0,0,0,.015-.754c-.473-1.106-.931-2.218-1.4-3.326a1.172,1.172,0,0,0-.512-.659,2.731,2.731,0,0,0-2.468.422A4.71,4.71,0,0,0,200.763,432.057Z" transform="translate(0 0)" fill="none" stroke="#0f4c81" stroke-width="1"/>
    <path id="Path_3665" data-name="Path 3665" d="M242.74,477.015a4.71,4.71,0,0,1,1.563-3.548,2.731,2.731,0,0,1,2.468-.422,1.172,1.172,0,0,1,.512.659c.468,1.108.927,2.22,1.4,3.326a.873.873,0,0,1-.015.754,4.162,4.162,0,0,1-.971,1.312.893.893,0,0,0-.143,1.316,12.107,12.107,0,0,0,5.879,4.938.76.76,0,0,0,.99-.229c.419-.533.866-1.044,1.279-1.582a.711.711,0,0,1,.91-.3c1.28.515,2.5,1.148,3.736,1.765a.491.491,0,0,1,.3.466,3.312,3.312,0,0,1-1,2.736,4.943,4.943,0,0,1-4.639,1.113c-5.187-1.276-8.766-4.554-11.378-9.047A6.082,6.082,0,0,1,242.74,477.015Z" transform="translate(-41.976 -44.957)" fill="none" stroke="#0f4c81" stroke-width="1"/>
  </g>
</svg>
